<?xml version="1.0" encoding="UTF-8"?>
<svg id="Layer_1" data-name="Layer 1" xmlns="http://www.w3.org/2000/svg" viewBox="0 0 683.63 437.17">
  <defs>
    <style>
      .cls-1 {
        fill: #0a6d53;
      }

      .cls-1, .cls-2, .cls-3, .cls-4, .cls-5, .cls-6, .cls-7, .cls-8, .cls-9, .cls-10, .cls-11, .cls-12 {
        isolation: isolate;
      }

      .cls-1, .cls-4, .cls-7, .cls-9 {
        opacity: .5;
      }

      .cls-2 {
        fill: #5a93a0;
      }

      .cls-2, .cls-10 {
        opacity: .4;
      }

      .cls-3 {
        font-size: 15.61px;
      }

      .cls-3, .cls-13 {
        fill: #eba154;
      }

      .cls-3, .cls-5, .cls-6, .cls-8, .cls-11, .cls-12 {
        font-family: ArialMT, Arial;
      }

      .cls-14, .cls-5, .cls-8, .cls-11 {
        fill: #fff;
      }

      .cls-15 {
        stroke: #0a6d53;
      }

      .cls-15, .cls-16, .cls-17, .cls-18, .cls-19, .cls-20, .cls-21, .cls-22, .cls-23, .cls-24, .cls-25, .cls-26, .cls-27, .cls-28, .cls-29, .cls-30, .cls-31, .cls-32, .cls-33, .cls-34 {
        fill: none;
      }

      .cls-15, .cls-16, .cls-17, .cls-18, .cls-20, .cls-21, .cls-22, .cls-23, .cls-24, .cls-25, .cls-26, .cls-27, .cls-30, .cls-31, .cls-32, .cls-33, .cls-34 {
        stroke-miterlimit: 10;
      }

      .cls-4 {
        fill: #2b2b3f;
      }

      .cls-35 {
        fill: #4b7195;
      }

      .cls-16 {
        stroke-dasharray: 0 0 4.12 4.12;
      }

      .cls-16, .cls-18, .cls-22, .cls-23, .cls-25, .cls-26, .cls-27, .cls-30, .cls-31, .cls-33, .cls-34 {
        stroke: #fd783d;
      }

      .cls-36 {
        fill: #9a304f;
      }

      .cls-37 {
        letter-spacing: -.04em;
      }

      .cls-38 {
        fill: #47547c;
      }

      .cls-17 {
        stroke: #c87e84;
        stroke-width: .5px;
      }

      .cls-18 {
        stroke-dasharray: 0 0 3.83 3.83;
      }

      .cls-19 {
        stroke-miterlimit: 10;
        stroke-width: 4px;
      }

      .cls-19, .cls-28, .cls-32 {
        stroke: #fff;
      }

      .cls-20 {
        stroke: #dc831e;
        stroke-width: 3px;
      }

      .cls-5 {
        font-size: 44.39px;
      }

      .cls-21 {
        stroke: #b83d5d;
      }

      .cls-6 {
        font-size: 25.44px;
      }

      .cls-6, .cls-39, .cls-12 {
        fill: #323247;
      }

      .cls-40 {
        fill: #c87e84;
      }

      .cls-23 {
        stroke-dasharray: 0 0 3.74 3.74;
      }

      .cls-41 {
        fill: #c33e5d;
      }

      .cls-7, .cls-42 {
        fill: #0c8068;
      }

      .cls-24 {
        stroke: #0c8068;
      }

      .cls-43 {
        fill: #fd783d;
      }

      .cls-25 {
        stroke-dasharray: 0 0 3.89 3.89;
      }

      .cls-44 {
        fill: #36364f;
      }

      .cls-8 {
        font-size: 18.43px;
      }

      .cls-26 {
        stroke-dasharray: 0 0 3.81 3.81;
      }

      .cls-9 {
        fill: #d9751f;
      }

      .cls-27 {
        stroke-dasharray: 0 0 3.38 3.38;
      }

      .cls-28 {
        stroke-miterlimit: 10;
        stroke-width: 4px;
      }

      .cls-45 {
        fill: #dc831e;
      }

      .cls-30 {
        stroke-dasharray: 0 0 3.4 3.4;
      }

      .cls-46 {
        fill: #80abbd;
      }

      .cls-10 {
        fill: #a3d5e6;
      }

      .cls-47 {
        fill: #b83d5d;
      }

      .cls-11 {
        font-size: 13.84px;
      }

      .cls-48 {
        fill: #49496b;
      }

      .cls-31 {
        stroke-dasharray: 0 0 4.06 4.06;
      }

      .cls-12 {
        font-size: 26.41px;
      }

      .cls-49 {
        fill: #d78f97;
      }

      .cls-32 {
        stroke-width: 4px;
      }

      .cls-50 {
        fill: #64648e;
      }

      .cls-51 {
        fill: #54b3cd;
      }

      .cls-52 {
        fill: #159a7a;
      }

      .cls-53 {
        fill: #e3b5aa;
      }

      .cls-33 {
        stroke-dasharray: 0 0 5.07 5.07;
      }

      .cls-34 {
        stroke-dasharray: 0 4;
      }
    </style>
  </defs>
  <g id="OBJECTS">
    <text class="cls-6" transform="translate(278 251.81)"><tspan x="0" y="0">&lt;/&gt;</tspan></text>
    <g>
      <path class="cls-47" d="M431.84,157.73c-1.49,32.67-33.6,57.7-57.65,59.21-31.78,2-54.49-26.66-57.65-59.21-2.74-28.2,7.27-27.77,14.73-39.53,9.04-14.24,25.88-22.11,42.92-22.11,31.84,0,59.66,17.69,57.65,61.64Z"/>
      <rect class="cls-53" x="351.84" y="213.89" width="44.69" height="55.94"/>
      <g>
        <path class="cls-53" d="M424.38,181.26c7.97-12.1,18.11-12.63,22.35,1.68,4.23,14.31-9.74,26.08-21.12,21.73-11.38-4.34-1.23-23.41-1.23-23.41Z"/>
        <path class="cls-49" d="M433.79,181.58c5.34-.98,8.08,14.93-3.63,15.46l2.41-5.55-2.26-4.62,3.49-5.29Z"/>
        <path class="cls-17" d="M428.4,199.21c6.83-7.27,1.9-12.35,1.9-12.35,0,0,6.5-13.32,9.1-3.11"/>
      </g>
      <g>
        <path class="cls-53" d="M323.62,181.26c-7.97-12.1-18.11-12.63-22.35,1.68-4.23,14.31,9.74,26.08,21.12,21.73,11.38-4.34,1.23-23.41,1.23-23.41Z"/>
        <path class="cls-49" d="M314.21,181.58c-5.34-.98-8.08,14.93,3.63,15.46l-2.41-5.55,2.26-4.62-3.49-5.29Z"/>
        <path class="cls-17" d="M319.59,199.21c-6.83-7.27-1.9-12.35-1.9-12.35,0,0-6.5-13.32-9.1-3.11"/>
      </g>
      <path class="cls-40" d="M396.53,215.13v20.81c-16.06,21.76-44.69,14.68-44.69,14.68l.5-35.5h44.18Z"/>
      <path class="cls-53" d="M374.18,238.97h0c-26.68,0-48.3-21.62-48.3-48.3v-35.3c0-18.02,14.61-32.62,32.62-32.62h31.36c18.02,0,32.62,14.61,32.62,32.62v35.3c0,26.68-21.63,48.3-48.3,48.3Z"/>
      <path class="cls-21" d="M381.62,196.99c0,4.1-3.33,7.43-7.43,7.43s-7.43-3.33-7.43-7.43"/>
      <path class="cls-47" d="M330.99,124.92s-8.46-14.02,2.14-26.39c0,0,7.61,14.1-2.14,26.39Z"/>
      <path class="cls-47" d="M335.28,121.59s-11.78,11.38-26.2,3.81c0,0,12.04-10.57,26.2-3.81Z"/>
      <path class="cls-44" d="M355,179.65c0,3.99-1.7,7.23-3.8,7.23s-3.8-3.24-3.8-7.23,1.7-7.23,3.8-7.23,3.8,3.24,3.8,7.23Z"/>
      <circle class="cls-28" cx="349.24" cy="179.12" r="19.42"/>
      <path class="cls-44" d="M400.96,179.65c0,3.99-1.7,7.23-3.8,7.23s-3.8-3.24-3.8-7.23,1.7-7.23,3.8-7.23,3.8,3.24,3.8,7.23Z"/>
      <circle class="cls-19" cx="399.11" cy="179.11" r="19.42"/>
      <path class="cls-47" d="M331.87,136.54s30.68-16.18,51.07-4.45,22.68,35.94,42.82,29.67c0,0,15.29-6.73-1.53-30.18s-28.33-28.04-50.23-22.94-36.15,9.06-42.13,27.9Z"/>
      <path class="cls-36" d="M330.7,136.31s10.13-13.43,24.31-16.98,29.86,13.89,29.86,13.89c0,0-36.33-5.18-54.17,3.09Z"/>
      <path class="cls-47" d="M325.96,153.2s3.42,24.93,0,40.14c0,0-4.99-38.65,0-40.14Z"/>
      <path class="cls-47" d="M422.13,153.2s-3.42,24.93,0,40.14c0,0,4.99-38.65,0-40.14Z"/>
      <path class="cls-47" d="M359.86,151.25c-5.27-2.52-14.64-5.29-23.33,.89-1.46,1.04-.9,3.33,.86,3.63,2.79,.48,6.78,.98,11.31,.95,3.52-.02,7.68-.89,10.79-1.69,1.83-.47,2.08-2.97,.37-3.79Z"/>
      <path class="cls-47" d="M410.76,151.25c-5.27-2.52-14.64-5.29-23.33,.89-1.46,1.04-.9,3.33,.86,3.63,2.79,.48,6.78,.98,11.31,.95,3.52-.02,7.68-.89,10.79-1.69,1.83-.47,2.07-2.97,.37-3.79Z"/>
      <g>
        <path class="cls-41" d="M390.52,214.43c-.5,.89-1.09,1.83-1.9,2.76-2.58,3.11-6.97,6.09-14.48,6.23v.03s-.56-.01-.56-.01l-.02-.05c-7.04-.14-11.38-2.79-14-5.71-1.01-1.1-1.78-2.26-2.33-3.3-1.25-2.4-1.58-4.29-1.58-4.29l36.47,.07s-.3,1.89-1.59,4.27Z"/>
        <path class="cls-44" d="M390.52,214.43c-.5,.89-1.09,1.83-1.9,2.76-8.37-3.68-18.44-4.45-29.06,.49-1.01-1.1-1.78-2.26-2.33-3.3-1.25-2.4-1.58-4.29-1.58-4.29l36.47,.07s-.3,1.89-1.59,4.27Z"/>
      </g>
      <path class="cls-13" d="M529.21,408.79l-326.96,.34s6.1-12.76,14.88-29.67c.65-1.25,1.32-2.53,2-3.83,11.99-22.87,28.12-51.76,40.71-67.43,14.5-18.04,48.76-30.9,72.03-37.93,13.56-4.09,23.38-6.2,23.38-6.2h37.56s8.82,1.89,21.28,5.58c23.25,6.87,58.01,20.97,74.13,38.55,3.54,3.86,6.87,8.53,9.99,13.71,19.84,32.97,31,86.88,31,86.88Z"/>
      <path class="cls-9" d="M529.21,408.79l-326.96,.34s6.1-12.76,14.88-29.67c163.16,47.96,249.14-30.64,268.76-51.92,3.17-3.43,7.57-5.5,12.24-5.63h.08c19.84,32.97,31,86.88,31,86.88Z"/>
      <line class="cls-32" x1="369.05" y1="182.42" x2="379.31" y2="182.42"/>
      <path class="cls-53" d="M414.09,269.65c-40.47,44.53-82.22,.63-82.22,.63,13.56-4.1,23.38-6.21,23.38-6.21h37.56s8.82,1.9,21.28,5.58Z"/>
      <g>
        <line class="cls-20" x1="284.82" y1="358.41" x2="284.82" y2="409.19"/>
        <line class="cls-20" x1="284.82" y1="390.78" x2="271.19" y2="373.39"/>
      </g>
      <g>
        <line class="cls-20" x1="462.62" y1="358.41" x2="462.62" y2="409.19"/>
        <line class="cls-20" x1="462.62" y1="390.78" x2="474.73" y2="375.34"/>
      </g>
      <path class="cls-20" d="M329.93,289.6s50.18,34.27,84.16-1.66"/>
      <text class="cls-5" transform="translate(417.5 360.08)"><tspan x="0" y="0">x</tspan></text>
      <path class="cls-47" d="M330.71,115.54c11.27-47.36,124.15-42.15,103.15,50.06-6.29,27.62-52.3-62.79-92.01-40.61-2.97,1.66-6.67,1.23-9.15-1.1h0c-2.28-2.13-2.71-5.32-1.99-8.36Z"/>
    </g>
    <g>
      <g>
        <path class="cls-46" d="M392.71,408.82s-.07,.02-.11,.02c-.27,.03-.55,.04-.83,.04H172.78c-2.91,0-5.5-1.35-7.19-3.47-1.26-1.57-2.01-3.57-2.01-5.74l-.03-.1-34.1-96.35c-2.61-7.36,2.85-15.09,10.66-15.09h142.18c4.8,0,9.07,3.02,10.67,7.54l36.75,103.82c.04,.12,.06,.18,.06,.18h62.21c5.71,0,6.34,8.54,.73,9.15Z"/>
        <path class="cls-14" d="M229.39,346.3c3.6,10.45-.47,21.33-9.08,24.29-8.61,2.96-18.51-3.11-22.1-13.57-3.6-10.45,.47-21.33,9.08-24.29,8.61-2.96,18.51,3.11,22.1,13.57Z"/>
        <path class="cls-35" d="M391.98,399.67h-62.21s-.02-.06-.05-.18l-36.76-103.82c-1.6-4.52-5.87-7.54-10.67-7.54h-4.75s10.62,.69,13.28,10.2c2.66,9.5,38.95,110.35,38.95,110.35l2.68,.2h59.32c.29,0,.57,0,.84-.04,5.72-.52,5.12-9.17-.62-9.17Z"/>
      </g>
      <path class="cls-2" d="M392.71,408.82s-.07,.02-.11,.02c-.27,.03-.55,.04-.83,.04H172.78c-2.91,0-5.5-1.35-7.19-3.47,129.44,11.12,116.7-117.28,116.7-117.28,4.8,0,9.07,3.02,10.67,7.54l36.75,103.82c.04,.12,.06,.18,.06,.18h61.23c.66,3.03,1.24,6.08,1.71,9.15Z"/>
    </g>
    <g>
      <g>
        <g>
          <g>
            <path class="cls-35" d="M132.31,345.28v3.22c-5.83,.67-7.25,5.59-7.25,11.59v1.98c0,6,1.43,10.92,7.25,11.59v3.21H20.92c-4.57,0-8.27-3.7-8.27-8.27v-15.03c0-4.57,3.7-8.29,8.27-8.29h111.39Z"/>
            <path class="cls-14" d="M130.58,370.36c.67,1.58-.56,3.3-2.26,3.3l-106.45,.08v-25.32l106.45,.08c.62,0,1.18,.23,1.6,.6,.74,.62,1.08,1.69,.67,2.7-.88,2.11-.85,5.04-.85,8.29v1.98c0,3.26-.03,6.18,.85,8.29Z"/>
            <path class="cls-10" d="M129.91,349.1c-2.04,.11-96.11,4.97-102.56,14.11-1.75,2.48-3.73,3.86-5.49,4.14v-18.93l106.45,.08c.62,0,1.18,.23,1.6,.61Z"/>
          </g>
          <path class="cls-35" d="M27.35,376.88h-9.36c-2.95,0-5.34-2.39-5.34-5.34v-20.9c0-2.95,2.39-5.34,5.34-5.34h9.36s0,31.59,0,31.59Z"/>
          <path class="cls-10" d="M130.58,370.36c.67,1.58-.56,3.3-2.26,3.3l-21.25,.02c16.88-1.92,15.83-15.79,15.83-15.79,.19-.67-13.34-8.8-13.11-9.4l18.53,.02c.62,0,1.18,.23,1.6,.6,.74,.62,1.08,1.69,.67,2.7-.88,2.11-.85,5.04-.85,8.29v1.98c0,3.25-.03,6.18,.85,8.29Z"/>
        </g>
        <g>
          <rect class="cls-10" x="27.53" y="359.23" width="102.19" height="2.28"/>
          <rect class="cls-10" x="27.53" y="354.09" width="102.19" height="2.28"/>
          <rect class="cls-10" x="27.53" y="365.77" width="102.19" height="2.28"/>
        </g>
        <polygon class="cls-41" points="96.81 369.01 91.38 363.59 85.94 369.01 85.94 354.09 96.81 354.09 96.81 369.01"/>
      </g>
      <g>
        <g>
          <g>
            <path class="cls-41" d="M144.23,376.76v3.22c-5.83,.67-7.25,5.59-7.25,11.59v1.98c0,6,1.43,10.92,7.25,11.59v3.21H32.84c-4.57,0-8.27-3.7-8.27-8.27v-15.03c0-4.57,3.7-8.29,8.27-8.29h111.39Z"/>
            <path class="cls-14" d="M142.49,401.85c.67,1.58-.56,3.3-2.26,3.3l-106.45,.08v-25.32l106.45,.08c.62,0,1.18,.23,1.6,.6,.74,.62,1.09,1.69,.67,2.7-.88,2.11-.85,5.04-.85,8.29v1.98c0,3.25-.03,6.18,.85,8.29Z"/>
            <path class="cls-10" d="M141.83,380.59c-2.04,.11-96.11,4.97-102.56,14.12-1.75,2.48-3.73,3.86-5.49,4.14v-18.93l106.45,.08c.62,0,1.18,.23,1.6,.6Z"/>
          </g>
          <path class="cls-41" d="M39.27,408.36h-9.36c-2.95,0-5.34-2.39-5.34-5.34v-20.9c0-2.95,2.39-5.34,5.34-5.34h9.36v31.59Z"/>
          <path class="cls-10" d="M142.49,401.85c.67,1.58-.56,3.3-2.26,3.3l-21.25,.02c16.88-1.92,15.83-15.79,15.83-15.79,.19-.67-13.34-8.8-13.11-9.4l18.53,.02c.62,0,1.18,.23,1.6,.6,.74,.62,1.09,1.69,.67,2.7-.88,2.11-.85,5.04-.85,8.29v1.98c0,3.25-.03,6.18,.85,8.29Z"/>
        </g>
        <g>
          <rect class="cls-10" x="39.45" y="390.72" width="102.19" height="2.28"/>
          <rect class="cls-10" x="39.45" y="385.58" width="102.19" height="2.28"/>
          <rect class="cls-10" x="39.45" y="397.26" width="102.19" height="2.28"/>
        </g>
        <polygon class="cls-41" points="130.46 402.48 124.72 396.76 118.98 402.48 118.98 386.72 130.46 386.72 130.46 402.48"/>
      </g>
    </g>
    <g>
      <path class="cls-38" d="M683.63,422.08v2.31c0,7.06-5.73,12.78-12.79,12.78H16.8c-5.95,0-10.95-4.06-12.38-9.55,0-.01,0-.02,0-.03-.26-1.03-.4-2.1-.4-3.2v-2.31c0-7.06,5.72-12.78,12.79-12.78H670.84c7.06,0,12.79,5.72,12.79,12.78Z"/>
      <path class="cls-4" d="M683.63,422.08v2.31c0,7.06-5.73,12.78-12.79,12.78H16.8c-5.95,0-10.95-4.06-12.38-9.55,0-.01,0-.02,0-.03-.27-2.05-.4-3.2-.4-3.2,366.75,12.78,666.83-15.09,666.83-15.09,7.06,0,12.79,5.72,12.79,12.78Z"/>
    </g>
    <g>
      <path class="cls-13" d="M667.32,71.68c0-.08,.01-.16,.01-.24s-.01-.16-.01-.23c1.2-.55,2.4-1.19,3.59-1.96,1.27-.87,2.56-1.88,3.76-3.04l-.26-1.02c-.25-1.15-.7-2.27-1.1-3.38-.23-.54-.5-1.07-.76-1.6-.24-.55-.53-1.06-.85-1.56l-.54-.89c-1.63,.01-3.29,.22-4.8,.5-1.36,.28-2.68,.69-3.91,1.15l-.33-.33c.46-1.24,.87-2.55,1.15-3.91,.29-1.51,.5-3.16,.51-4.8l-.9-.54c-.5-.32-1.02-.61-1.56-.85-.53-.26-1.06-.53-1.61-.76-1.11-.41-2.22-.85-3.37-1.1l-1.02-.26c-1.16,1.2-2.16,2.48-3.04,3.76-.77,1.18-1.41,2.38-1.96,3.59-.07,0-.16-.02-.23-.02-.08,0-.16,.02-.24,.02-.54-1.21-1.19-2.41-1.96-3.59-.86-1.28-1.88-2.56-3.03-3.76l-1.02,.26c-1.17,.25-2.27,.7-3.38,1.1-.54,.23-1.07,.5-1.61,.76-.54,.24-1.05,.53-1.56,.85l-.9,.54c.02,1.63,.23,3.29,.51,4.8,.28,1.36,.69,2.67,1.16,3.91-.11,.11-.23,.22-.33,.33-1.24-.47-2.55-.87-3.91-1.15-1.51-.28-3.17-.49-4.8-.5l-.55,.89c-.31,.5-.6,1.01-.85,1.56-.25,.53-.52,1.06-.75,1.6-.42,1.11-.85,2.23-1.1,3.38l-.26,1.02c1.2,1.15,2.48,2.16,3.76,3.04,1.18,.77,2.38,1.4,3.58,1.96,0,.07-.01,.15-.01,.23s.01,.16,.01,.24c-1.2,.54-2.4,1.19-3.58,1.96-1.28,.86-2.56,1.88-3.76,3.03l.26,1.02c.25,1.15,.69,2.27,1.1,3.38,.23,.54,.5,1.07,.75,1.61s.54,1.05,.85,1.55l.55,.9c1.62,0,3.29-.22,4.8-.5,1.36-.28,2.67-.69,3.91-1.15,.1,.11,.22,.23,.33,.33-.47,1.24-.88,2.55-1.16,3.91-.28,1.51-.49,3.17-.51,4.8l.9,.55c.51,.31,1.02,.6,1.56,.84,.54,.26,1.07,.53,1.61,.76,1.11,.42,2.22,.85,3.38,1.1l1.02,.26c1.15-1.2,2.16-2.48,3.03-3.76,.77-1.18,1.42-2.38,1.96-3.59,.08,0,.16,.02,.24,.02,.07,0,.16,0,.23-.02,.55,1.21,1.19,2.41,1.96,3.59,.88,1.28,1.88,2.56,3.04,3.76l1.02-.26c1.16-.25,2.26-.69,3.37-1.1,.55-.23,1.08-.5,1.61-.76,.54-.24,1.06-.53,1.56-.84l.9-.55c-.01-1.62-.22-3.29-.51-4.8-.27-1.36-.69-2.68-1.15-3.91,.11-.1,.22-.22,.33-.33,1.23,.47,2.55,.87,3.91,1.15,1.51,.28,3.16,.49,4.8,.5l.54-.9c.32-.5,.61-1.01,.85-1.55,.26-.54,.53-1.07,.76-1.61,.41-1.11,.85-2.23,1.1-3.38l.26-1.02c-1.2-1.15-2.49-2.16-3.76-3.03-1.19-.77-2.39-1.42-3.59-1.96Zm-17.24,8.01c-4.56,0-8.25-3.7-8.25-8.25s3.7-8.25,8.25-8.25,8.25,3.69,8.25,8.25c0,4.56-3.69,8.25-8.25,8.25Z"/>
      <polyline class="cls-34" points="626.42 84.17 570.73 84.17 570.73 139.02 586.19 139.02"/>
      <g>
        <rect class="cls-14" x="587.52" y="168.37" width="30.61" height="5.47"/>
        <rect class="cls-14" x="587.52" y="178.49" width="47.07" height="5.47"/>
        <rect class="cls-14" x="587.52" y="188.62" width="16.03" height="5.47"/>
        <rect class="cls-13" x="610.09" y="188.62" width="16.03" height="5.47"/>
        <rect class="cls-13" x="631.86" y="188.62" width="23.02" height="5.47"/>
        <rect class="cls-13" x="640.9" y="178.49" width="13.98" height="5.47"/>
        <rect class="cls-13" x="624.27" y="168.37" width="30.61" height="5.47"/>
      </g>
      <rect class="cls-14" x="665.07" y="132.94" width="1.02" height="60.98"/>
    </g>
    <g>
      <rect class="cls-14" x="587.99" y="135.18" width="31.48" height="5.63"/>
      <rect class="cls-14" x="587.99" y="145.59" width="48.4" height="5.63"/>
      <rect class="cls-14" x="587.99" y="156" width="16.48" height="5.63"/>
      <rect class="cls-13" x="611.21" y="156" width="16.48" height="5.63"/>
      <rect class="cls-13" x="633.59" y="156" width="23.67" height="5.63"/>
      <rect class="cls-13" x="642.89" y="145.59" width="14.38" height="5.63"/>
      <rect class="cls-13" x="625.78" y="135.18" width="31.48" height="5.63"/>
    </g>
    <g>
      <g>
        <rect class="cls-48" x="457.89" y="30.32" width="90.59" height="178.02"/>
        <rect class="cls-14" x="468.21" y="68.18" width="68.02" height="7.22"/>
        <rect class="cls-14" x="468.21" y="84.17" width="45.02" height="7.22"/>
        <rect class="cls-13" x="519.91" y="84.17" width="16.31" height="7.22"/>
        <rect class="cls-13" x="494.08" y="100.17" width="42.15" height="7.22"/>
        <rect class="cls-14" x="468.21" y="100.17" width="19.74" height="7.22"/>
        <rect class="cls-14" x="468.21" y="116.17" width="35.95" height="7.22"/>
        <rect class="cls-13" x="509.7" y="116.17" width="26.53" height="7.22"/>
        <rect class="cls-13" x="487.95" y="132.16" width="48.28" height="7.22"/>
        <rect class="cls-14" x="468.21" y="132.16" width="14.59" height="7.22"/>
        <rect class="cls-14" x="468.21" y="148.16" width="29.19" height="7.22"/>
        <rect class="cls-13" x="502.22" y="148.16" width="34.01" height="7.22"/>
        <g>
          <path class="cls-13" d="M534.22,190.79v2.03l-7.45,2.83v-1.95l5.21-1.89-5.21-1.91v-1.94l7.45,2.83Z"/>
          <path class="cls-13" d="M513.06,187.96v1.94l-5.21,1.91,5.21,1.89v1.95l-7.44-2.83v-2.03l7.44-2.83Z"/>
          <path class="cls-13" d="M521.85,182.48h2.33l-5.53,15.78h-2.33l5.53-15.78Z"/>
        </g>
        <g>
          <path class="cls-13" d="M500.04,51.86v2.67l-9.76,3.71v-2.56l6.83-2.48-6.83-2.5v-2.54l9.76,3.71Z"/>
          <path class="cls-13" d="M482.1,48.15v2.54l-6.83,2.5,6.83,2.48v2.56l-9.76-3.71v-2.67l9.76-3.71Z"/>
        </g>
      </g>
      <text class="cls-8" transform="translate(458.48 15.81)"><tspan x="0" y="0">HTM</tspan><tspan class="cls-37" x="39.91" y="0">L</tspan></text>
    </g>
    <g>
      <g>
        <path class="cls-50" d="M38.7,212.69c-1.88-1.84-4.05-3.33-6.41-4.42-.04-.02-.08-.04-.13-.06-3.32-1.5-6.98-2.22-10.68-2.01-2.53,.13-5.08,.7-7.54,1.74-.15,.07-.31,.13-.46,.2-4.41,1.97-7.89,5.17-10.21,9.03-3.7,6.15-4.45,13.96-1.3,21.01,5.11,11.45,18.59,16.62,30.04,11.51,10.5-4.68,15.71-16.4,12.58-27.14-.28-.98-.64-1.95-1.07-2.9-1.2-2.68-2.85-5.02-4.83-6.95Zm-9.52,30.64c-7.95,3.55-17.3-.04-20.84-7.98-2.11-4.73-1.69-9.95,.66-14.15,.02-.03,.03-.06,.05-.1,1.6-2.82,4.09-5.18,7.27-6.6,.6-.27,1.2-.49,1.81-.68,.06-.02,.13-.04,.19-.06,3.16-.92,6.43-.81,9.41,.19,.01,0,.02,0,.04,0,2.55,.86,4.88,2.36,6.72,4.41,1.07,1.19,1.98,2.57,2.67,4.12,.43,.96,.75,1.94,.97,2.92,1.64,7.19-1.97,14.8-8.96,17.92Z"/>
        <path class="cls-13" d="M32.29,208.27c2.36,1.08,4.53,2.57,6.41,4.42,1.98,1.94,3.63,4.28,4.83,6.96,.43,.95,.78,1.92,1.07,2.9l-6.45,2.86c-.22-.99-.55-1.96-.97-2.92-.69-1.54-1.6-2.92-2.67-4.12-1.84-2.05-4.17-3.55-6.72-4.41h-.04s4.42-5.74,4.42-5.74"/>
        <line class="cls-29" x1="32.29" y1="208.27" x2="27.77" y2="213.96"/>
        <path class="cls-47" d="M27.77,213.96h-.04c-2.98-1.01-6.25-1.12-9.41-.2-.06,.02-.13,.04-.19,.06l-4.19-5.88c2.46-1.03,5.01-1.6,7.54-1.74,3.7-.2,7.36,.51,10.68,2.01"/>
      </g>
      <g>
        <line class="cls-22" x1="24.56" y1="251.66" x2="24.56" y2="253.66"/>
        <line class="cls-18" x1="24.56" y1="257.49" x2="24.56" y2="286.19"/>
        <polyline class="cls-22" points="24.56 288.11 24.56 290.11 26.56 290.11"/>
        <line class="cls-16" x1="30.68" y1="290.11" x2="86.24" y2="290.11"/>
        <polyline class="cls-22" points="88.3 290.11 90.3 290.11 90.3 288.11"/>
        <line class="cls-25" x1="90.3" y1="284.21" x2="90.3" y2="255"/>
        <line class="cls-22" x1="90.3" y1="253.05" x2="90.3" y2="251.05"/>
      </g>
      <g>
        <rect class="cls-48" x="66.31" y="19.24" width="192.85" height="229.92"/>
        <rect class="cls-50" x="66.31" y="8.04" width="192.85" height="29.18"/>
        <g>
          <path class="cls-13" d="M236.84,233.35v1.89l-6.93,2.64v-1.82l4.85-1.76-4.85-1.78v-1.81l6.93,2.64Z"/>
          <path class="cls-13" d="M217.12,230.71v1.81l-4.85,1.78,4.85,1.76v1.82l-6.93-2.64v-1.89l6.93-2.64Z"/>
          <text class="cls-3" transform="translate(220.69 238.74)"><tspan x="0" y="0">/</tspan></text>
        </g>
        <g>
          <path class="cls-13" d="M112,55.83v2.36l-8.65,3.29v-2.27l6.05-2.2-6.05-2.22v-2.25l8.65,3.29Z"/>
          <path class="cls-13" d="M96.1,52.54v2.25l-6.05,2.22,6.05,2.2v2.27l-8.65-3.29v-2.36l8.65-3.29Z"/>
        </g>
        <text class="cls-11" transform="translate(78.01 28.82)"><tspan x="0" y="0">WEB DEVELOPING</tspan></text>
        <g>
          <g>
            <rect class="cls-51" x="99.65" y="75.5" width="56.69" height="10.38"/>
            <rect class="cls-13" x="164.32" y="75.5" width="28.34" height="10.38"/>
            <rect class="cls-14" x="199.19" y="75.5" width="39.04" height="10.38"/>
            <rect class="cls-51" x="99.65" y="94.03" width="26.46" height="10.38"/>
            <rect class="cls-13" x="133.3" y="94.03" width="45.19" height="10.38"/>
            <rect class="cls-14" x="185.86" y="94.03" width="52.37" height="10.38"/>
            <rect class="cls-51" x="99.65" y="112.57" width="34.83" height="10.38"/>
            <rect class="cls-13" x="140.14" y="112.57" width="65.51" height="10.38"/>
            <rect class="cls-14" x="212.67" y="112.57" width="25.56" height="10.38"/>
            <rect class="cls-51" x="99.65" y="131.1" width="43.91" height="10.38"/>
            <rect class="cls-13" x="150.04" y="131.1" width="42.62" height="10.38"/>
            <rect class="cls-14" x="199.19" y="131.1" width="39.04" height="10.38"/>
            <rect class="cls-51" x="99.65" y="149.64" width="19.26" height="10.38"/>
            <rect class="cls-13" x="125.38" y="149.64" width="38.15" height="10.38"/>
            <rect class="cls-14" x="169.48" y="149.64" width="68.75" height="10.38"/>
            <rect class="cls-51" x="99.65" y="168.17" width="55.07" height="10.38"/>
            <rect class="cls-13" x="161.56" y="168.17" width="16.93" height="10.38"/>
            <rect class="cls-14" x="185.86" y="168.17" width="52.37" height="10.38"/>
            <rect class="cls-51" x="99.65" y="186.7" width="71.71" height="10.38"/>
            <rect class="cls-13" x="177.4" y="186.7" width="29.34" height="10.38"/>
            <rect class="cls-14" x="212.67" y="186.7" width="25.56" height="10.38"/>
            <rect class="cls-51" x="99.65" y="205.24" width="21.96" height="10.38"/>
            <rect class="cls-13" x="127.99" y="205.24" width="26.73" height="10.38"/>
            <rect class="cls-14" x="161.56" y="205.24" width="76.67" height="10.38"/>
          </g>
          <rect class="cls-14" x="245.81" y="75.5" width="2.11" height="140.12"/>
          <circle class="cls-14" cx="81.82" cy="80.69" r="5.19"/>
          <circle class="cls-14" cx="81.82" cy="99.22" r="5.19"/>
          <circle class="cls-14" cx="81.82" cy="117.76" r="5.19"/>
          <circle class="cls-14" cx="81.82" cy="136.29" r="5.19"/>
          <circle class="cls-14" cx="81.82" cy="154.83" r="5.19"/>
          <circle class="cls-14" cx="81.82" cy="173.36" r="5.19"/>
          <circle class="cls-14" cx="81.82" cy="191.89" r="5.19"/>
          <circle class="cls-14" cx="81.82" cy="210.43" r="5.19"/>
        </g>
        <path class="cls-47" d="M250.57,24.24c0,2.92-2.37,5.29-5.29,5.29s-5.29-2.37-5.29-5.29,2.37-5.29,5.29-5.29,5.29,2.37,5.29,5.29Z"/>
      </g>
      <path class="cls-14" d="M237.48,24.14c0,2.95-2.39,5.33-5.33,5.33s-5.33-2.39-5.33-5.33,2.39-5.33,5.33-5.33c2.95,0,5.33,2.39,5.33,5.33Z"/>
    </g>
    <g>
      <rect class="cls-38" x="284.82" y="46.28" width="18.68" height="5.23"/>
      <rect class="cls-50" x="284.82" y="36.96" width="57.15" height="5.23"/>
      <g>
        <line class="cls-22" x1="317.84" y1="52.51" x2="317.84" y2="54.51"/>
        <line class="cls-27" x1="317.84" y1="57.88" x2="317.84" y2="69.7"/>
        <polyline class="cls-22" points="317.84 71.39 317.84 73.39 319.84 73.39"/>
        <line class="cls-26" x1="323.65" y1="73.39" x2="382.69" y2="73.39"/>
        <polyline class="cls-22" points="384.6 73.39 386.6 73.39 386.6 71.39"/>
        <line class="cls-31" x1="386.6" y1="67.33" x2="386.6" y2="61.25"/>
        <line class="cls-22" x1="386.6" y1="59.22" x2="386.6" y2="57.22"/>
      </g>
      <text class="cls-8" transform="translate(284.82 23.14)"><tspan x="0" y="0">CSS</tspan></text>
      <g>
        <path class="cls-50" d="M401.75,35.9c-.19-.68-.44-1.35-.73-2.01-.83-1.86-1.98-3.48-3.35-4.83-1.3-1.28-2.82-2.31-4.45-3.06-.03-.02-.06-.04-.09-.04-2.3-1.05-4.84-1.54-7.41-1.4-1.76,.1-3.52,.49-5.23,1.21-.1,.05-.21,.09-.32,.14-3.06,1.37-5.47,3.59-7.08,6.26-2,3.32-2.75,7.32-1.97,11.23,.22,1.13,.58,2.25,1.06,3.34,3.55,7.95,12.9,11.53,20.84,7.98,4.85-2.16,8.08-6.48,9.05-11.33,.49-2.43,.41-5-.32-7.5Zm-10.69,14.42c-5.52,2.46-12-.03-14.46-5.54-.2-.45-.37-.91-.51-1.37-.85-2.89-.44-5.93,.96-8.43,0-.02,.02-.05,.04-.07,1.11-1.96,2.83-3.59,5.04-4.58,.42-.18,.83-.34,1.26-.46,.04-.02,.08-.04,.13-.04,2.19-.64,4.46-.56,6.53,.12,0,0,.01,0,.02,0,1.77,.6,3.39,1.64,4.66,3.06,.75,.82,1.37,1.78,1.85,2.86,.3,.67,.52,1.35,.68,2.03,.42,1.86,.34,3.75-.18,5.51-.87,2.97-2.99,5.55-6.04,6.91Z"/>
        <path class="cls-47" d="M402.07,43.4h-4.97c.52-1.76,.6-3.66,.18-5.51-.16-.68-.38-1.36-.68-2.03-.48-1.07-1.1-2.03-1.85-2.86-1.28-1.42-2.89-2.46-4.66-3.06,0,0-.01,0-.02,0-2.07-.69-4.34-.77-6.53-.12-.05,0-.09,.02-.13,.04-.43,.12-.85,.28-1.26,.46-2.21,.99-3.93,2.62-5.04,4.58-.01,.02-.03,.05-.04,.07-1.41,2.5-1.82,5.55-.96,8.43h-4.97c-.78-3.91-.03-7.92,1.97-11.23,1.6-2.68,4.02-4.9,7.08-6.26,.1-.05,.21-.09,.32-.14,1.71-.71,3.48-1.11,5.23-1.21,2.57-.14,5.11,.35,7.41,1.4,.03,0,.06,.02,.09,.04,1.63,.75,3.14,1.78,4.45,3.06,1.37,1.35,2.52,2.97,3.35,4.83,.29,.66,.54,1.33,.73,2.01,.73,2.5,.81,5.07,.32,7.5Z"/>
      </g>
      <rect class="cls-50" x="307.25" y="46.28" width="34.73" height="5.23"/>
    </g>
    <g>
      <text class="cls-12" transform="translate(14.44 30.32)"><tspan x="0" y="0">{ }</tspan></text>
      <g>
        <rect class="cls-14" x="14.29" y="59.89" width="20.54" height="9.8"/>
        <rect class="cls-14" x="14.29" y="77.02" width="20.54" height="9.8"/>
        <rect class="cls-13" x="14.29" y="94.14" width="20.54" height="9.8"/>
        <rect class="cls-13" x="14.29" y="111.27" width="20.54" height="9.8"/>
        <rect class="cls-13" x="14.29" y="128.39" width="20.54" height="9.8"/>
        <rect class="cls-13" x="14.29" y="145.52" width="20.54" height="9.8"/>
        <rect class="cls-13" x="14.29" y="162.64" width="20.54" height="9.8"/>
      </g>
    </g>
    <g>
      <path class="cls-39" d="M615.27,252.63c0-.07,0-.13,0-.2s0-.13,0-.2c1.02-.47,2.06-1.01,3.07-1.67,1.09-.75,2.19-1.61,3.21-2.6l-.22-.87c-.21-.99-.6-1.94-.94-2.89-.2-.46-.43-.92-.65-1.37-.21-.47-.45-.91-.73-1.33l-.46-.77c-1.4,0-2.81,.19-4.1,.43-1.17,.24-2.3,.59-3.35,.99l-.28-.29c.39-1.06,.75-2.18,.98-3.35,.25-1.29,.43-2.71,.44-4.1l-.77-.46c-.43-.28-.87-.52-1.34-.73-.45-.22-.91-.45-1.38-.65-.95-.35-1.9-.73-2.88-.94l-.87-.22c-.99,1.02-1.85,2.12-2.6,3.21-.66,1.01-1.2,2.04-1.67,3.07-.06,0-.13-.02-.2-.02-.07,0-.13,.02-.21,.02-.46-1.03-1.02-2.07-1.67-3.07-.74-1.1-1.61-2.19-2.59-3.21l-.87,.22c-1,.21-1.94,.6-2.89,.94-.46,.2-.92,.43-1.38,.65-.46,.2-.9,.45-1.34,.73l-.77,.46c.02,1.4,.2,2.81,.44,4.1,.24,1.17,.59,2.29,.99,3.35-.1,.1-.2,.19-.28,.29-1.06-.4-2.18-.75-3.35-.99-1.29-.24-2.71-.42-4.1-.43l-.47,.77c-.27,.43-.52,.86-.73,1.33-.21,.45-.45,.91-.64,1.37-.36,.95-.73,1.9-.94,2.89l-.22,.87c1.02,.99,2.12,1.85,3.21,2.6,1.01,.66,2.04,1.2,3.06,1.67,0,.06,0,.12,0,.2s0,.13,0,.2c-1.02,.46-2.06,1.02-3.06,1.67-1.09,.74-2.19,1.61-3.21,2.59l.22,.87c.21,.99,.59,1.94,.94,2.89,.2,.46,.43,.92,.64,1.38,.21,.46,.46,.9,.73,1.33l.47,.77c1.39,0,2.81-.19,4.1-.43,1.17-.24,2.29-.59,3.35-.99,.09,.1,.19,.2,.28,.29-.4,1.06-.75,2.18-.99,3.35-.24,1.29-.42,2.71-.44,4.1l.77,.47c.44,.27,.87,.52,1.34,.72,.46,.22,.92,.45,1.38,.65,.95,.36,1.9,.73,2.89,.94l.87,.22c.98-1.02,1.85-2.12,2.59-3.21,.66-1.01,1.21-2.04,1.67-3.07,.07,0,.13,.02,.21,.02,.06,0,.13,0,.2-.02,.47,1.03,1.02,2.07,1.67,3.07,.75,1.1,1.61,2.19,2.6,3.21l.87-.22c.99-.21,1.93-.59,2.88-.94,.47-.2,.93-.43,1.38-.65,.46-.2,.91-.45,1.34-.72l.77-.47c0-1.39-.19-2.81-.44-4.1-.23-1.17-.59-2.29-.98-3.35,.1-.09,.19-.19,.28-.29,1.05,.4,2.18,.75,3.35,.99,1.29,.24,2.71,.42,4.1,.43l.46-.77c.28-.43,.53-.86,.73-1.33,.22-.46,.45-.92,.65-1.38,.35-.95,.73-1.9,.94-2.89l.22-.87c-1.02-.98-2.13-1.85-3.21-2.59-1.01-.66-2.05-1.21-3.07-1.67Zm-14.75,6.85c-3.9,0-7.06-3.16-7.06-7.06s3.16-7.06,7.06-7.06,7.06,3.16,7.06,7.06-3.16,7.06-7.06,7.06Z"/>
      <g>
        <g>
          <rect class="cls-47" x="541.1" y="226.43" width="9.32" height="41.97"/>
          <rect class="cls-50" x="527.35" y="244.92" width="9.99" height="23.48"/>
          <rect class="cls-43" x="513.52" y="252.43" width="9.99" height="15.96"/>
        </g>
        <g>
          <line class="cls-22" x1="511.75" y1="261.71" x2="509.75" y2="261.71"/>
          <line class="cls-33" x1="504.68" y1="261.71" x2="497.08" y2="261.71"/>
          <polyline class="cls-22" points="494.54 261.71 492.54 261.71 492.54 263.71"/>
          <line class="cls-23" x1="492.54" y1="267.45" x2="492.54" y2="295.5"/>
          <polyline class="cls-22" points="492.54 297.37 492.54 299.37 494.54 299.37"/>
          <line class="cls-30" x1="497.94" y1="299.37" x2="509.82" y2="299.37"/>
          <line class="cls-22" x1="511.52" y1="299.37" x2="513.52" y2="299.37"/>
        </g>
        <g>
          <rect class="cls-14" x="516.68" y="297.51" width="26.43" height="4.72"/>
          <rect class="cls-14" x="516.68" y="306.25" width="18.28" height="4.72"/>
          <rect class="cls-14" x="516.68" y="314.99" width="23.14" height="4.72"/>
          <rect class="cls-13" x="544.61" y="314.99" width="5.4" height="4.72"/>
          <rect class="cls-13" x="554.96" y="314.99" width="19.87" height="4.72"/>
          <rect class="cls-13" x="540.82" y="306.25" width="34.01" height="4.72"/>
          <rect class="cls-13" x="548.41" y="297.51" width="26.43" height="4.72"/>
        </g>
      </g>
      <g>
        <rect class="cls-47" x="648.06" y="249.87" width="17.41" height="8.31"/>
        <rect class="cls-47" x="648.06" y="264.39" width="17.41" height="8.31"/>
        <rect class="cls-47" x="648.06" y="278.91" width="17.41" height="8.31"/>
        <rect class="cls-47" x="648.06" y="293.43" width="17.41" height="8.31"/>
        <rect class="cls-14" x="648.06" y="307.95" width="17.41" height="8.31"/>
        <rect class="cls-14" x="648.06" y="322.46" width="17.41" height="8.31"/>
        <rect class="cls-14" x="648.06" y="336.98" width="17.41" height="8.31"/>
      </g>
    </g>
    <g>
      <g>
        <path class="cls-42" d="M589.54,369.11c-6.51,.49-11.96-1.06-16.51-3.88-18.37-11.37-22.2-43.43-22.47-45.84,.16,.74,1.97,4.66,21.07,17.51,1.59,1.07,3.04,2.16,4.37,3.26,0,0,.02,.02,.07,.05,16.64,13.78,13.47,28.9,13.47,28.9Z"/>
        <path class="cls-15" d="M550.56,319.25s17.15,42.09,36.18,46.52"/>
        <path class="cls-1" d="M589.54,369.11c-6.51,.49-11.96-1.06-16.51-3.88,3.66-8.65,2.97-25.07,2.97-25.07,0,0,.02,.02,.07,.05,16.64,13.78,13.47,28.9,13.47,28.9Z"/>
      </g>
      <g>
        <path class="cls-42" d="M638.31,321.73c-.07,.45-.33,2-.84,4.29h0c-2.71,12.14-12.49,44.8-38.81,41.53,0,0-.44-2.8,.44-6.99,1.3-6.16,5.49-15.34,18.22-23.04,18.89-11.43,20.8-15.09,20.99-15.79Z"/>
        <path class="cls-15" d="M637.46,324.32s-13.51,35-36.94,42.13"/>
        <path class="cls-1" d="M637.46,326.02h0c-2.71,12.14-12.49,44.8-38.81,41.53,0,0-.44-2.8,.44-6.99h.03c21.9,1.17,38.34-34.54,38.34-34.54Z"/>
      </g>
      <g>
        <path class="cls-52" d="M597.24,368.72c-.65,1.13-10.26-2.86-14.59-14.42h0c-2.6-6.94-3.29-16.61,1-29.54,11.29-33.94,6.64-40.34,6.5-40.52,.23,.11,10.03,4.98,16.36,16.83,0,0,0,.02,.03,.05,6.96,13.07,9.67,34.61-9.29,67.6Z"/>
        <path class="cls-24" d="M590.14,284.25s14.72,18.57,9.11,53.89c-5.6,35.32-2.01,30.58-2.01,30.58"/>
        <path class="cls-7" d="M597.24,368.72c-.65,1.13-10.26-2.86-14.59-14.42,24.23,6.88,23.86-53.22,23.86-53.22,0,0,0,.02,.03,.05,6.96,13.07,9.67,34.61-9.29,67.6Z"/>
      </g>
      <path class="cls-42" d="M550.55,319.25s0,.04,.01,.12c-.02-.08-.01-.12-.01-.12Z"/>
      <path class="cls-13" d="M615.86,368.22v27.13c0,7.94-6.43,14.37-14.37,14.37h-12.76c-5.2,0-9.75-2.76-12.27-6.89h0c-1.33-2.18-2.09-4.74-2.09-7.48v-27.13h41.5Z"/>
      <path class="cls-13" d="M617.37,364.7h-44.51c-.59,0-1.06,.47-1.06,1.06v1.4c0,.58,.47,1.06,1.06,1.06h44.51c.59,0,1.06-.47,1.06-1.06v-1.4c0-.58-.47-1.06-1.06-1.06Z"/>
      <path class="cls-45" d="M615.86,368.22v27.13c0,7.94-6.43,14.37-14.37,14.37h-12.76c-5.2,0-9.75-2.76-12.27-6.89,30.39,9.55,36.99-12.8,35.82-21.67-1.17-8.86-12.12-12.94-12.12-12.94h15.7Z"/>
    </g>
  </g>
</svg>