<?xml version="1.0" encoding="UTF-8"?>
<svg id="Layer_1" data-name="Layer 1" xmlns="http://www.w3.org/2000/svg" viewBox="0 0 431.54 422.06">
  <defs>
    <style>
      .cls-1 {
        fill: #fff;
      }

      .cls-2 {
        fill: #5171b7;
      }

      .cls-3 {
        fill: #dbdbdb;
      }

      .cls-4 {
        fill: #37474f;
      }

      .cls-5 {
        fill: #72bf44;
      }

      .cls-6 {
        fill: #455a64;
      }

      .cls-7 {
        fill: #a6a6a6;
      }

      .cls-8 {
        fill: #0076b3;
      }

      .cls-9 {
        fill: #c7c7c7;
      }

      .cls-10 {
        fill: #ff9bbc;
      }

      .cls-11, .cls-12, .cls-13, .cls-14, .cls-15 {
        isolation: isolate;
      }

      .cls-11, .cls-16 {
        opacity: .2;
      }

      .cls-12 {
        fill: #e8e613;
        opacity: .28;
      }

      .cls-17 {
        fill: #e0ddef;
      }

      .cls-18 {
        fill: #fffefd;
      }

      .cls-19 {
        fill: #ebebeb;
      }

      .cls-20 {
        fill: #636466;
      }

      .cls-21 {
        fill: #26308d;
      }

      .cls-13 {
        opacity: .1;
      }

      .cls-14 {
        fill: #656668;
        opacity: .63;
      }

      .cls-22 {
        fill: #ffc4c0;
      }

      .cls-15 {
        fill: #77c043;
        opacity: .47;
      }

      .cls-23 {
        fill: #333132;
      }

      .cls-24 {
        opacity: .17;
      }

      .cls-25 {
        fill: #263238;
      }
    </style>
  </defs>
  <g id="freepik--Plant--inject-7">
    <path class="cls-5" d="M416.96,340.94c-11,14.93-22.51,32.25-25.31,51-.01,.14,.09,.26,.22,.27,.12,.01,.23-.07,.27-.18,1.27-5.11,2.89-10.12,4.87-15,7.24-2,14.35-3.63,18.16-10.82,3.88-7.39,3.39-17,2.65-25.08-.05-.45-.64-.47-.86-.19Z"/>
    <path class="cls-25" d="M397.12,376.84c4.95-11.11,11.3-22.26,19.38-31.39,.06-.07,.14,0,.09,.08-5.29,6.51-9.31,13.59-13.23,20.8,3.65-3.7,7.65-7,11.1-10.95,.04-.02,.09-.01,.11,.03,.02,.03,.02,.06,0,.08-3.43,4.12-7.18,8.6-11.65,11.64-1.2,2.22-2.41,4.44-3.63,6.65l.92-.47s.1,.06,0,.09c-.34,.17-.67,.35-1,.5-.58,1.05-1.15,2.1-1.75,3.15-.12,.26-.45,.06-.34-.21Z"/>
    <path class="cls-25" d="M400.77,373c2.96-1.66,5.79-3.55,8.46-5.65,.07-.06,.18,0,.1,.1-2.58,2.23-5.42,4.16-8.44,5.75-.12,.07-.22-.13-.12-.2Z"/>
    <path class="cls-5" d="M390.38,389.12c0,.11,.09,.2,.2,.2,.11,0,.2-.09,.2-.2,.06-6.16,0-12.35,.1-18.54,1.58-3.19,5-5,7.32-7.51,1.7-1.87,3.17-3.92,4.4-6.12,2.84-5.26,4.57-11.05,5.1-17,.65-6.59-1.85-28.34-4.63-27.59-1.44,.39-6.11,11.17-7.34,14.73-2.01,5.87-3.48,11.92-4.39,18.06-2.25,14.48-2.07,29.37-.96,43.97Z"/>
    <path class="cls-25" d="M390.33,362.53h0c.34-7.8,2.1-15.67,3.74-23.24,1.77-8.14,3.84-15.82,8-23.08,.03-.06,.11-.08,.16-.04,.06,.03,.08,.11,.05,.16h0c-2.79,5.65-4.96,11.59-6.45,17.72,.28-.44,.62-.86,.91-1.27,.12-.16,.39,0,.27,.16-.37,.66-.81,1.28-1.31,1.85h-.05c-1.44,5.82-2.48,11.78-3.37,17.72,.07-.07,.13-.15,.2-.23s.12,0,.09,.07-.23,.4-.35,.59c-.45,3-.86,6-1.28,9,5.37-4.59,10-10,12.54-16.66,0,0,.07,0,.05,0-2.53,6.92-6.53,13.06-12.68,17.26l-.33,2.41c0,.16-.29,.12-.29,0,0-.71,0-1.43,.06-2.14-.07-.06-.08-.17-.01-.24,.01-.02,.03-.03,.05-.04Z"/>
    <path class="cls-25" d="M392.86,351.23c4.19-5.95,7.84-12.25,10.91-18.84,0-.07,.17,0,.14,.06-2.53,6.72-6.08,13.54-10.87,18.94-.06,.03-.14,0-.17-.06-.02-.03-.02-.07,0-.1Z"/>
    <path class="cls-25" d="M398.32,330.84c1.7-3,3.49-5.94,5.09-9,0-.09,.16,0,.13,.07-1.33,3.2-3,6.25-5,9.08-.07,.2-.32,.06-.22-.15Z"/>
    <path class="cls-5" d="M386.21,371.3c-.09,4.08-.57,8.15-1.44,12.14,.06,.44,.12,.87,.19,1.33,1.25-4.41,1.98-8.96,2.17-13.54,.08-.13,.08-.29,0-.42h0c.17-6.15-.28-12.3-1.36-18.35-1.91-11.32-6.08-22.19-14-30.68-.23-.2-.59-.18-.79,.06-.03,.04-.06,.08-.08,.12-3.19,8.1-2.08,17.77,.64,25.86,1.47,4.38,3.58,8.52,6.26,12.28,2.75,3.81,6.21,7.04,8.41,11.2Z"/>
    <path class="cls-25" d="M372.77,325.57c7.49,12.15,12.7,26.56,13.34,40.91,0,.25-.42,.32-.46,.06-.17-1.29-.37-2.57-.58-3.84h0c-3.1-3-6.28-6.09-8.49-9.8,0-.06,.05-.14,.1-.08,2.57,3.16,5.33,6.16,8.25,9-.53-3.17-1.17-6.3-1.92-9.37l-.59-.7c-.13-.15,.08-.37,.22-.22l.18,.2c-1.06-4.22-2.36-8.37-3.91-12.43-1.91-2.27-4-4.24-5.43-7,0-.06,.06-.11,.1-.05,1.12,1.56,2.2,3.14,3.46,4.59,.51,.58,1.06,1.12,1.58,1.69-1.72-4.41-3.77-8.68-6.13-12.78-.03-.09,.01-.19,.1-.22,.06-.02,.13,0,.18,.04Z"/>
    <path class="cls-25" d="M374.26,340.56c2.42,3.26,5.17,6.36,7.42,9.73,.07,.1-.07,.19-.15,.12-2.87-2.93-5.37-6.21-7.44-9.76-.06-.1,.1-.19,.17-.09Z"/>
    <path class="cls-25" d="M382.02,351.04l.11,.11c.07,.07,0,.18-.12,.11l-.1-.11s-.01-.09,.03-.11c.03-.02,.06-.02,.08,0Z"/>
    <path class="cls-5" d="M361.02,348.93c.88,6.78,3.61,13.19,7.89,18.53,1.77,2.09,3.95,3.8,6.41,5,2.77,1.37,5.68,2.95,8.55,4.08,1.35,3.48,2.36,7.08,3,10.75l.27-.95c-1.84-15.83-12.08-29.35-25.18-38-.3-.17-.69-.07-.86,.24-.06,.11-.09,.23-.08,.35Z"/>
    <path class="cls-25" d="M365.54,353.6c-.09-.08,0-.24,.13-.17,7.2,5.35,12.94,12.42,16.69,20.57,.1,.22-.2,.41-.32,.19-.61-1.07-1.23-2.1-1.86-3.12h0c-3-.56-5.82-2.67-8-4.67-.06-.05,0-.14,.09-.08,1.14,1.04,2.41,1.93,3.78,2.65,1.22,.62,2.53,1,3.8,1.51-1.11-1.76-2.26-3.45-3.47-5.08-3.23-1.23-6.27-2.94-9-5.06-.09-.06,0-.2,.08-.14,2.7,1.64,5.49,3.12,8.35,4.46-1.82-2.41-3.79-4.7-5.89-6.87-1-.54-2.05-1.08-3-1.65-.04-.02-.06-.07-.04-.11,.02-.04,.07-.06,.11-.04,.82,.29,1.59,.67,2.32,1.14-1.25-1.2-2.46-2.38-3.77-3.53Z"/>
    <path class="cls-25" d="M365.82,359.07c.18,.11,.34,.23,.5,.36,.05,0,0,.1-.06,.08-.18-.09-.36-.19-.53-.3-.04-.02-.05-.08-.02-.11s.08-.05,.11-.02Z"/>
    <polygon class="cls-6" points="407.62 421.56 371.72 421.56 374.62 388.88 375.26 381.67 404.08 381.67 404.72 388.88 407.62 421.56"/>
    <polygon class="cls-25" points="404.72 388.88 374.62 388.88 375.26 381.67 404.08 381.67 404.72 388.88"/>
    <rect class="cls-6" x="373.54" y="376.63" width="32.26" height="7.13"/>
  </g>
  <g id="freepik--Floor--inject-7">
    <polygon class="cls-25" points="13.21 421.56 63.85 421.32 114.49 421.23 215.77 421.06 317.05 421.23 367.69 421.32 418.33 421.56 367.69 421.81 317.05 421.9 215.77 422.06 114.49 421.9 63.85 421.81 13.21 421.56"/>
  </g>
  <rect class="cls-1" x="31.63" y="25.76" width="368.27" height="232.98"/>
  <path class="cls-25" d="M399.91,258.74l-368.28,.16h-.15v-.16l-.09-233v-.25h.24l368.28,.15h.09v.1l-.09,233Zm0,0l-.1-233,.1,.1-368.28,.15,.25-.25-.11,233-.16-.15,368.3,.15Z"/>
  <rect class="cls-25" x="31.63" y="25.76" width="368.27" height="8.97"/>
  <path class="cls-21" d="M40.28,30.24c0,1-.8,1.81-1.8,1.82-1,0-1.81-.8-1.82-1.8,0-1,.8-1.81,1.8-1.82,0,0,0,0,0,0,1,0,1.8,.8,1.81,1.8Z"/>
  <path class="cls-1" d="M47.66,30.24c0,1-.8,1.81-1.8,1.82-1,0-1.81-.8-1.82-1.8,0-1,.8-1.81,1.8-1.82,0,0,0,0,0,0,1,0,1.8,.8,1.81,1.8Z"/>
  <path class="cls-6" d="M55.03,30.24c0,1-.8,1.81-1.8,1.82-1,0-1.81-.8-1.82-1.8,0-1,.8-1.81,1.8-1.82,0,0,0,0,0,0,1,0,1.8,.8,1.81,1.8Z"/>
  <path class="cls-3" d="M68.23,131.04c8.55-.16,17.11-.24,25.66-.3l25.66-.1,25.66,.1,12.83,.11,12.83,.19-12.83,.2-12.83,.11-25.66,.09-25.66-.09c-8.55-.07-17.12-.14-25.66-.31Z"/>
  <path class="cls-3" d="M68.23,139.19c8.55-.17,17.11-.25,25.66-.31l25.66-.09,25.66,.09,12.83,.11,12.83,.2-12.83,.19-12.83,.11-25.66,.09-25.66-.09c-8.55-.06-17.12-.14-25.66-.3Z"/>
  <path class="cls-3" d="M68.23,147.33c8.55-.17,17.11-.24,25.66-.31l25.66-.09,25.66,.09,12.83,.11,12.83,.2-12.83,.2-12.83,.11-25.66,.09-25.66-.09c-8.55-.07-17.12-.15-25.66-.31Z"/>
  <path class="cls-3" d="M68.23,163.62c8.55-.17,17.11-.25,25.66-.31l25.66-.09,25.66,.09,12.83,.11,12.83,.2-12.83,.19-12.83,.11-25.66,.09-25.66-.09c-8.55-.08-17.12-.14-25.66-.3Z"/>
  <path class="cls-3" d="M68.23,171.76c8.55-.17,17.11-.24,25.66-.31l25.66-.09,25.66,.09,12.83,.11,12.83,.2-12.83,.19-12.83,.12-25.66,.09-25.66-.1c-8.55-.06-17.12-.14-25.66-.3Z"/>
  <path class="cls-3" d="M68.23,179.9c5.2-.16,10.41-.24,15.61-.3s10.42-.06,15.62-.1,10.41,0,15.62,.1l7.8,.11c2.61,.06,5.21,.1,7.81,.19-2.6,.09-5.2,.13-7.81,.2l-7.8,.11c-5.21,.06-10.41,.06-15.62,.09s-10.41,0-15.62-.09-10.41-.14-15.61-.31Z"/>
  <rect class="cls-21" x="68.23" y="196.67" width="47.22" height="12.99"/>
  <path class="cls-1" d="M74.3,205.16v-4h.39v3.68h2.3v.35l-2.69-.03Z"/>
  <path class="cls-1" d="M80.24,204.84v.35h-2.68v-4h2.63v.35h-2.23v1.43h1.94v.33h-1.94v1.54h2.28Z"/>
  <path class="cls-1" d="M82.21,201.18h.33l1.65,4h-.42l-.52-1.25h-1.78l-.51,1.25h-.43l1.68-4Zm1,2.42l-.8-2-.81,2h1.61Z"/>
  <path class="cls-1" d="M84.77,205.16v-4h1.69c.16,0,.33,.03,.47,.11,.28,.14,.5,.38,.62,.68,.05,.15,.08,.3,.08,.46,0,.14-.02,.28-.06,.41-.04,.13-.1,.25-.18,.36-.07,.11-.17,.2-.28,.27-.11,.07-.23,.12-.36,.15l1,1.54h-.44l-.94-1.47h-1.17v1.47l-.43,.02Zm.4-1.82h1.3c.11,0,.21-.02,.31-.07,.1-.05,.18-.12,.25-.21,.07-.09,.12-.19,.15-.29,.04-.11,.06-.22,.06-.34,0-.12-.02-.24-.06-.35-.04-.11-.11-.2-.18-.29-.07-.08-.16-.14-.26-.19-.1-.05-.2-.07-.31-.07h-1.26v1.81Z"/>
  <path class="cls-1" d="M88.82,201.91v3.25h-.4v-4h.35l2.63,3.31v-3.31h.37v4h-.34l-2.61-3.25Z"/>
  <path class="cls-1" d="M97.7,205.16v-3.27l-1.45,2.53h-.23l-1.45-2.53v3.27h-.39v-4h.4l1.55,2.72,1.57-2.72h.4v4h-.4Z"/>
  <path class="cls-1" d="M100.7,205.18c-.26,0-.52-.05-.76-.17-.23-.11-.43-.26-.59-.45-.17-.19-.3-.41-.39-.65-.09-.24-.13-.49-.13-.74-.01-.52,.18-1.03,.54-1.41,.16-.19,.37-.34,.59-.44,.23-.12,.48-.17,.74-.17,.26,0,.53,.06,.76,.18,.23,.11,.43,.27,.59,.46,.16,.19,.29,.41,.38,.65,.09,.23,.13,.48,.13,.73,0,.26-.05,.52-.14,.77-.1,.23-.23,.45-.39,.64-.17,.18-.37,.33-.59,.44-.23,.11-.48,.16-.74,.16Zm-1.48-2c0,.21,.04,.42,.11,.62,.07,.19,.17,.37,.3,.53,.13,.16,.29,.28,.47,.37,.18,.1,.39,.15,.6,.14,.21,0,.42-.05,.61-.14,.18-.1,.33-.23,.46-.39,.13-.16,.23-.34,.3-.53,.06-.19,.1-.4,.1-.6,0-.21-.04-.43-.11-.63-.07-.2-.17-.38-.31-.53-.13-.15-.28-.27-.46-.36-.18-.1-.38-.14-.59-.14-.21,0-.43,.05-.62,.14-.36,.2-.63,.52-.75,.91-.07,.19-.11,.4-.11,.6h0Z"/>
  <path class="cls-1" d="M103.3,205.16v-4h1.68c.17,0,.33,.03,.48,.11,.14,.07,.26,.17,.37,.28,.1,.12,.18,.25,.24,.4,.06,.15,.09,.3,.09,.46,0,.14-.02,.28-.07,.41-.04,.13-.09,.25-.17,.36-.07,.11-.17,.2-.28,.27-.11,.08-.24,.13-.37,.15l1,1.54h-.5l-.94-1.47h-1.18v1.47l-.35,.02Zm.39-1.82h1.3c.11,0,.22-.02,.32-.07,.1-.05,.18-.12,.24-.21,.07-.09,.12-.19,.16-.29,.04-.11,.06-.22,.06-.34,0-.12-.02-.24-.07-.35-.04-.11-.1-.2-.17-.29-.07-.08-.16-.14-.26-.19-.1-.05-.2-.07-.31-.07h-1.27v1.81Z"/>
  <path class="cls-1" d="M109.63,204.84v.35h-2.67v-4h2.62v.35h-2.23v1.43h1.95v.33h-1.95v1.54h2.28Z"/>
  <path class="cls-25" d="M75.77,110.36v-15c.07-.78,.75-1.36,1.53-1.3,.69,.06,1.24,.61,1.3,1.3v6.11h6.61v-6.11c-.01-.77,.6-1.4,1.37-1.41,.01,0,.02,0,.03,0,.77-.01,1.41,.61,1.42,1.38,0,.01,0,.02,0,.03v15c0,.77-.62,1.4-1.39,1.41-.01,0-.02,0-.03,0-.77,0-1.39-.61-1.4-1.38,0-.01,0-.02,0-.03v-6.11h-6.61v6.11c-.07,.78-.75,1.36-1.53,1.3-.69-.06-1.24-.61-1.3-1.3Z"/>
  <path class="cls-25" d="M91.91,110.36v-15c-.01-.77,.6-1.4,1.37-1.41,.01,0,.02,0,.03,0h8.34c.78,.07,1.36,.75,1.3,1.53-.06,.69-.61,1.24-1.3,1.3h-6.88v4.67h5.94c.78,.07,1.36,.75,1.3,1.53-.06,.69-.61,1.24-1.3,1.3h-5.94v4.69h6.91c.78,.07,1.36,.75,1.3,1.53-.06,.69-.61,1.24-1.3,1.3h-8.31c-.77,.03-1.43-.57-1.46-1.34,0-.03,0-.07,0-.1Z"/>
  <path class="cls-25" d="M116.13,107.56h-6.2l-1.25,3.28c-.21,.54-.74,.9-1.32,.9-.17,0-.33-.03-.49-.08-.73-.29-1.1-1.1-.84-1.84l5.64-15c.22-.55,.76-.9,1.35-.89,.59-.02,1.13,.34,1.35,.89l5.63,15c.26,.74-.11,1.56-.84,1.84-.15,.05-.32,.08-.48,.08-.58,0-1.1-.36-1.3-.9l-1.25-3.28Zm-1.05-2.8l-2.06-5.48-2.07,5.48h4.13Z"/>
  <path class="cls-25" d="M123.5,110.36v-15c-.01-.77,.6-1.4,1.37-1.41,.01,0,.02,0,.03,0h3c4.93,.16,8.79,4.29,8.63,9.22-.16,4.7-3.93,8.47-8.63,8.63h-3c-.77,0-1.4-.63-1.4-1.4,0-.01,0-.03,0-.04Zm2.82-1.42h1.59c3.37-.14,5.98-2.98,5.85-6.34-.13-3.18-2.67-5.72-5.85-5.85h-1.59v12.19Z"/>
  <path class="cls-25" d="M139.91,110.36v-15c0-.77,.62-1.4,1.39-1.41,0,0,0,0,.01,0,.78,0,1.42,.63,1.43,1.41v13.58h6.9c.78,.07,1.36,.75,1.3,1.53-.06,.69-.61,1.24-1.3,1.3h-8.33c-.77,0-1.4-.63-1.4-1.4,0,0,0,0,0-.01Z"/>
  <path class="cls-25" d="M154.56,95.33c0-.77,.62-1.4,1.39-1.41,0,0,.01,0,.02,0,.78,0,1.41,.63,1.42,1.41v15c0,.78-.64,1.41-1.42,1.41-.77,0-1.4-.62-1.41-1.39,0,0,0-.01,0-.02v-15Z"/>
  <path class="cls-25" d="M164.96,110.36c.07,.76-.5,1.44-1.27,1.5-.76,.07-1.44-.5-1.5-1.27,0-.08,0-.16,0-.24v-14.83c-.03-.46,.19-.9,.56-1.17,.62-.44,1.48-.31,1.93,.3l8.24,11.4v-10.5c0-.76,.61-1.37,1.37-1.38,.76,0,1.39,.62,1.41,1.38v14.8c0,.78-.63,1.4-1.41,1.41-.39-.02-.75-.21-1-.51-.05-.05-.09-.1-.13-.16l-8.2-11.26v10.52Z"/>
  <rect class="cls-25" x="178.25" y="93.02" width=".57" height="20.72"/>
  <rect class="cls-25" x="73.4" y="111.64" width="118.67" height=".25"/>
  <path class="cls-25" d="M196.44,116.84H69.03v-28.1h127.41v28.1Zm-127.16-.25h126.91v-27.6H69.28v27.6Z"/>
  <rect class="cls-1" x="68.23" y="87.98" width="1.86" height="1.86"/>
  <path class="cls-25" d="M70.21,89.96h-2.11v-2.12h2.11v2.12Zm-1.86-.25h1.61v-1.61h-1.61v1.61Z"/>
  <rect class="cls-1" x="131.81" y="87.98" width="1.86" height="1.86"/>
  <path class="cls-25" d="M133.77,89.96h-2.11v-2.12h2.11v2.12Zm-1.86-.25h1.61v-1.61h-1.61v1.61Z"/>
  <rect class="cls-1" x="68.23" y="101.9" width="1.86" height="1.86"/>
  <path class="cls-25" d="M70.21,103.84h-2.11v-2.1h2.11v2.1Zm-1.86-.25h1.61v-1.6h-1.61v1.6Z"/>
  <rect class="cls-1" x="68.23" y="115.83" width="1.86" height="1.86"/>
  <path class="cls-25" d="M70.21,117.84h-2.11v-2.11h2.11v2.11Zm-1.86-.25h1.61v-1.61h-1.61v1.61Z"/>
  <rect class="cls-1" x="131.81" y="115.83" width="1.86" height="1.86"/>
  <path class="cls-25" d="M133.77,117.84h-2.11v-2.11h2.11v2.11Zm-1.86-.25h1.61v-1.61h-1.61v1.61Z"/>
  <rect class="cls-1" x="195.39" y="87.98" width="1.86" height="1.86"/>
  <path class="cls-25" d="M197.37,89.96h-2.11v-2.12h2.11v2.12Zm-1.86-.25h1.61v-1.61h-1.61v1.61Z"/>
  <rect class="cls-1" x="195.39" y="101.9" width="1.86" height="1.86"/>
  <path class="cls-25" d="M197.37,103.84h-2.11v-2.1h2.11v2.1Zm-1.86-.25h1.61v-1.6h-1.61v1.6Z"/>
  <rect class="cls-1" x="195.39" y="115.83" width="1.86" height="1.86"/>
  <path class="cls-25" d="M197.37,117.84h-2.11v-2.11h2.11v2.11Zm-1.86-.25h1.61v-1.61h-1.61v1.61Z"/>
  <rect class="cls-8" x="229.85" y="95.92" width="125.52" height="85.61"/>
  <polygon class="cls-14" points="282.48 159.31 355.36 159.31 318.92 131.44 282.48 159.31"/>
  <polygon class="cls-21" points="254.52 159.31 314.69 159.31 284.61 141.16 254.52 159.31"/>
  <g class="cls-24">
    <polygon points="254.52 159.31 314.69 159.31 284.61 141.16 254.52 159.31"/>
  </g>
  <rect class="cls-21" x="229.84" y="159.31" width="125.52" height="22.22"/>
  <rect class="cls-15" x="229.84" y="159.31" width="125.52" height="22.22"/>
  <path class="cls-25" d="M361.2,187.36H224.01V90.09h137.19v97.27Zm-136.94-.25h136.69V90.34H224.26v96.77Z"/>
  <rect class="cls-1" x="221.89" y="87.98" width="4.48" height="4.48"/>
  <path class="cls-25" d="M226.5,92.58h-4.73v-4.74h4.73v4.74Zm-4.48-.25h4.23v-4.23h-4.23v4.23Z"/>
  <rect class="cls-1" x="290.36" y="87.98" width="4.48" height="4.48"/>
  <path class="cls-25" d="M294.97,92.58h-4.73v-4.74h4.73v4.74Zm-4.48-.25h4.28v-4.23h-4.23l-.05,4.23Z"/>
  <rect class="cls-1" x="358.83" y="87.98" width="4.48" height="4.48"/>
  <path class="cls-25" d="M363.44,92.58h-4.74v-4.74h4.74v4.74Zm-4.49-.25h4.24v-4.23h-4.24v4.23Z"/>
  <rect class="cls-1" x="221.89" y="136.49" width="4.48" height="4.48"/>
  <path class="cls-25" d="M226.5,141.09h-4.73v-4.73h4.73v4.73Zm-4.48-.25h4.23v-4.23h-4.23v4.23Z"/>
  <rect class="cls-1" x="358.83" y="136.49" width="4.48" height="4.48"/>
  <path class="cls-25" d="M363.44,141.09h-4.74v-4.73h4.74v4.73Zm-4.49-.25h4.24v-4.23h-4.24v4.23Z"/>
  <rect class="cls-1" x="221.89" y="185" width="4.48" height="4.48"/>
  <path class="cls-25" d="M226.5,189.6h-4.73v-4.76h4.73v4.76Zm-4.48-.25h4.23v-4.23h-4.23v4.23Z"/>
  <rect class="cls-1" x="290.36" y="185" width="4.48" height="4.48"/>
  <path class="cls-25" d="M294.97,189.6h-4.73v-4.76h4.73v4.76Zm-4.48-.25h4.28v-4.23h-4.23l-.05,4.23Z"/>
  <rect class="cls-1" x="358.83" y="185" width="4.48" height="4.48"/>
  <path class="cls-25" d="M363.44,189.6h-4.74v-4.76h4.74v4.76Zm-4.49-.25h4.24v-4.23h-4.24v4.23Z"/>
  <rect class="cls-21" x="229.85" y="198.86" width="32.94" height="32.94"/>
  <path class="cls-13" d="M235.15,206.72c-.34,1.68,.76,3.32,2.44,3.66s3.32-.76,3.66-2.44c.34-1.68-.76-3.32-2.44-3.66-.4-.08-.82-.08-1.22,0-1.23,.25-2.19,1.21-2.44,2.44Z"/>
  <polygon class="cls-13" points="238.98 223.25 262.78 223.25 250.88 209.9 238.98 223.25"/>
  <polygon class="cls-21" points="229.84 223.25 249.5 223.25 239.67 214.56 229.84 223.25"/>
  <g class="cls-16">
    <polygon points="229.84 223.25 249.5 223.25 239.67 214.56 229.84 223.25"/>
  </g>
  <rect class="cls-21" x="229.84" y="223.25" width="32.94" height="8.55"/>
  <rect class="cls-11" x="229.84" y="223.25" width="32.94" height="8.55"/>
  <polygon class="cls-25" points="277.63 231.92 276.01 231.92 276.01 230.3 276.26 230.3 276.26 231.67 277.63 231.67 277.63 231.92"/>
  <path class="cls-25" d="M304.85,231.92h-2.72v-.25h2.72v.25Zm-5.44,0h-2.72v-.25h2.72v.25Zm-5.45,0h-2.72v-.25h2.72v.25Zm-5.44,0h-2.75v-.25h2.72l.03,.25Zm-5.44,0h-2.72v-.25h2.72v.25Z"/>
  <polygon class="cls-25" points="309.2 231.92 307.57 231.92 307.57 231.67 308.95 231.67 308.95 230.3 309.2 230.3 309.2 231.92"/>
  <path class="cls-25" d="M309.2,227.58h-.25v-2.74h.25v2.74Zm0-5.45h-.25v-2.72h.25v2.72Zm0-5.44h-.25v-2.72h.25v2.72Zm0-5.44h-.25v-2.72h.25v2.72Zm0-5.45h-.25v-2.72h.25v2.72Z"/>
  <polygon class="cls-25" points="309.2 200.36 308.95 200.36 308.95 198.99 307.57 198.99 307.57 198.74 309.2 198.74 309.2 200.36"/>
  <path class="cls-25" d="M304.85,198.99h-2.72v-.25h2.72v.25Zm-5.44,0h-2.72v-.25h2.72v.25Zm-5.45,0h-2.72v-.25h2.72v.25Zm-5.44,0h-2.75v-.25h2.72l.03,.25Zm-5.44,0h-2.73v-.25h2.73v.25Z"/>
  <polygon class="cls-25" points="276.26 200.36 276.01 200.36 276.01 198.74 277.63 198.74 277.63 198.99 276.26 198.99 276.26 200.36"/>
  <path class="cls-25" d="M276.26,227.58h-.25v-2.74h.25v2.74Zm0-5.45h-.25v-2.72h.25v2.72Zm0-5.44h-.25v-2.72h.25v2.72Zm0-5.44h-.25v-2.72h.25v2.72Zm0-5.45h-.25v-2.72h.25v2.72Z"/>
  <rect class="cls-25" x="291.79" y="207.82" width="1.62" height="15.02"/>
  <rect class="cls-25" x="285.09" y="214.52" width="15.02" height="1.62"/>
  <rect class="cls-21" x="322.43" y="198.86" width="32.94" height="32.94"/>
  <path class="cls-13" d="M327.77,206.72c-.34,1.68,.76,3.32,2.44,3.66s3.32-.76,3.66-2.44c.34-1.68-.76-3.32-2.44-3.66-.4-.08-.82-.08-1.22,0-1.23,.25-2.19,1.21-2.44,2.44Z"/>
  <polygon class="cls-13" points="331.56 223.25 355.36 223.25 343.46 209.9 331.56 223.25"/>
  <polygon class="cls-21" points="322.42 223.25 342.08 223.25 332.25 214.56 322.42 223.25"/>
  <g class="cls-16">
    <polygon points="322.42 223.25 342.08 223.25 332.25 214.56 322.42 223.25"/>
  </g>
  <rect class="cls-21" x="322.42" y="223.25" width="32.94" height="8.55"/>
  <rect class="cls-11" x="322.42" y="223.25" width="32.94" height="8.55"/>
  <rect class="cls-19" x="58.66" y="54.88" width="7.29" height="1.17"/>
  <rect class="cls-19" x="58.66" y="60.13" width="7.29" height="1.17"/>
  <rect class="cls-19" x="58.66" y="57.54" width="7.29" height="1.17"/>
  <rect class="cls-19" x="150.39" y="57.54" width="43.5" height="2.6"/>
  <rect class="cls-19" x="210.05" y="57.54" width="43.5" height="2.6"/>
  <rect class="cls-21" x="269.72" y="57.54" width="43.5" height="2.6"/>
  <rect class="cls-19" x="329.38" y="57.54" width="43.5" height="2.6"/>
  <g id="freepik--Gears--inject-7">
    <path class="cls-7" d="M372.43,51.66c0,10.74,8.71,19.44,19.45,19.43s19.44-8.71,19.43-19.45-8.71-19.44-19.45-19.43c-10.73,.02-19.42,8.72-19.43,19.45Zm4.13,0c0-8.46,6.84-15.31,15.3-15.32,8.46,0,15.31,6.84,15.32,15.3s-6.84,15.31-15.3,15.32c0,0-.01,0-.02,0-8.45,0-15.3-6.85-15.3-15.3Zm-4.13,0c0,10.74,8.71,19.44,19.45,19.43s19.44-8.71,19.43-19.45-8.71-19.44-19.45-19.43c-10.73,.02-19.42,8.72-19.43,19.45Zm4.13,0c0-8.46,6.84-15.31,15.3-15.32,8.46,0,15.31,6.84,15.32,15.3s-6.84,15.31-15.3,15.32c0,0-.01,0-.02,0-8.45,0-15.3-6.85-15.3-15.3Zm-17.47,0c.02,18.1,14.72,32.76,32.82,32.74s32.76-14.72,32.74-32.82c-.02-18.09-14.7-32.75-32.79-32.74-18.1,0-32.77,14.67-32.77,32.77,0,.02,0,.03,0,.05Zm11.47,0c0-11.77,9.54-21.31,21.31-21.31s21.31,9.54,21.31,21.31-9.54,21.31-21.31,21.31h-.01c-11.76-.02-21.28-9.55-21.3-21.31Zm1.87,0c0,10.74,8.71,19.44,19.45,19.43s19.44-8.71,19.43-19.45-8.71-19.44-19.45-19.43c-10.73,.02-19.42,8.72-19.43,19.45Zm4.13,0c0-8.46,6.84-15.31,15.3-15.32,8.46,0,15.31,6.84,15.32,15.3s-6.84,15.31-15.3,15.32c0,0-.01,0-.02,0-8.45,0-15.3-6.85-15.3-15.3Z"/>
    <polygon class="cls-7" points="388.02 19.47 395.52 19.47 394.78 11.98 388.77 11.98 388.02 19.47"/>
    <polygon class="cls-7" points="404.63 21.86 411.13 25.61 414.22 18.75 409.02 15.74 404.63 21.86"/>
    <polygon class="cls-7" points="417.82 32.23 421.57 38.73 427.68 34.34 424.68 29.13 417.82 32.23"/>
    <polygon class="cls-7" points="424.05 47.81 424.05 55.31 431.54 54.56 431.54 48.55 424.05 47.81"/>
    <polygon class="cls-7" points="421.67 64.42 417.91 70.92 424.77 74.01 427.78 68.81 421.67 64.42"/>
    <polygon class="cls-7" points="411.29 77.61 404.79 81.36 409.19 87.47 414.39 84.47 411.29 77.61"/>
    <polygon class="cls-7" points="395.72 83.84 388.21 83.84 388.96 91.33 394.97 91.33 395.72 83.84"/>
    <polygon class="cls-7" points="379.11 81.45 372.61 77.7 369.51 84.56 374.72 87.57 379.11 81.45"/>
    <polygon class="cls-7" points="365.92 71.08 362.17 64.58 356.05 68.98 359.06 74.18 365.92 71.08"/>
    <polygon class="cls-7" points="359.68 55.51 359.68 48 352.19 48.75 352.19 54.76 359.68 55.51"/>
    <polygon class="cls-7" points="362.07 38.9 365.82 32.4 358.96 29.3 355.96 34.5 362.07 38.9"/>
    <polygon class="cls-7" points="372.44 25.71 378.94 21.95 374.55 15.84 369.34 18.85 372.44 25.71"/>
    <path class="cls-6" d="M313.5,23.05c-.28,10.53,8.04,19.3,18.57,19.58,10.53,.28,19.3-8.04,19.58-18.57,.28-10.53-8.04-19.3-18.57-19.58,0,0,0,0,0,0-10.53-.28-19.29,8.03-19.57,18.56,0,0,0,0,0,.01Zm10.17,.27c.13-4.92,4.22-8.8,9.14-8.67,4.92,.13,8.8,4.22,8.67,9.14-.13,4.92-4.22,8.8-9.14,8.67,0,0,0,0,0,0-4.92-.13-8.8-4.22-8.67-9.14h0Z"/>
    <polygon class="cls-6" points="329.39 5.18 336.72 5.37 336.45 .17 329.93 0 329.39 5.18"/>
    <polygon class="cls-6" points="343.28 8.02 348.33 13.34 351.82 9.47 347.33 4.74 343.28 8.02"/>
    <polygon class="cls-6" points="351.1 19.85 350.9 27.18 356.11 26.91 356.28 20.39 351.1 19.85"/>
    <polygon class="cls-6" points="348.26 33.74 342.94 38.79 346.8 42.28 351.54 37.79 348.26 33.74"/>
    <polygon class="cls-6" points="336.43 41.56 329.09 41.37 329.36 46.57 335.88 46.74 336.43 41.56"/>
    <polygon class="cls-6" points="322.53 38.72 317.48 33.4 314 37.26 318.49 42 322.53 38.72"/>
    <polygon class="cls-6" points="314.72 26.89 314.91 19.55 309.71 19.82 309.54 26.34 314.72 26.89"/>
    <polygon class="cls-6" points="317.56 12.99 322.88 7.94 319.01 4.46 314.28 8.95 317.56 12.99"/>
    <path class="cls-6" d="M337.64,18.84l-6.25-1.86-4.74,4.5,1.53,6.36,6.25,1.86,4.73-4.49-1.52-6.37Zm-4.79,6.55c-1.14-.03-2.04-.99-2.01-2.13s.99-2.04,2.13-2.01,2.04,.99,2.01,2.13c0,0,0,0,0,0-.01,1.14-.94,2.05-2.08,2.04-.02,0-.03,0-.05,0v-.04Z"/>
    <path class="cls-20" d="M3.96,171.04c-.28,10.53,8.04,19.3,18.57,19.58,10.53,.28,19.3-8.04,19.58-18.57,.28-10.53-8.04-19.3-18.57-19.58,0,0,0,0,0,0-10.53-.27-19.29,8.04-19.57,18.57Zm10.16,.27c.13-4.92,4.22-8.8,9.14-8.67,4.92,.13,8.8,4.22,8.67,9.14-.13,4.92-4.22,8.8-9.14,8.67,0,0-.02,0-.02,0-4.91-.14-8.78-4.23-8.65-9.14Z"/>
    <polygon class="cls-20" points="19.85 153.17 27.18 153.36 26.91 148.16 20.39 147.99 19.85 153.17"/>
    <polygon class="cls-20" points="33.74 156.01 38.79 161.33 42.28 157.46 37.79 152.73 33.74 156.01"/>
    <polygon class="cls-20" points="41.56 167.84 41.36 175.18 46.57 174.91 46.74 168.38 41.56 167.84"/>
    <polygon class="cls-20" points="38.72 181.74 33.4 186.78 37.26 190.27 42 185.78 38.72 181.74"/>
    <polygon class="cls-20" points="26.89 189.55 19.55 189.36 19.82 194.56 26.34 194.73 26.89 189.55"/>
    <polygon class="cls-20" points="12.99 186.71 7.94 181.39 4.45 185.26 8.94 189.99 12.99 186.71"/>
    <polygon class="cls-20" points="5.18 174.88 5.37 167.55 .17 167.81 0 174.34 5.18 174.88"/>
    <polygon class="cls-20" points="8.01 160.99 13.34 155.94 9.47 152.45 4.74 156.94 8.01 160.99"/>
    <path class="cls-23" d="M28.1,166.84l-6.26-1.85-4.73,4.49,1.53,6.36,6.24,1.85,4.74-4.49-1.52-6.36Zm-4.79,6.56c-1.14-.03-2.05-.98-2.02-2.12s.98-2.05,2.12-2.02c1.14,.03,2.05,.98,2.02,2.12,0,0,0,.01,0,.02-.02,1.14-.97,2.05-2.11,2.03,0,0,0,0-.01,0v-.03Z"/>
  </g>
  <g id="freepik--Code--inject-7">
    <rect class="cls-1" x="274.88" y="251.14" width="148.14" height="93.73"/>
    <path class="cls-1" d="M275.44,344.3h147v-92.6h-147v92.6Z"/>
    <path class="cls-25" d="M275.44,344.3l147-.15-.15,.15-.1-92.6,.25,.25-147-.15,.11-.1-.11,92.6Zm0,0l-.1-92.6v-.1h.1l147-.15h.25v.25l-.09,92.6v.16h-.16l-147-.16Z"/>
    <rect class="cls-25" x="275.44" y="251.7" width="147.02" height="9.93"/>
    <rect class="cls-19" x="286.38" y="283.17" width="5.73" height="2.09"/>
    <rect class="cls-19" x="296.28" y="283.17" width="65.72" height="2.09"/>
    <rect class="cls-21" x="365.52" y="283.17" width="10.88" height="2.09"/>
    <rect class="cls-7" x="378.77" y="283.17" width="18.81" height="2.09"/>
    <rect class="cls-19" x="292.11" y="288.77" width="5.73" height="2.09"/>
    <rect class="cls-7" x="301.87" y="288.77" width="43.13" height="2.09"/>
    <rect class="cls-7" x="296.28" y="305.58" width="41.2" height="2.09"/>
    <rect class="cls-21" x="301.87" y="294.38" width="28.9" height="2.09"/>
    <rect class="cls-7" x="372.8" y="299.98" width="11.02" height="2.09"/>
    <rect class="cls-7" x="333.97" y="294.38" width="46.15" height="2.09"/>
    <rect class="cls-21" x="296.28" y="311.18" width="55.09" height="2.09"/>
    <rect class="cls-21" x="377.56" y="288.77" width="29.85" height="2.09"/>
    <rect class="cls-19" x="347.7" y="288.77" width="27.49" height="2.09"/>
    <rect class="cls-19" x="382.29" y="294.38" width="18.55" height="2.09"/>
    <rect class="cls-19" x="292.11" y="294.38" width="5.73" height="2.09"/>
    <rect class="cls-7" x="286.38" y="299.98" width="5.73" height="2.09"/>
    <rect class="cls-19" x="296.28" y="299.98" width="33.86" height="2.09"/>
    <rect class="cls-19" x="339.81" y="305.58" width="36.6" height="2.09"/>
    <rect class="cls-21" x="378.77" y="305.58" width="23.29" height="2.09"/>
    <rect class="cls-21" x="333.58" y="299.98" width="36.55" height="2.09"/>
    <rect class="cls-19" x="286.38" y="305.58" width="5.73" height="2.09"/>
    <rect class="cls-19" x="286.38" y="311.18" width="5.73" height="2.09"/>
    <path class="cls-21" d="M289.92,277.66c.19,.2,.19,.51,0,.71-.2,.19-.51,.19-.71,0l-2.21-2.24v-.05h0s0-.05,0-.07h0v-.05s0,0,0,0v-.17s0,0,0,0h0v-.07h0v-.07s0,0,0,0h.05l2.21-2.24c.2-.19,.51-.19,.71,0,.19,.19,.19,.51,0,.7l-1.87,1.88,1.82,1.67Z"/>
    <path class="cls-21" d="M291.92,277.91l1.93-4.58c.07-.23,.31-.35,.54-.28,.23,.07,.35,.31,.28,.54,0,.03-.02,.05-.03,.07l-1.93,4.59c-.07,.16-.23,.26-.4,.26-.05,.01-.1,.01-.15,0-.22-.08-.34-.32-.26-.55,0-.02,.01-.03,.02-.05Z"/>
    <path class="cls-21" d="M298.44,276.07h0l-.06,.06-2.21,2.24c-.1,.09-.22,.14-.35,.14-.13,0-.26-.05-.36-.14-.19-.2-.19-.51,0-.71l1.87-1.88-1.87-1.88c-.19-.19-.19-.51,0-.7,.2-.19,.51-.19,.71,0l2.21,2.24h.06v.07h0s0,.05,0,.07v.08h0v.19h0s.02,.18,0,.22Z"/>
    <path class="cls-21" d="M283.16,256.58c0,1-.81,1.81-1.81,1.81s-1.81-.81-1.81-1.81,.81-1.81,1.81-1.81h0c1,0,1.81,.81,1.81,1.81Z"/>
    <path class="cls-1" d="M290.53,256.58c0,1-.81,1.81-1.81,1.81-1,0-1.81-.81-1.81-1.81,0-1,.81-1.81,1.81-1.81,0,0,0,0,0,0,1,0,1.8,.81,1.8,1.81Z"/>
    <path class="cls-6" d="M297.91,256.58c0,1-.81,1.81-1.81,1.81s-1.81-.81-1.81-1.81,.81-1.81,1.81-1.81h0c1,0,1.81,.81,1.81,1.81Z"/>
  </g>
  <g id="freepik--speech-bubble--inject-7">
    <path class="cls-18" d="M164.18,185.21c-1.49-2.22-2.3-4.83-2.32-7.51,0-9.51,10.44-17.22,23.31-17.22s23.31,7.71,23.31,17.22-10.43,17.22-23.31,17.22c-5.72,.09-11.33-1.57-16.08-4.76l-8,2,3.09-6.95Z"/>
    <path class="cls-25" d="M164.18,185.21c-3.02-4.27-3.26-9.92-.6-14.43,1.3-2.21,3.04-4.13,5.13-5.62,2.07-1.51,4.36-2.68,6.79-3.48,2.43-.81,4.94-1.32,7.49-1.53,2.55-.17,5.11-.05,7.63,.38,2.53,.41,5,1.17,7.32,2.27,2.34,1.09,4.48,2.56,6.32,4.37,1.88,1.81,3.28,4.06,4.09,6.54,.79,2.51,.82,5.2,.07,7.73-.77,2.49-2.15,4.76-4,6.6-1.82,1.83-3.93,3.33-6.26,4.44-4.66,2.17-9.79,3.11-14.92,2.74-5.12-.27-10.07-1.96-14.29-4.88h.19l-8.06,1.94-.24,.05,.1-.22,3.24-6.9Zm0,0l-3,7-.14-.17,8-2.15h.1l.09,.06c4.18,2.77,9.05,4.34,14.06,4.53,2.49,.13,4.98-.05,7.43-.52,2.45-.43,4.82-1.2,7.06-2.29,2.23-1.08,4.26-2.53,6-4.29,1.73-1.74,3.01-3.88,3.73-6.23,.67-2.35,.64-4.84-.1-7.17-.76-2.33-2.07-4.44-3.82-6.16-1.75-1.73-3.78-3.16-6-4.21-2.24-1.08-4.62-1.83-7.07-2.24-4.92-.87-9.98-.55-14.75,.95-4.83,1.4-9,4.47-11.77,8.66-1.32,2.13-2.02,4.6-2,7.11,.06,2.53,.81,4.99,2.18,7.12Z"/>
    <path class="cls-21" d="M177.92,182.34c.48,.48,.48,1.27,0,1.75-.23,.22-.54,.35-.86,.35-.33,0-.65-.12-.89-.35l-5.46-5.53c-.06,0-.08-.06-.1-.12-.02,0-.03,0-.05,0-.03-.05-.05-.1-.06-.15-.03-.02-.05-.05-.06-.08v-.95s0,0,0,0c.03-.06,.06-.12,.1-.18h0c.02-.05,.06-.1,.11-.13l5.46-5.54c.49-.46,1.26-.46,1.75,0,.48,.48,.48,1.27,0,1.75l-4.61,4.64,4.67,4.54Z"/>
    <path class="cls-21" d="M182.87,182.96l4.76-11.32c.23-.54,.86-.79,1.4-.56,0,0,0,0,0,0,.52,.19,.78,.77,.59,1.28-.01,.03-.03,.06-.04,.1l-4.76,11.38c-.17,.4-.57,.65-1,.64-.13,0-.27-.02-.39-.08-.53-.17-.82-.73-.65-1.26,.02-.06,.05-.13,.08-.18Z"/>
    <path class="cls-21" d="M198.99,178.4h0c-.04,.05-.09,.1-.14,.14l-5.46,5.53c-.49,.46-1.25,.46-1.74,0-.48-.48-.49-1.26-.01-1.74,0,0,0,0,.01-.01l4.6-4.64-4.6-4.64c-.48-.48-.49-1.26-.01-1.74,0,0,0,0,.01-.01,.49-.46,1.25-.46,1.74,0l5.46,5.54c.05,.04,.1,.08,.14,.13h0s.07,.12,.09,.18,0,0,0,0c.02,.06,.04,.11,.06,.17v.54h0c-.02,.06-.04,.12-.06,.18v.06c-.05,.1-.08,.2-.09,.31Z"/>
  </g>
  <polygon class="cls-9" points="111.5 368.69 45.93 421.56 49.62 421.56 125.36 368.69 111.5 368.69"/>
  <polygon class="cls-9" points="117.66 368.69 85.26 421.56 88.95 421.56 128.67 368.69 117.66 368.69"/>
  <polygon class="cls-9" points="133.55 368.69 165.95 421.56 162.26 421.56 122.54 368.69 133.55 368.69"/>
  <polygon class="cls-9" points="139.21 368.69 204.78 421.56 201.09 421.56 125.36 368.69 139.21 368.69"/>
  <polygon class="cls-6" points="248.65 349.29 248.65 333.82 158.6 330.13 111.04 203.13 2.06 203.13 40.62 349.29 132.74 375.15 138.52 375.15 248.65 349.29"/>
  <polygon class="cls-13" points="4.67 204.85 17.14 204.85 57.31 338.08 138.82 361.17 251.26 335.54 251.26 351.01 141.13 376.87 135.35 376.87 43.23 351.01 4.67 204.85"/>
  <path class="cls-22" d="M55.5,365.84c.59-2.34,37.27-58.75,40-60,.27-.1,19.27,11.49,19.27,11.49,.82,.95,34.72-8.78,34.72-8.78l3.31,41.49-62.79,3.15s-8.11,5.58-15.57,10.19h0c-3.16,2.09-6.44,3.99-9.83,5.68-3.09,1.02-9.72-.85-9.11-3.22Z"/>
  <path class="cls-1" d="M64.6,369.06c3.39-1.69,6.67-3.59,9.83-5.68h0c7.45-4.61,15.57-10.2,15.57-10.2l14-.69,19.33-36.81c-4.74,1.19-8.28,2-8.54,1.65,0,0-19-11.59-19.33-11.43-2.69,1.23-39.37,57.64-40,60s6.06,4.19,9.14,3.16Z"/>
  <path class="cls-17" d="M55.13,365.98c.63-2.4,37.49-58.79,40.26-60.06,1-.48,10.29,4.36,19.4,11.41l-23.81,36.33s-23.32,14.58-26.5,15.64-9.98-.92-9.35-3.32Z"/>
  <path class="cls-25" d="M57.91,366.65c6.42-9.31,31.4-47.43,37-57.11,.05-.08,0-.11-.06,0-6.56,9.08-31.23,47.41-37.12,57-.1,.21,.04,.3,.18,.11Z"/>
  <path class="cls-25" d="M68.88,366.99c1.44-2.08,1.94-4.68,1.39-7.15-.48-2.21-1.8-4.15-3.67-5.41-.06,0-.12,.07-.07,.11,3.41,3.17,4.32,8.21,2.24,12.38,0,.04,.02,.07,.06,.08,.02,0,.04,0,.05-.01Z"/>
  <path class="cls-25" d="M88.1,356.01c2.52-3.75,4-9,2.5-13.38-.06-.17-.3-.09-.32,.07-.43,4.44-1.33,8.82-2.69,13.07-.03,.16,.07,.31,.23,.34,.11,.02,.22-.02,.28-.1Z"/>
  <path class="cls-25" d="M85.05,358.19c2.52-3.75,4.06-9,2.5-13.39-.06-.17-.3-.08-.32,.07-.43,4.44-1.33,8.83-2.69,13.08-.03,.16,.07,.31,.23,.34,.11,.02,.22-.02,.28-.1Z"/>
  <path class="cls-25" d="M82,360.36c2.53-3.75,4.06-9,2.5-13.38-.06-.17-.3-.08-.32,.07-.43,4.44-1.33,8.82-2.69,13.07-.03,.16,.07,.31,.23,.34,.11,.02,.22-.02,.28-.1Z"/>
  <path class="cls-25" d="M78.95,362.54c2.53-3.75,4.06-9,2.5-13.38-.06-.17-.3-.09-.31,.07-.43,4.44-1.34,8.82-2.7,13.07-.03,.16,.07,.31,.23,.34,.11,.02,.22-.02,.28-.1Z"/>
  <path class="cls-25" d="M102.35,317.84c2.76-4.25-3.85-8.56-6.61-4.3s3.84,8.54,6.61,4.3Z"/>
  <path class="cls-25" d="M95.52,366.7c2.84-.88,2.87-4.31,2-6.56-1.58-3.85-4.14-7.22-7.43-9.77-.05-.04-.13-.04-.17,.01,0,.01-.02,.02-.02,.04-.28-.11-.6,.03-.71,.31-.02,.05-.03,.11-.04,.17,.11,3.91-.27,8.11,1,11.87,.78,2.2,2.68,4.76,5.37,3.93Zm-5-9.9c-.09-1.92-.1-3.84-.26-5.76,1.44,1.91,3,3.75,4.21,5.8,.61,.98,1.17,2,1.65,3.05,.71,1.64,1.44,7.42-2.92,5.11-2.43-1.28-2.57-5.91-2.69-8.16v-.04Z"/>
  <path class="cls-25" d="M94.82,340.05c-2.66,3-3.94,7-5.55,10.54-.11,.29,.04,.6,.33,.71,.06,.02,.11,.03,.17,.03,0,.07,.05,.12,.12,.12,.01,0,.02,0,.03,0,4.02-1.07,7.69-3.18,10.64-6.12,1.69-1.74,3-4.91,.72-6.82s-4.9-.19-6.46,1.54Zm3.65-.87c4.92-.44,2,4.6,.7,5.84-.85,.78-1.75,1.51-2.7,2.17-1.95,1.4-4.06,2.5-6.14,3.7,.91-1.7,1.65-3.47,2.49-5.2,.95-2.07,2.95-6.27,5.65-6.51Z"/>
  <path class="cls-25" d="M138.98,299.84s52.64-24.53,76.2-24.4c28,.15,50,33.28,15.81,57.49-30.23,21.39-126,20.46-126,20.46l22.12-40.32c19.62-7,40.19-10.95,61-11.73l-48.24,10.08-.89-11.58Z"/>
  <path class="cls-4" d="M140,307.84c4.13-1.08,8.35-1.81,12.55-2.6s8.48-1.49,12.73-2.16c8.49-1.35,17.04-2.27,25.62-2.76l2.42-.1c.17-.06,.34-.12,.51-.16,.41-.13,.81-.26,1.22-.37,.76-.21,1.53-.38,2.3-.55,1.61-.36,3.22-.65,4.81-1.07,.1,0,.15,.12,.05,.15-1.6,.48-3.16,1.06-4.75,1.53l-1.39,.4c3.15-.06,6.31-.05,9.46,0,.1,0,.12,.16,0,.16-4.29,.05-8.59,.33-12.86,.71s-8.47,.77-12.69,1.31c-8.53,1.11-17,2.49-25.52,4-4.75,.85-9.51,1.78-14.31,2.33-.44,0-.62-.75-.15-.82Z"/>
  <path class="cls-4" d="M114.77,351.45c1.35-2.56,2.47-5.27,3.7-7.9s2.45-5.27,3.68-7.91c2.46-5.26,11.35-23,12.27-24.24,.04-.04,.1-.04,.14,0,.02,.02,.03,.05,.03,.08-.39,1.35-5.89,13.06-7.17,15.68-2.54,5.22-5.24,10.36-7.9,15.54-.76,1.47-1.55,2.93-2.32,4.4s-1.6,2.92-2.3,4.42c-.07,.1-.21,.02-.13-.07Z"/>
  <path class="cls-22" d="M239.5,364.58c-.7-2.31-40-56.91-42.78-58-.31-.14-18.76,12.34-18.76,12.34-.78,1-35.1-7.12-35.1-7.12l-1.33,41.61,62.87,.14s8.37,5.19,16,9.44h0c3.26,1.93,6.63,3.67,10.1,5.19,3.18,.88,9.72-1.34,9-3.6Z"/>
  <path class="cls-1" d="M230.56,368.18c-3.47-1.52-6.84-3.26-10.09-5.2h0c-7.66-4.24-16-9.44-16-9.44h-14l-21.06-35.84c4.79,1,8.36,1.56,8.61,1.24,0,0,18.44-12.48,18.76-12.34,2.75,1.1,42.07,55.7,42.78,58s-5.87,4.47-9,3.58Z"/>
  <path class="cls-17" d="M239.87,364.66c-.74-2.37-40.25-56.94-43.08-58.07-1.06-.43-10.07,4.84-18.83,12.32l25.51,35.16s24,13.44,27.22,14.35,9.92-1.39,9.18-3.76Z"/>
  <path class="cls-25" d="M237.12,365.46c-6.85-9-33.62-45.88-39.71-55.28,0-.07,0-.11,.06,0,7,8.76,33.46,45.86,39.8,55.21,.14,.16,0,.26-.15,.07Z"/>
  <path class="cls-25" d="M226.19,366.33c-1.55-2.02-2.17-4.59-1.73-7.09,.37-2.23,1.59-4.23,3.4-5.58,.06,0,.13,.06,.08,.11-3.26,3.33-3.93,8.41-1.64,12.47,.05,.08-.06,.16-.11,.09Z"/>
  <path class="cls-25" d="M206.47,356.27c-2.71-3.62-4.49-8.8-3.14-13.25,.05-.17,.3-.09,.32,.06,.64,4.42,1.75,8.75,3.31,12.93,.05,.15-.02,.31-.17,.36-.12,.04-.25,0-.32-.1Z"/>
  <path class="cls-25" d="M209.62,358.3c-2.71-3.62-4.49-8.81-3.14-13.25,0-.17,.3-.09,.32,.06,.64,4.42,1.75,8.75,3.31,12.93,.05,.15-.02,.31-.17,.36-.12,.04-.25,0-.32-.1Z"/>
  <path class="cls-25" d="M212.77,360.33c-2.7-3.63-4.48-8.81-3.13-13.25,0-.17,.29-.1,.32,.05,.64,4.42,1.75,8.76,3.31,12.94,.04,.16-.06,.31-.21,.35-.11,.03-.22,0-.29-.09Z"/>
  <path class="cls-25" d="M215.91,362.36c-2.7-3.63-4.48-8.81-3.13-13.25,.05-.17,.29-.1,.31,.05,.64,4.42,1.76,8.75,3.32,12.93,.05,.15-.04,.32-.19,.36-.11,.03-.23,0-.31-.09Z"/>
  <path class="cls-25" d="M190.41,318.84c-3-4.11,3.43-8.72,6.4-4.6s-3.43,8.69-6.4,4.6Z"/>
  <path class="cls-25" d="M204.77,363.12c1.12-3.82,.54-8,.46-11.9-.04-.31-.31-.53-.62-.49-.06,0-.11,.02-.16,.04,0-.06-.11-.1-.18,0-3.18,2.69-5.6,6.18-7,10.1-.77,2.3-.58,5.72,2.3,6.46,2.71,.67,4.49-1.97,5.2-4.21Zm-3,2.37c-4.25,2.52-3.79-3.29-3.16-5,.43-1.08,.93-2.12,1.5-3.13,1.15-2.11,2.58-4,3.93-6-.07,1.93,0,3.84,0,5.77,.04,2.34,.11,6.97-2.27,8.36Z"/>
  <path class="cls-25" d="M192.47,339.42c-2.19,2-.73,5.12,1,6.78,3.08,2.79,6.85,4.72,10.91,5.6,.06,.02,.13-.02,.15-.09,0-.01,0-.02,0-.03,.3-.02,.53-.28,.51-.59,0-.06-.02-.12-.04-.17-1.78-3.49-3.26-7.43-6.05-10.26-1.6-1.66-4.42-3.14-6.48-1.24Zm8.79,6.77c.92,1.69,1.75,3.42,2.73,5.08-2.13-1.1-4.29-2.1-6.31-3.41-.98-.61-1.91-1.27-2.8-2-1.35-1.17-4.51-6.07,.42-5.87,2.72,.08,4.86,4.18,5.96,6.2h0Z"/>
  <path class="cls-25" d="M141.26,298.99s-53.25-16-81.65-12.64c-27.84,3.32-39.25,38.21-12.11,57.12,29.63,20.65,141.19,13.43,141.19,13.43l-23.82-42.65s-38-8.94-72.64-8.59l48.69,7.81,.34-14.48Z"/>
  <path class="cls-4" d="M166.46,317c-.03-.07-.04-.14-.05-.22v-.17c0-.05-.06-.28-.1-.41-.07-.28-.16-.56-.27-.83-.1-.28-.21-.55-.33-.81-.13-.26-.28-.52-.44-.76h-.13s-.05,0-.07,0c-4.18-.88-32.61-5.64-36.84-6.22s-8.54-1.09-12.82-1.55c-8.55-.94-17.13-1.46-25.73-1.54h-2.41c-.17-.06-.35-.1-.53-.14-.41-.11-.81-.22-1.23-.31-.77-.17-1.55-.3-2.33-.44-1.61-.29-3.24-.5-4.85-.84-.1,0-.14,.13,0,.15,1.62,.4,3.2,.91,4.82,1.3l1.4,.34c-3.15,.09-6.3,.26-9.45,.47-.1,0-.11,.16,0,.15,4.28-.15,8.59-.08,12.87,.1s8.5,.36,12.74,.71c8.58,.69,17.14,1.66,25.68,2.76,4.79,.62,33.77,5.55,38.59,5.86h.06c.03,.11,.08,.22,.13,.33,.12,.26,.25,.53,.38,.79s.27,.49,.42,.73,.15,.24,.23,.36l.11,.17s.11,.13,.12,.19,.08-.07,.03-.17Z"/>
  <path class="cls-4" d="M179.77,354.13c-1.48-2.5-2.73-5.15-4.07-7.72s-2.7-5.15-4.06-7.72c-2.7-5.14-12.44-22.42-13.41-23.63-.06-.08-.19,0-.16,.09,.44,1.33,6.5,12.76,7.9,15.32,2.79,5.1,5.74,10.1,8.64,15.14,.82,1.44,1.68,2.86,2.52,4.29s1.74,2.84,2.51,4.31c.07,.09,.21,0,.13-.08Z"/>
  <path class="cls-25" d="M127.09,183.41c-8.57,5.21-13.29,16-13.29,16,0,0-9.38,9.8-9,16.41,.13,3.81,2.12,7.3,5.33,9.36l.17-3.58s1.16,4.93,8.15,8.5,17.35,3.65,23.08,2.31c3.39-.79,6.52-2.44,9.09-4.79l-3.11,4.51s7.26,1.49,13.38-5.13-3.49-20.61-3.95-23.23,2.38-20.23-16.52-21.64c-.02,.03-7.43-2.29-13.33,1.28Z"/>
  <path class="cls-25" d="M107.59,224.13c-1.8-1.65-3.05-3.82-3.59-6.2-.63-2.35-.46-4.84,.5-7.08,1.18-2.68,3.25-4.79,5.27-6.85s4.33-4.11,6.37-6.27c.11-.12-.07-.29-.19-.2-2.09,1.5-4.1,3.12-6,4.86-1.87,1.54-3.54,3.3-5,5.24-1.37,1.78-2.19,3.92-2.37,6.16-.07,1.84,.32,3.67,1.11,5.33,1.03,1.87,2.29,3.59,3.76,5.14,.09,.1,.24-.05,.14-.13Z"/>
  <path class="cls-25" d="M164.31,219.51c-.64-6.88-5.38-12.3-7.52-18.69-1.16-3.46-1.81-7.14-3.63-10.34,0-.09-.2,0-.16,.08,1.45,2.84,1.93,5.94,2.74,9,.9,3.05,2.1,6,3.59,8.8,2.56,5.2,5.64,11.35,3.35,17.19-1.06,2.7-3.45,5.4-6.53,5.57-.12,0-.09,.21,0,.19,2.5-.36,4.74-1.74,6.2-3.81,1.6-2.34,2.3-5.18,1.96-7.99Z"/>
  <path class="cls-25" d="M164.17,221.29c.77-2.36,.8-4.91,.07-7.29-.88-2.3-2.24-4.38-4-6.1-1.91-2.06-4-4.08-4.83-6.82,0-.12-.2-.05-.17,.07,1.34,4.5,5.25,7.4,7.39,11.44,2.45,4.62,1.11,10.16-2.25,13.95-2.12,2.29-4.75,4.05-7.67,5.14,0,0,0,.09,0,.08,4.99-1.79,9.82-5.21,11.46-10.47Z"/>
  <path class="cls-22" d="M123.31,239.04c7,19.83,19.52,43.13,24.11,46.61,5.8,4.41,37.27,8,39,8,4.32-.06,7.55-29,2.93-29.12-7-.2-26.42,.14-28.11-1.23s-13.92-13.62-26.59-27.5c-8.73-9.61-15.7-9.06-11.34,3.24Z"/>
  <path class="cls-22" d="M184.77,293.64c3.96,1.48,8.02,2.68,12.15,3.59,3.28,.55,12.74,1.89,13.7-1.65,.67-2.42-4.8-3.86-8.65-5-2-.59-4.64-2.34-4.22-3.64,.75-2.29,6-.68,9.47,.84,6.75,2.95,16,8.6,19.44,4.94,1.32-1.38-.63-3.4-3.36-5.28,4.32,2.06,8.86,3.64,10.38,2.16,.82-.78,.88-2.07,.14-2.93,1.09,.36,2.3,.03,3.05-.84,1.16-1.53,.29-3.47-1.39-5.38,.49-.11,.9-.46,1.1-.92,2.29-4.55-13-15.09-17.92-15.67-9.76-.97-19.6-.77-29.31,.61-5.02,5.11-4.58,29.16-4.58,29.17Z"/>
  <path class="cls-25" d="M204.05,278.25c3.42,.13,6.78,1,9.84,2.54,3.85,1.95,6.55,4.44,9.87,6.88,.09,.06,0,.2-.1,.14-1.58-1.16-8.08-5.46-9.75-6.41-3.01-1.77-6.38-2.83-9.86-3.1,0,0-.03-.06,0-.05Z"/>
  <path class="cls-25" d="M205.99,271.95c3.88,.46,7.69,1.31,11.4,2.53,4,1.49,7.3,4.28,10.55,7,1.95,1.61,3.87,3.26,5.74,5,.08,.07,0,.21-.09,.14-3.33-2.78-6.72-5.45-10.16-8-3.2-2.41-6.84-4.16-10.72-5.15-2.21-.57-4.47-1-6.72-1.35-.04-.11-.04-.18,0-.17Z"/>
  <path class="cls-25" d="M209.36,266.25c3.69,.33,6.91,.6,10.32,2.16,3.86,1.98,7.45,4.42,10.71,7.28,1.77,1.5,3.5,3.07,5.2,4.66,.07,.06,0,.18-.11,.12-3.88-3.47-7.97-6.69-12.26-9.63-2.02-1.43-4.25-2.54-6.61-3.29-2.38-.63-4.81-1.06-7.26-1.27,0,0-.01-.03,0-.03Z"/>
  <path class="cls-2" d="M189.27,262.34l-6.75,34.92s-29.74-4.91-35.66-10-19-33.26-23.5-47.13,2.73-14.29,10.41-6.13,26.57,28,27.54,28.37,27.96-.03,27.96-.03Z"/>
  <path class="cls-1" d="M176.66,283.76c-.26,.22-.56,.37-.89,.44-.6,.13-1.22-.06-1.64-.5-.68-.66-1.69-.83-2.55-.44-.39,.18-.72,.47-.95,.83-.21,.32-.45,.62-.64,1,.34-.2,.64-.43,1-.64,.25-.22,.55-.38,.88-.47,.59-.15,1.21,.01,1.65,.43,.66,.67,1.65,.88,2.52,.52,.41-.16,.76-.44,1-.8,.21-.32,.45-.62,.64-1-.4,.19-.7,.42-1.02,.63Zm-29.73-14.92c-.26,.22-.56,.36-.89,.43-.6,.13-1.22-.06-1.64-.5-.68-.66-1.69-.83-2.55-.44-.41,.17-.76,.46-1,.83-.21,.32-.45,.62-.64,1,.34-.19,.64-.43,1-.64,.25-.22,.55-.38,.88-.47,.59-.15,1.21,.01,1.65,.43,.66,.67,1.65,.88,2.52,.53,.4-.17,.75-.45,1-.81,.21-.32,.45-.62,.64-1-.35,.19-.65,.42-.97,.64Zm-23.16-36.53c-.25,.21-.56,.37-.88,.44-.29,.08-.58,.08-.87,0-.02,.3-.02,.59,0,.89,.82,.08,1.61-.31,2.06-1,.22-.32,.45-.62,.64-1-.36,.2-.66,.46-.95,.67Zm48.49,34.68c-.33-.03-.65-.14-.93-.32-.51-.33-.82-.91-.81-1.52-.02-.94-.61-1.78-1.49-2.11-.4-.15-.83-.18-1.25-.09-.38,.08-.76,.13-1.14,.23,.38,.11,.76,.15,1.14,.23,.35,.01,.7,.11,1,.29,.52,.31,.85,.86,.86,1.47,0,.94,.55,1.78,1.41,2.15,.4,.17,.84,.21,1.26,.13,.38-.08,.76-.13,1.14-.23-.46-.11-.84-.15-1.22-.23h.03Zm-28.38-17.62c-.33-.03-.65-.14-.93-.32-.52-.33-.83-.91-.81-1.52-.02-.94-.61-1.78-1.49-2.12-.41-.14-.84-.17-1.26-.08-.37,.08-.75,.12-1.13,.23,.38,.1,.76,.15,1.13,.23,.35,.01,.69,.11,1,.28,.52,.32,.84,.87,.85,1.48,0,.94,.56,1.78,1.42,2.15,.4,.16,.84,.2,1.26,.12,.38-.06,.76-.13,1.13-.23-.44-.1-.82-.15-1.2-.22h.03Zm5.89,38.58c-.4-.14-.83-.17-1.25-.08l-.69,.12-.45,.1c.31,.09,.63,.13,.94,.2,.07,0,.13,0,.2,0,.33,.03,.66,.12,.95,.29,.22,.13,.41,.31,.56,.53,.37,.17,.77,.34,1.18,.51-.16-.77-.71-1.4-1.44-1.67Z"/>
  <path class="cls-25" d="M178.03,282.61c.83-4.12,1.69-8.24,2.37-12.39,.39-2.36,.79-4.72,1.15-7.08,0-.09-.14-.13-.16,0-1,4.11-2,8.22-2.8,12.37s-1.64,8.25-2.39,12.39c-.43,2.35-.79,4.71-1.07,7.08-.42,3.55,.07,.07,.08,0,1.14-4.09,1.98-8.22,2.82-12.37Z"/>
  <path class="cls-13" d="M183.19,293.78l-.67,3.48s-29.75-4.91-35.66-10-19-33.26-23.5-47.13c-3.29-10.15-.31-13.13,4.51-10.8,13.9,15.93,40.18,46.1,55.32,64.45Z"/>
  <path class="cls-2" d="M83.19,298.06l69.26,1.16-3.45-22.15s5.62-4.87,2.34-14.14c-2.14-6.06-11.86-20.26-16.77-26.16-12-14.39-20.27-6.36-23.59-2.66-12.67,14.14-27.79,63.95-27.79,63.95Z"/>
  <path class="cls-1" d="M150.82,288.76c-.26-.37-.63-.65-1.05-.81-.4-.14-.83-.17-1.25-.08-.38,.07-.76,.12-1.14,.22,.38,.11,.76,.15,1.14,.23,.33,.03,.66,.12,.95,.29,.52,.31,.85,.86,.86,1.47,0,.77,.37,1.5,1,1.94l-.51-3.26Zm-48.31-40.29c-.13-.02-.26-.04-.39-.08-.1,.18-.19,.37-.28,.56,.22,.03,.45,.03,.67,0,.38-.06,.76-.13,1.13-.23-.37-.13-.75-.18-1.13-.25Zm22.64,31.66c-.33-.03-.65-.14-.93-.32-.52-.33-.83-.91-.81-1.52-.02-.94-.61-1.78-1.49-2.12-.41-.14-.84-.17-1.26-.08-.37,.08-.75,.12-1.13,.23,.38,.1,.76,.15,1.13,.23,.35,.01,.69,.11,1,.28,.52,.31,.84,.87,.85,1.48,0,.94,.56,1.78,1.42,2.15,.4,.16,.84,.2,1.26,.12,.38-.06,.76-.13,1.13-.23-.41-.1-.79-.15-1.17-.22Zm18.55-30.79c-.28-.04-.54-.14-.78-.29-.52-.33-.83-.91-.81-1.52,0-.27-.06-.54-.16-.79-.13-.33-.33-.63-.6-.87-.21-.2-.46-.36-.73-.46-.41-.14-.84-.17-1.26-.08-.37,.08-.75,.12-1.13,.23,.38,.1,.76,.15,1.13,.23,.35,.01,.69,.11,1,.28,.52,.32,.84,.87,.85,1.48,0,.94,.56,1.78,1.42,2.15,.4,.16,.84,.2,1.26,.12h.14c-.14-.18-.26-.33-.33-.48h0Zm-20.57,4.71c-.07-.38-.12-.75-.22-1.13-.11,.38-.15,.75-.23,1.13-.02,.35-.12,.69-.29,1-.31,.52-.86,.85-1.47,.86-.94,0-1.79,.56-2.16,1.42-.16,.4-.2,.84-.12,1.26,.08,.37,.13,.75,.23,1.13,.11-.38,.15-.76,.23-1.13,.03-.33,.13-.66,.31-.94,.33-.51,.91-.82,1.52-.81,1.24,0,2.25-1,2.25-2.25,0-.17-.02-.33-.05-.49v-.05Zm-14.7,39.21c-.08-.38-.13-.75-.23-1.13-.11,.38-.15,.75-.23,1.13-.02,.34-.11,.66-.29,.95-.31,.52-.86,.85-1.47,.86-.94,0-1.79,.56-2.16,1.42-.16,.4-.2,.84-.12,1.26,.05,.22,.08,.44,.13,.66h.21c0-.22,.07-.44,.12-.66,.03-.33,.14-.65,.32-.93,.33-.52,.91-.83,1.52-.81,.94-.02,1.78-.61,2.11-1.49,.14-.4,.17-.84,.09-1.26h0Zm15.34-60.95c-.25,.21-.56,.37-.88,.44-.6,.13-1.22-.06-1.65-.5-.68-.66-1.69-.83-2.55-.44-.39,.18-.71,.46-.95,.82-.21,.33-.44,.62-.63,1,.34-.2,.64-.43,1-.64,.25-.22,.55-.38,.87-.47,.59-.16,1.21,0,1.65,.43,.66,.67,1.66,.87,2.53,.52,.41-.16,.76-.44,1-.8,.22-.32,.45-.62,.64-1-.44,.17-.74,.43-1.03,.64Zm-20.69,40.77c-.26,.21-.56,.36-.89,.43-.6,.13-1.22-.06-1.64-.5-.68-.66-1.69-.83-2.55-.44-.39,.18-.72,.47-.95,.83-.21,.32-.45,.62-.64,1,.34-.2,.64-.43,1-.64,.26-.22,.56-.38,.88-.47,.59-.15,1.21,.01,1.65,.43,.66,.67,1.65,.88,2.52,.53,.41-.16,.75-.45,1-.81,.21-.32,.45-.62,.64-1-.43,.19-.73,.4-1.05,.64h.03Zm43.85-4.24c-.26,.22-.56,.36-.89,.43-.6,.13-1.22-.06-1.64-.5-.68-.66-1.69-.83-2.55-.44-.41,.17-.76,.46-1,.83-.21,.32-.45,.62-.64,1,.34-.19,.64-.43,1-.64,.25-.22,.55-.38,.88-.47,.59-.15,1.21,.01,1.65,.43,.66,.67,1.65,.88,2.52,.53,.4-.17,.75-.45,1-.81,.21-.32,.45-.62,.64-1-.35,.19-.65,.42-.97,.64Zm-16.22,29.65c-.68-.65-1.69-.83-2.55-.44-.36,.17-.66,.43-.89,.75h.88l.26-.08c.39-.09,.8-.05,1.17,.11h1.65c-.19-.08-.37-.19-.52-.34Zm2.53,.07c-.17,.14-.35,.25-.55,.33h.85c.21-.32,.45-.62,.64-1-.32,.22-.62,.46-.94,.67Z"/>
  <path class="cls-25" d="M128.07,276.84c3.01-.28,6.04-.33,9.06-.16,1.5,.11,3,.29,4.48,.49,.74,.11,1.48,.19,2.23,.26,.78,.1,1.56,.1,2.34,0,.03,0,.05,.02,.05,.05s-.02,.05-.05,.05c-.72,.17-1.45,.29-2.19,.36-.72,.05-1.43,.05-2.15,0-1.53-.09-3-.25-4.57-.36-3.07-.22-6.13-.44-9.21-.44-.12,.04-.13-.2,.01-.25Z"/>
  <path class="cls-25" d="M121.22,280.84c2.4-.7,4.83-1.26,7.29-1.69,1.23-.2,2.46-.34,3.71-.44,.59-.05,1.19-.09,1.78-.12s1.32,0,2,0c.07,0,.09,.1,0,.11-.61,.06-1.22,.22-1.83,.32l-1.85,.28c-1.23,.19-2.45,.4-3.69,.58-2.46,.36-4.91,.75-7.37,1.2-.14-.02-.16-.24-.04-.24Z"/>
  <path class="cls-22" d="M119.37,230.92c0,1.31,3.69,10.89,9.4,12.14,1.85,.4,4.51-9.65,4.51-9.65l.37-.69,5.11-9.76-10.09-11.12-1.49-1.51s-1.22,2.76-2.71,6.21c-.07,.16-.14,.32-.21,.5s-.18,.37-.25,.56c-.23,.51-.46,1-.68,1.56s-.34,.79-.5,1.22l-.5,1.26c-1.2,3.02-2.18,6.12-2.96,9.28Z"/>
  <path class="cls-25" d="M124.47,216.56c.54,6.47,3.89,12.38,9.18,16.16l5.11-9.76-10.09-11.12-1.49-1.51s-1.22,2.78-2.71,6.23Z"/>
  <path class="cls-22" d="M157.67,209.98c-2.17,19.21-13.92,20.08-18.06,19.6-3.76-.42-16.51-2.36-16.34-21.69s9.79-24.4,18.44-23.87,18.13,6.75,15.96,25.96Z"/>
  <path class="cls-25" d="M155.33,206.35c-.44-.11-.83-.29-1.26-.44-.46-.1-.88-.35-1.19-.71-.16-.27-.11-.61,.11-.83,.5-.36,1.16-.43,1.72-.17,.6,.17,1.11,.56,1.44,1.09,.19,.35,.07,.8-.29,.99-.16,.09-.35,.11-.53,.07Z"/>
  <path class="cls-25" d="M142.2,203.95c.44,0,.89-.04,1.33-.1,.47,.03,.94-.09,1.34-.35,.23-.22,.27-.57,.11-.84-.39-.48-1-.72-1.61-.62-.62,0-1.22,.25-1.68,.67-.28,.29-.28,.75,.01,1.03,.13,.13,.31,.2,.5,.21Z"/>
  <path class="cls-25" d="M144.6,209.65c0-.05-.11,.05-.11,.1-.11,1.31-.45,2.8-1.68,3.1v.08c1.47-.04,1.9-2.02,1.79-3.28Z"/>
  <path class="cls-25" d="M143.58,208.15c-2.08-.39-2.72,3.81-.78,4.17s2.53-3.84,.78-4.17Z"/>
  <path class="cls-25" d="M142.77,208.25c-.41,.18-.83,.55-1.28,.52s-.84-.52-1.11-1c0-.05-.07,0-.08,0-.13,.8,0,1.68,.9,1.93s1.44-.4,1.77-1.18c.02-.1-.08-.35-.2-.27Z"/>
  <path class="cls-25" d="M151.88,210.47s.09,.08,.08,.13c-.25,1.29-.32,2.82,.79,3.43,0,0,0,.09,0,.08-1.42-.43-1.32-2.46-.87-3.64Z"/>
  <path class="cls-25" d="M153.25,209.3c2.12,.17,1.62,4.39-.34,4.23s-1.43-4.38,.34-4.23Z"/>
  <path class="cls-25" d="M154.1,209.68c.31,.26,.59,.71,1,.78s.86-.33,1.2-.73c0,0,.07,0,.06,.05-.07,.81-.44,1.62-1.23,1.68s-1.16-.7-1.26-1.52c-.03-.1,.11-.37,.23-.26Z"/>
  <path class="cls-25" d="M142.83,220.31c.25,.36,.48,.84,.94,1,.48,.09,.98,.07,1.45-.05m.05,.08c-.48,.44-1.16,.59-1.78,.38-.52-.25-.83-.78-.79-1.35-.01-.11,.07-.11,.13-.06l2.44,1.03Z"/>
  <path class="cls-25" d="M148.94,216.36s0,2-.13,2.9c0,.08-.24,.09-.55,.07h0c-1.65,.06-3.19-.8-4-2.23-.05-.09,.08-.17,.15-.1,1.06,.96,2.4,1.55,3.83,1.69,.1-.24-.11-3.4,0-3.39,.7,.17,1.37,.43,2,.77,.12-4.14-.42-8.26-.23-12.37,.02-.07,.09-.11,.16-.09,.04,.01,.08,.05,.09,.09,.71,4.4,.98,8.86,.81,13.31,.01,.51-1.78-.45-2.13-.65Z"/>
  <path class="cls-25" d="M148.18,218.84c-.61,.69-1.38,1.22-2.25,1.52-.48,.16-.99,.16-1.47,0-1-.34-1-1.32-.75-2.14,.14-.43,.32-.85,.56-1.24,1.07,1.02,2.44,1.67,3.91,1.86Z"/>
  <path class="cls-10" d="M145.93,220.39c-.48,.16-.99,.16-1.47,0-1-.34-1-1.32-.75-2.14,1.14,.12,2.06,1,2.22,2.14Z"/>
  <path class="cls-25" d="M123.32,210.24c2.72-.78,4.82-2.93,5.54-5.66,3.61-.88,6.92-2.71,9.58-5.3-.2,.37-1.62,3.06-2.39,4.41,12.55-.15,17.94-8.79,17.94-8.79,1.95,2.54,3.3,5.49,3.95,8.63,0,0,1.39-7.45-1.57-13.11-1.92-3.98-5.83-6.61-10.23-6.89-5.86-2.55-12.64-1.69-17.68,2.24-9.4,7.22-5.14,24.47-5.14,24.47Z"/>
  <path class="cls-25" d="M145.64,203.29c-2.14,.73-4.37,1.13-6.63,1.2h0c3.58-.34,6.99-1.66,9.86-3.83,1.21-.93,2.31-2.01,3.26-3.21,1.09-1.27,1.92-2.75,2.43-4.35,0-.05,.04-.09,.09-.09,.05,0,.09,.04,.09,.09-.33,1.63-.94,3.2-1.8,4.63-.91,1.38-2.06,2.58-3.4,3.55-1.2,.85-2.51,1.52-3.9,2h0Z"/>
  <path class="cls-1" d="M140.83,216.05c-3.11-.69-5.07-3.76-4.38-6.87s3.76-5.07,6.87-4.38c2.56,.57,4.41,2.79,4.51,5.41h0c.14,3.17-2.32,5.86-5.49,6-.02,0-.03,0-.05,0-.49,.01-.98-.04-1.46-.16Zm2.28-10.51c-.41-.08-.82-.12-1.24-.11-2.76,.1-4.92,2.42-4.82,5.18s2.42,4.92,5.18,4.82,4.92-2.42,4.82-5.18c-.08-2.28-1.7-4.22-3.94-4.71Z"/>
  <path class="cls-1" d="M153.99,217.25c-2.15-.47-3.63-3.09-3.34-6.08,.11-1.43,.67-2.79,1.6-3.89,1.18-1.59,3.42-1.92,5.01-.75,.47,.35,.85,.81,1.1,1.34,.7,1.25,.99,2.69,.82,4.12-.3,3.16-2.47,5.55-4.82,5.32-.12-.01-.25-.03-.37-.06Zm1.7-10.59c-.1,0-.19,0-.29,0-1-.06-1.96,.38-2.57,1.17-.82,.97-1.31,2.18-1.41,3.45-.27,2.74,1.08,5.12,3,5.3s3.71-1.88,4-4.62c.15-1.27-.11-2.54-.72-3.66-.41-.81-1.14-1.41-2.01-1.64Z"/>
  <path class="cls-1" d="M147.55,210.84l-.44-.64c.94-.64,3-1.43,4.3,.2l-.61,.47c-1.12-1.44-3.17-.03-3.25-.03Z"/>
  <path class="cls-1" d="M121.87,209.84l-.64-.42c.19-.3,1.95-2.95,3.69-3.06s11.8,1.86,12.23,1.94l-.15,.76c-2.91-.57-10.78-2-12-1.93s-2.66,2-3.13,2.71Z"/>
  <path class="cls-22" d="M122.12,214.41c.26,.17,.55,.3,.84,.4,.28,.12,.58,.19,.89,.21,.39,.04,.79,0,1.16-.14,.29-.1,.57-.24,.83-.41,.36-.25,.68-.56,.93-.92v-5.27s-2.95-6.75-5.92-5.81-1.64,10.13,1.27,11.94Z"/>
  <path class="cls-25" d="M121.27,205.09c-.05,0-.07,.05,0,.08,2,1.34,2.78,3.63,3.17,5.91-.33-.94-1.37-1.44-2.31-1.11-.08,.03-.16,.06-.24,.11-.07,0,0,.13,0,.13,.84-.08,1.63,.36,2,1.12,.3,.64,.53,1.31,.69,2,.06,.21,.44,.18,.41-.06v-.06c.65-2.84-.75-7.23-3.72-8.12Z"/>
  <path class="cls-22" d="M108.91,235.35c-11.44,10-40.77,49.5-33.57,57.95s52.47,2.59,65.49-2.08c3.87-1.39-7.86-25.84-12.15-26.81-3.57-.82-22.91,5.79-23.34,4.67s3.34-9.84,9.4-25.46c7.03-18-.77-12.7-5.83-8.27Z"/>
  <path class="cls-22" d="M147.77,258.84c9.11-.35,11.5,1,19-3.42,4.94-2.87,8.9-.95,5.74,4.09-5.17,8.23-16.83,11.15-21.16,11l-3.58-11.67Z"/>
  <path class="cls-22" d="M123.06,265.06s10.65-4.59,20.32-5.92c6.69-.92,21.46-1.31,34,14.48,3,3.75,4.54,11.19-2.53,6.83-5-3.09-7.27-6.57-10.52-7.84,0,0,.88,9.7-3,12.53-3.39,2.48-6.95,4.72-10.65,6.7-.51-.6-.99-1.23-1.43-1.88,0,0-3.86,2.3-10.57,1l-15.62-25.9Z"/>
  <path class="cls-22" d="M149.9,259.28c3,1.94,9.16,6.16,13,11.37,4.3,5.79,11,18.11,6.72,21.24-3.16,2.3-6.14-2.18-6.14-2.18,0,0,1.7,5.67-1.6,7.12-3,1.32-5.12-2.28-5.12-2.28,0,0,.45,3.62-2.7,4.34-3.79,.86-4.09-6.87-8.68-9.32-1-.55,4.52-30.29,4.52-30.29Z"/>
  <path class="cls-25" d="M156.05,274.17c4.02,4.25,6.64,9.62,7.52,15.4,0,.15-.09,.24-.13,.11-1.84-5.44-4.34-10.63-7.44-15.46,0,0,.03-.07,.05-.05Z"/>
  <path class="cls-25" d="M150.33,278.69c1.94,2.18,6.08,9.21,6.59,15.81,0,.15-.1,.24-.14,.1-1.56-5.52-3.74-10.85-6.5-15.88,0,0,.03-.06,.05-.03Z"/>
  <path class="cls-25" d="M164.31,272.55c2.84,1.16,4.6,2.78,6.9,4.75,1.13,.98,2.3,1.91,3.53,2.76,1.13,.77,2.79,1.92,4.16,1,.66-.58,.96-1.48,.78-2.34-.24-1.22-.67-2.4-1.28-3.49,0,0,.05-.08,.08,0,.59,.99,1.08,2.05,1.46,3.14,.24,.75,.24,1.56,0,2.31-.59,1.57-2.51,1.59-3.82,1-.77-.37-1.51-.82-2.19-1.34-.67-.48-1.31-1-1.95-1.52-1.29-1.08-2.53-2.23-3.81-3.33-1.25-1.03-2.57-1.99-3.94-2.85-.02-.02-.03-.06,0-.09,.02-.02,.06-.03,.09,0Z"/>
  <path class="cls-25" d="M169.41,283.47c-1.48-3.73-3.21-7.35-5.17-10.85m.07-.06c2.36,3.22,4.32,6.73,5.82,10.43,.83,2.02,1.24,4.18,1.2,6.36-.3,3.06-2.39,3.43-3.16,3.51-.91,.07-1.81-.18-2.56-.69-.87-.66-1.59-1.5-2.13-2.45,0-.05,0-.1,.06-.06,.94,1.31,2.58,2.68,4.27,2.63,.75,0,1.47-.3,2-.83,.53-.69,.79-1.55,.74-2.42-.06-1.91-.45-3.79-1.14-5.57l-5.1-10.91Z"/>
  <path class="cls-2" d="M123.06,265.06l11.17,31.21s-56.63,6.88-60.44-3.24,21.48-45.69,32.28-55.7c12.5-11.61,13.5-7.13,9.9,3.9-3.78,11.56-10.5,28.14-10.5,28.14l17.59-4.31Z"/>
  <path class="cls-1" d="M102.51,248.47c-.33-.03-.65-.14-.93-.32-.51-.33-.82-.91-.81-1.52-.02-.9-.56-1.71-1.38-2.07l-.48,.57h.07c.52,.31,.85,.87,.86,1.48,0,.94,.55,1.78,1.41,2.15,.4,.16,.84,.2,1.26,.12,.38-.06,.76-.13,1.13-.23-.37-.06-.75-.11-1.13-.18Zm22.64,31.66c-.33-.03-.65-.14-.93-.32-.52-.33-.83-.91-.81-1.52-.02-.94-.61-1.78-1.49-2.12-.41-.14-.84-.17-1.26-.08-.37,.08-.75,.12-1.13,.23,.38,.1,.76,.15,1.13,.23,.35,.01,.69,.11,1,.28,.52,.31,.84,.87,.85,1.48,0,.94,.56,1.78,1.42,2.15,.4,.16,.84,.2,1.26,.12,.38-.06,.76-.13,1.13-.23-.41-.1-.79-.15-1.17-.22Zm-40.62,6.71c-.33-.03-.65-.14-.93-.32-.52-.33-.83-.91-.81-1.52-.02-1.26-1.05-2.27-2.31-2.25-.15,0-.29,.02-.44,.05-.38,.08-.75,.12-1.13,.23,.38,.11,.75,.15,1.13,.23,.35,0,.7,.11,1,.29,.52,.31,.85,.86,.86,1.47,0,.94,.56,1.78,1.42,2.15,.4,.17,.84,.21,1.26,.12,.38-.07,.75-.12,1.13-.22-.39-.1-.78-.17-1.18-.23Zm23.9,6.45c-.08-.38-.13-.75-.23-1.13-.11,.38-.15,.75-.23,1.13-.02,.34-.11,.66-.29,.95-.31,.52-.86,.85-1.47,.86-.94,0-1.79,.56-2.16,1.42-.16,.4-.2,.84-.12,1.26,.05,.24,.09,.48,.14,.73h.19c0-.24,.08-.48,.13-.72,.03-.33,.14-.65,.32-.93,.33-.52,.91-.83,1.52-.81,.94-.02,1.78-.61,2.11-1.49,.15-.42,.18-.87,.09-1.3v.03Zm9.34-60.74l-.06,.08c-.21,.33-.44,.62-.63,1,.25-.15,.48-.31,.71-.47-.02-.23-.02-.43-.02-.61Zm-14.72,40.53c-.26,.21-.56,.36-.89,.43-.6,.13-1.22-.06-1.64-.5-.68-.66-1.69-.83-2.55-.44-.39,.18-.72,.47-.95,.83-.21,.32-.45,.62-.64,1,.34-.2,.64-.43,1-.64,.26-.22,.56-.38,.88-.47,.59-.15,1.21,.01,1.65,.43,.66,.67,1.65,.88,2.52,.53,.41-.16,.75-.45,1-.81,.21-.32,.45-.62,.64-1-.4,.19-.7,.4-1.02,.64Z"/>
  <path class="cls-25" d="M87.85,275.61c2.75-1.51,5.61-2.82,8.55-3.93,2.91-1.08,5.89-1.94,8.93-2.58,1.73-.39,3.48-.69,5.22-1m0,.08c-3.05,.66-6.05,1.5-9,2.51-2.95,.97-5.87,1.99-8.77,3.07-1.65,.62-3.26,1.3-4.88,2-.04,.01-.09,0-.1-.05-.01-.04,0-.09,.05-.1l22.7-7.43Z"/>
  <path class="cls-25" d="M122.92,264.96c-.29,.05-15.93,3.53-16.45,3.71,.08-.22,3.61-8,4.13-9.14,.06-.11,.1-.23,.15-.34,.33-.5,.66-1,1-1.51s.79-1.31,1.18-2h0l-1.26,1.91c-.19,.3-.38,.6-.56,.91,.35-.81,.69-1.62,1-2.43,.54-1.3,1-2.61,1.54-3.92,0-.05,0-.07-.07,0-1,2.27-2.15,4.5-3.19,6.77s-5,10.59-5,10.59c0,0,17.27-4.21,17.61-4.32,.06-.02,.1-.09,.07-.15s-.09-.1-.15-.07Z"/>
  <path class="cls-25" d="M121.99,284.49c-1.22-3.48-2.42-7-3.78-10.4-.77-2-1.52-3.91-2.31-5.86,0-.07-.16,0-.14,.05,1.09,3.54,2.19,7.09,3.45,10.58s2.46,7,3.75,10.42c.74,1.96,1.53,3.9,2.38,5.82,1.27,2.88,.09,0,.07,0-.97-3.61-2.19-7.1-3.42-10.61Z"/>
  <path class="cls-25" d="M134.89,296.84c-.46-1-1-2.36-1.53-3.31-.13-.25-.32-.22-.22,0,.34,.87,.6,1.84,.93,2.74-.8,.07-1.59,.13-2.38,.22l-2.75,.29c-1.8,.19-3.59,.36-5.39,.51-3.65,.3-7.3,.52-10.95,.67-7.33,.34-14.67,.29-22-.14-2-.13-4.09-.3-6.12-.53s-4.31-.51-6-.89c0,0-.07,.07,0,.09,1.69,.54,3.42,.94,5.17,1.21,1.84,.27,3.69,.5,5.54,.66,3.68,.33,7.38,.46,11.08,.49,7.33,.06,14.67-.19,22-.74,2.05-.15,4.1-.32,6.14-.53,1-.11,2.07-.21,3.1-.33s3.46-.28,3.38-.41Z"/>
  <rect class="cls-9" x="136.55" y="301.44" width="71.29" height="3.19"/>
  <polygon class="cls-7" points="207.84 301.44 207.84 304.63 159.38 304.63 161.83 301.44 207.84 301.44"/>
  <polygon class="cls-7" points="169.18 304.63 231.58 304.63 240.6 260.61 178.21 260.61 169.18 304.63"/>
  <polygon class="cls-9" points="172.1 304.63 234.49 304.63 243.52 260.61 181.13 260.61 172.1 304.63"/>
  <path class="cls-1" d="M213.43,280.98c.11,2.02-1.17,3.85-3.1,4.44-1.79,.37-3.28-1-3.35-3.09-.11-2.02,1.18-3.85,3.11-4.44,1.78-.37,3.28,1.01,3.34,3.09Z"/>
  <path class="cls-12" d="M261.66,126.84c0,3.83-3.11,6.94-6.94,6.94s-6.94-3.11-6.94-6.94,3.11-6.94,6.94-6.94,6.94,3.11,6.94,6.94h0Z"/>
</svg>