<?xml version="1.0" encoding="UTF-8"?>
<svg id="Layer_1" data-name="Layer 1" xmlns="http://www.w3.org/2000/svg" viewBox="0 0 407.35 421.84">
  <defs>
    <style>
      .cls-1 {
        fill: #fff;
      }

      .cls-2 {
        fill: #f5f5f5;
      }

      .cls-3 {
        fill: #455a64;
      }

      .cls-4 {
        fill: #ffbf9d;
      }

      .cls-5 {
        fill: #e0e0e0;
      }

      .cls-6 {
        fill: #ff9a6c;
      }

      .cls-7 {
        fill: #ff725e;
      }

      .cls-8 {
        opacity: .3;
      }

      .cls-9 {
        fill: #ebebeb;
      }

      .cls-10 {
        fill: #263238;
      }
    </style>
  </defs>
  <g>
    <path class="cls-5" d="M325.93,328.4c-5.66-6.66-13.48-10.67-18.92-12.2-5.09-1.43-12.81-2.74-20.67-.82-4.88,1.19-9.16,3.49-12.71,6.84-4.2,3.96-7.42,9.43-9.54,16.25-.32,1.02-.21,2.11,.3,3.05,.51,.95,1.37,1.63,2.41,1.92l13.35,3.76c1.88,.53,3.9-.42,4.69-2.21,1.77-4.02,6.24-10.37,16.28-7.73,7.65,2.02,9.24,8.41,9.57,11.07,.54,4.32-1.17,8.79-4.55,11.95-5.2,4.86-11.99,3.92-15.58,2.92-4.12-1.14-8.41,1.26-9.56,5.35l-4.05,14.37c-.59,2.1,.64,4.29,2.73,4.88l13.01,3.66c2.1,.59,4.29-.64,4.88-2.73l.85-3.02c.02-.07,.08-.12,.16-.13,3.24-.2,9.65-1.1,16.24-4.76,8.41-4.68,14.11-12.17,16.95-22.27,4.07-14.45-.93-24.36-5.84-30.14Z"/>
    <path class="cls-5" d="M285.81,393.42l-1.14-.32c-5.44-1.53-11.11,1.65-12.65,7.09s1.65,11.11,7.09,12.65l1.14,.32c5.44,1.53,11.11-1.65,12.65-7.09s-1.65-11.11-7.09-12.65Z"/>
  </g>
  <g>
    <path class="cls-2" d="M354.61,248.81c-3.93-2.15-8.41-2.64-11.3-2.37-2.7,.25-6.64,1.04-10.05,3.39-2.12,1.46-3.75,3.35-4.83,5.6-1.29,2.67-1.82,5.88-1.59,9.53,.04,.55,.28,1.05,.7,1.4,.42,.36,.95,.53,1.51,.48l7.08-.65c1-.09,1.79-.92,1.84-1.92,.11-2.25,1.09-6.11,6.38-6.69,4.03-.44,5.96,2.33,6.61,3.55,1.05,1.97,1.05,4.42,.01,6.56-1.6,3.28-5.02,4.07-6.92,4.25-2.18,.21-3.8,2.14-3.6,4.31l.7,7.62c.1,1.11,1.09,1.94,2.2,1.83l6.9-.63c1.11-.1,1.94-1.09,1.83-2.2l-.15-1.6s.02-.07,.05-.09c1.51-.69,4.42-2.29,6.9-5.26,3.17-3.78,4.53-8.42,4.04-13.77-.7-7.66-4.91-11.5-8.32-13.36Z"/>
    <path class="cls-2" d="M347.31,287.3l-.6,.05c-2.89,.26-5.02,2.83-4.76,5.71,.26,2.89,2.83,5.02,5.71,4.76l.6-.05c2.89-.26,5.02-2.83,4.76-5.71-.26-2.89-2.83-5.02-5.71-4.76Z"/>
  </g>
  <g>
    <path class="cls-2" d="M70.93,86.07c-2.66-2.62-6.15-4.03-8.52-4.48-2.22-.42-5.56-.68-8.84,.43-2.04,.69-3.77,1.83-5.16,3.39-1.64,1.85-2.8,4.3-3.45,7.28-.1,.45-.01,.9,.24,1.29,.25,.38,.64,.64,1.1,.73l5.83,1.1c.82,.15,1.65-.33,1.91-1.12,.6-1.78,2.27-4.65,6.64-3.91,3.34,.57,4.25,3.23,4.5,4.35,.39,1.82-.17,3.79-1.49,5.26-2.03,2.27-4.96,2.12-6.53,1.83-1.8-.33-3.54,.85-3.87,2.64l-1.18,6.27c-.17,.92,.43,1.8,1.35,1.97l5.68,1.07c.92,.17,1.8-.43,1.97-1.35l.25-1.32s.03-.05,.06-.06c1.37-.21,4.07-.83,6.74-2.64,3.4-2.31,5.55-5.72,6.38-10.13,1.19-6.31-1.32-10.34-3.63-12.62Z"/>
    <path class="cls-2" d="M56.3,115.29l-.5-.09c-2.38-.45-4.67,1.12-5.12,3.5-.45,2.38,1.12,4.67,3.5,5.12l.5,.09c2.38,.45,4.67-1.12,5.12-3.5,.45-2.38-1.12-4.67-3.5-5.12Z"/>
  </g>
  <g>
    <path class="cls-9" d="M344.06,88.08c-3.92-2.17-8.4-2.67-11.29-2.42-2.7,.24-6.64,1.01-10.07,3.35-2.13,1.46-3.76,3.34-4.86,5.58-1.3,2.66-1.85,5.87-1.63,9.52,.03,.55,.28,1.05,.7,1.41,.42,.36,.95,.53,1.5,.49l7.09-.62c1-.09,1.79-.91,1.85-1.91,.12-2.25,1.11-6.11,6.41-6.66,4.04-.42,5.96,2.36,6.6,3.57,1.04,1.98,1.03,4.43-.02,6.56-1.61,3.27-5.04,4.05-6.94,4.23-2.18,.2-3.81,2.13-3.62,4.3l.67,7.62c.1,1.11,1.08,1.94,2.2,1.84l6.9-.6c1.11-.1,1.94-1.08,1.84-2.2l-.14-1.6s.02-.07,.05-.09c1.52-.68,4.43-2.28,6.93-5.23,3.18-3.77,4.56-8.4,4.09-13.75-.67-7.67-4.86-11.52-8.26-13.4Z"/>
    <path class="cls-9" d="M336.61,126.54l-.6,.05c-2.89,.25-5.03,2.81-4.78,5.69s2.81,5.03,5.69,4.78l.6-.05c2.89-.25,5.03-2.81,4.78-5.69-.25-2.89-2.81-5.03-5.69-4.78Z"/>
  </g>
  <g>
    <path class="cls-9" d="M131,318.51c-4.91-2.31-10.36-2.57-13.83-2.04-3.25,.5-7.95,1.74-11.9,4.84-2.45,1.93-4.28,4.32-5.43,7.13-1.36,3.32-1.77,7.23-1.22,11.63,.08,.66,.42,1.24,.95,1.65,.53,.4,1.19,.57,1.85,.47l8.51-1.3c1.2-.18,2.1-1.24,2.08-2.45-.03-2.73,.87-7.46,7.22-8.55,4.84-.83,7.38,2.38,8.25,3.8,1.41,2.31,1.6,5.27,.49,7.93-1.69,4.08-5.77,5.29-8.05,5.65-2.62,.41-4.43,2.87-4.03,5.48l1.4,9.16c.21,1.34,1.46,2.26,2.8,2.05l8.29-1.27c1.34-.2,2.26-1.46,2.05-2.8l-.29-1.92s.02-.09,.06-.11c1.78-.95,5.18-3.1,7.96-6.86,3.55-4.8,4.85-10.5,3.87-16.94-1.41-9.21-6.78-13.53-11.04-15.54Z"/>
    <path class="cls-9" d="M125.02,365.56l-.73,.11c-3.47,.53-5.86,3.79-5.33,7.25s3.79,5.86,7.25,5.33l.73-.11c3.47-.53,5.86-3.79,5.33-7.25-.53-3.47-3.79-5.86-7.25-5.33Z"/>
  </g>
  <g>
    <path class="cls-9" d="M56.36,145.17c-6.9-3.23-14.56-3.58-19.43-2.83-4.56,.71-11.16,2.47-16.7,6.83-3.44,2.71-6,6.09-7.61,10.03-1.9,4.67-2.47,10.17-1.69,16.35,.12,.93,.59,1.75,1.34,2.31,.75,.57,1.68,.8,2.61,.65l11.96-1.85c1.69-.26,2.94-1.74,2.92-3.45-.05-3.83,1.2-10.49,10.12-12.03,6.8-1.17,10.38,3.33,11.6,5.32,1.99,3.24,2.26,7.4,.72,11.13-2.37,5.74-8.1,7.45-11.3,7.96-3.68,.59-6.22,4.04-5.65,7.71l1.99,12.87c.29,1.88,2.06,3.17,3.94,2.88l11.65-1.8c1.88-.29,3.17-2.06,2.88-3.94l-.42-2.7c-.01-.07,.02-.13,.08-.16,2.5-1.34,7.26-4.37,11.16-9.66,4.98-6.76,6.79-14.77,5.39-23.81-2.01-12.94-9.56-19-15.55-21.8Z"/>
    <path class="cls-9" d="M48.07,211.29l-1.02,.16c-4.87,.76-8.22,5.33-7.47,10.2s5.33,8.22,10.21,7.47l1.02-.16c4.87-.76,8.22-5.33,7.47-10.2s-5.33-8.22-10.21-7.47Z"/>
  </g>
  <g id="Speech_Bubble" data-name="Speech Bubble">
    <g>
      <g>
        <path class="cls-1" d="M224.77,63.67l9.01,1.5c4.43,5.3,10.5,9.35,17.77,11.28,17.16,4.57,35.31-4.86,41.49-21.5,7.14-19.23-3.76-40.47-23.74-45.77-16.96-4.5-34.9,4.63-41.27,20.99-3.16,8.11-3.07,16.61-.42,24.15v-.02s-2.85,9.37-2.85,9.37Z"/>
        <path class="cls-10" d="M224.77,63.67s.05-.2,.16-.6c.12-.42,.29-1.02,.52-1.79,.47-1.61,1.16-3.97,2.06-7.01l.06-.21,.13,.18v.02s-.18,.1-.18,.1c-1.44-4.07-2.67-9.88-1.64-16.72,.5-3.41,1.59-7.01,3.35-10.59,1.79-3.56,4.34-7.04,7.64-10.05,3.31-3,7.38-5.5,11.99-7.13,4.6-1.62,9.74-2.43,14.96-1.87,5.21,.51,10.48,2.25,15.19,5.16,4.74,2.88,8.78,7.1,11.68,12.08,1.53,2.49,2.55,5.22,3.43,7.94,.2,.69,.33,1.39,.49,2.08,.14,.7,.36,1.38,.42,2.09,.08,.7,.17,1.4,.26,2.1l.12,1.05,.02,1.05c.2,5.6-.99,11.07-3.17,15.89-2.16,4.85-5.5,8.92-9.25,12.08-3.77,3.17-8.04,5.42-12.33,6.75-4.3,1.32-8.62,1.75-12.62,1.47-.99-.12-1.97-.23-2.93-.34-.96-.14-1.88-.39-2.79-.57-1.83-.4-3.53-1-5.13-1.64-6.42-2.64-10.77-6.65-13.5-9.93l.06,.04c-2.9-.51-5.16-.91-6.71-1.18-.74-.13-1.31-.24-1.72-.31-.38-.07-.57-.11-.57-.11,0,0,.21,.02,.61,.08,.41,.06,.99,.15,1.75,.27,1.54,.24,3.78,.6,6.67,1.05h.04s.02,.04,.02,.04c2.75,3.23,7.1,7.18,13.46,9.75,1.59,.63,3.28,1.22,5.08,1.6,.91,.18,1.82,.42,2.77,.55,.95,.11,1.92,.21,2.9,.33,3.95,.25,8.22-.18,12.47-1.5,4.24-1.33,8.44-3.56,12.16-6.7,3.7-3.14,6.99-7.15,9.1-11.93,2.14-4.76,3.31-10.15,3.1-15.66l-.02-1.04-.12-1.03c-.08-.69-.17-1.38-.25-2.07-.06-.7-.28-1.37-.42-2.05-.17-.68-.29-1.38-.49-2.05-.86-2.68-1.87-5.37-3.38-7.82-2.85-4.91-6.84-9.07-11.5-11.91-4.64-2.87-9.83-4.58-14.96-5.1-5.15-.56-10.22,.23-14.76,1.82-4.55,1.6-8.57,4.06-11.85,7.01-3.27,2.97-5.8,6.39-7.59,9.9-1.76,3.53-2.86,7.1-3.37,10.47-1.05,6.78,.12,12.54,1.51,16.6l.25,.74-.44-.65v-.02s.18-.03,.18-.03c-.94,3-1.66,5.32-2.16,6.91-.25,.78-.44,1.38-.57,1.8-.13,.4-.21,.62-.21,.62Z"/>
      </g>
      <g>
        <path class="cls-7" d="M267.81,26.78c-2.67-1.77-5.83-2.38-7.9-2.37-1.94,.01-4.79,.34-7.36,1.81-1.6,.92-2.87,2.16-3.78,3.7-1.08,1.82-1.65,4.07-1.71,6.68,0,.39,.14,.76,.42,1.04,.28,.28,.65,.43,1.04,.43l5.08-.04c.72,0,1.33-.54,1.42-1.25,.21-1.6,1.14-4.28,4.94-4.38,2.9-.07,4.11,2.02,4.49,2.92,.63,1.47,.48,3.21-.39,4.67-1.34,2.24-3.82,2.6-5.18,2.61-1.57,.02-2.83,1.3-2.82,2.85l.04,5.47c0,.8,.66,1.44,1.46,1.44l4.95-.03c.8,0,1.44-.66,1.44-1.46v-1.15s0-.05,.04-.06c1.12-.4,3.29-1.37,5.23-3.33,2.48-2.5,3.73-5.72,3.7-9.56-.04-5.49-2.81-8.48-5.12-10.01Z"/>
        <path class="cls-7" d="M260.3,53.73h-.43c-2.07,.02-3.74,1.71-3.73,3.78s1.71,3.74,3.78,3.73h.43c2.07-.02,3.74-1.71,3.73-3.78s-1.71-3.74-3.78-3.73Z"/>
      </g>
    </g>
  </g>
  <g id="Character">
    <g>
      <path class="cls-7" d="M274.1,108.75c-23.61-15.88-51.68-21.54-70.08-21.54-17.23,0-42.59,2.72-65.54,15.66-14.25,8.04-25.63,19.03-33.8,32.65-9.68,16.14-14.93,36.11-15.58,59.35-.1,3.49,1.19,6.79,3.63,9.29,2.45,2.52,5.73,3.91,9.25,3.91h45.18c6.38,0,11.86-4.76,12.75-11.06,2-14.17,10.41-38.02,44.22-38.61,25.76-.44,36.39,18.2,39.76,26.24,5.49,13.08,4.1,28.59-3.73,41.5-12.02,19.82-34.14,22.86-46.25,22.9-13.93,.05-25.26,11.36-25.26,25.21v48.62c0,7.1,5.78,12.88,12.88,12.88h44.02c7.1,0,12.88-5.78,12.88-12.88v-10.21c0-.24,.15-.46,.39-.54,9.97-3.5,29.3-11.95,46.71-29.26,22.23-22.1,33.49-50.62,33.49-84.77,0-48.88-24.42-75.56-44.9-89.34Z"/>
      <path class="cls-10" d="M202.41,358.43h3.55c17.48,0,31.7,14.22,31.7,31.7s-14.22,31.7-31.7,31.7h-3.55c-17.48,0-31.71-14.22-31.71-31.7,0-17.48,14.22-31.7,31.7-31.7Z"/>
      <g>
        <path class="cls-10" d="M181.34,345.15h44c7.1,0,12.87-5.59,12.87-12.47v-19.88c0-.24,.15-.44,.39-.52,5.2-1.77,12.48-5.01,20.71-10.07-28.11-.2-79.36-.48-90.85-.07v30.54c0,6.88,5.77,12.47,12.87,12.47Z"/>
        <g>
          <g>
            <path class="cls-4" d="M217.58,124.9l-28.24-82c-5.96-20.53-22.88-34.17-43.24-27.65l-1.85,.71c-18.58,7.18-28.54,27.42-22.88,46.51,5.27,17.77,11.32,37.33,15,46.53,7.63,19.04,27.6,13.7,27.6,13.7,.04-.01,4.45,12.69,6.37,18.4l10.34,10.22,4.27-4.67,32.61-21.76Z"/>
            <path class="cls-6" d="M163.98,122.71s12.34-3.95,22.07-16.99c0,0-.44,16.7-20.2,22.36l-1.87-5.36Z"/>
            <path class="cls-10" d="M135.19,75.43c.51,1.46,2.16,2.24,3.7,1.74,1.53-.5,2.37-2.09,1.87-3.55-.51-1.46-2.16-2.24-3.7-1.74-1.54,.5-2.37,2.09-1.87,3.56Z"/>
            <path class="cls-10" d="M128.4,68.43c.48,.22,1.95-2.11,4.9-3.24,2.92-1.17,5.67-.49,5.85-.97,.1-.22-.5-.73-1.7-1.05-1.19-.32-3.02-.38-4.85,.34-1.83,.72-3.11,1.99-3.73,3.02-.64,1.04-.69,1.81-.46,1.9Z"/>
            <path class="cls-10" d="M159.78,65.68c.48,.22,1.96-2.11,4.9-3.24,2.92-1.17,5.67-.49,5.85-.97,.09-.22-.49-.73-1.7-1.05-1.19-.32-3.02-.38-4.85,.34-1.83,.72-3.11,1.99-3.73,3.02-.63,1.04-.69,1.81-.46,1.9Z"/>
            <path class="cls-10" d="M155.67,84.65c-.05-.17-2,.22-5.11,.98-.78,.21-1.55,.34-1.87-.12-.39-.47-.38-1.4-.36-2.42,0-2.09,0-4.28,.01-6.58-.06-9.33-.41-16.89-.79-16.88-.38,0-.63,7.57-.57,16.91,.03,2.29,.06,4.48,.1,6.57,.05,.96-.07,2.12,.75,3.1,.42,.48,1.13,.68,1.66,.62,.54-.04,.96-.19,1.34-.32,3.04-.99,4.9-1.69,4.85-1.86Z"/>
            <path class="cls-10" d="M152.98,49.15c.69,.6,3.24-1.3,6.68-2.71,3.42-1.49,6.55-2,6.6-2.91,.01-.43-.84-.88-2.29-1.01-1.45-.14-3.5,.1-5.55,.97-2.06,.87-3.66,2.17-4.57,3.31-.92,1.14-1.19,2.06-.87,2.35Z"/>
            <path class="cls-10" d="M124.92,59.84c.86,.44,3.01-1.14,5.9-2.24,2.85-1.19,5.51-1.52,5.82-2.43,.12-.43-.51-.96-1.82-1.2-1.29-.24-3.25-.11-5.22,.68-1.97,.79-3.47,2.03-4.22,3.09-.77,1.07-.85,1.89-.46,2.11Z"/>
            <path class="cls-4" d="M192.94,56.75c.27-.27,11.65-8.97,16.28,4.28,4.64,13.24-9.62,15.17-9.77,14.8-.16-.37-6.51-19.07-6.51-19.07Z"/>
            <path class="cls-6" d="M201.74,69.39c.04-.06,.29,.08,.74,.12,.44,.04,1.14-.07,1.74-.57,1.22-1,1.62-3.64,.85-6.05-.39-1.22-1.04-2.28-1.8-3.08-.74-.83-1.61-1.29-2.36-1.16-.76,.08-1.11,.68-1.14,1.11-.05,.43,.13,.67,.07,.71-.02,.05-.36-.12-.45-.71-.04-.28,0-.65,.23-1.01,.23-.37,.65-.67,1.16-.78,1.05-.29,2.29,.33,3.13,1.21,.89,.86,1.66,2.04,2.09,3.41,.85,2.7,.36,5.67-1.36,6.9-.85,.57-1.72,.56-2.23,.39-.52-.18-.7-.46-.66-.5Z"/>
            <path class="cls-10" d="M165.66,83.32c-.47,.13,.55,3.18-1.34,6.23-1.88,3.05-5.26,3.8-5.14,4.23,.02,.21,.92,.35,2.31-.07,1.36-.4,3.19-1.5,4.35-3.36,1.15-1.87,1.24-3.87,.93-5.16-.31-1.32-.91-1.96-1.11-1.87Z"/>
          </g>
          <g>
            <path class="cls-10" d="M88.31,53.18c-.06-.85,.28-1.69,.83-2.35,1.2-1.43,2.99-1.93,4.67-2.55,4.18-1.55,7.96-4.09,11.04-7.31-1.54-.2-3.04-.58-4.44-1.25-2.89-1.38-5.27-4.21-5.3-7.42,0-.6,.11-1.27,.59-1.63,.77-.57,1.82,.01,2.65,.47,2.75,1.51,4.9,1.81,7.74,.48,1.76-.83,3.39-1.86,4.51-3.26,.04-.08,.06-.16,.1-.24,.44-.95,.87-1.87,1.3-2.76,0,0,0,0,0,0h0c3.24-6.69,6.32-11.62,10.1-14.95C127.64,5.54,138.07,.68,145.43,.07c7.36-.61,15.34,2.73,18.71,9.3,2.65-4.53,8.34-6.5,13.59-6.27l.1-.09c5.77,.02,10.59,4.41,13.94,9.1,.18,.26,.36,.52,.54,.78,2.7,2.14,5.88,3.66,9.27,4.31,.6,.11,1.29,.27,1.55,.82,.26,.54-.05,1.18-.4,1.67-.92,1.31-2.15,2.4-3.54,3.19,.91,1.08,1.88,2.09,2.97,3,.92,.78,2.02,1.71,1.88,2.9-.11,.93-1,1.6-1.92,1.78-.91,.18-1.86-.03-2.77-.24,1.05,1.17,2.11,2.33,3.16,3.5-1.74,.98-3.71,1.5-5.71,1.59,.63,5.27,3,14.61,2.91,18.37-3.49,1.3-4.48,1.22-6.04,2.43-2.02,1.57,.28,5.32-3.11,5.21-1.73-.05-6.08-4.99-7.14-6.35-6.99-9.07-11.98-19.67-14.54-30.84-2.92-1.51-6.13-2.46-9.41-2.77l.3,.13c-6.07,.03-12.85,.33-17.09,4.68-3.29,3.37-4.17,8.33-5.99,12.68-3.44,8.24-8.65,13.82-16.94,17.15,1.3,6.11,4.44,15.75,6.08,21.3l-8.5-9.27v.04c-.59-.51-1.13-1.04-1.66-1.58l-.17-.16v-.03c-.85-.87-1.67-1.75-2.63-2.56-.01,.02-.02,.04-.04,.07-2.04,3.65-7.79,1.2-6.58-2.8,.24-.79,.6-1.55,1.06-2.24-.9,1.74-2.7,3.06-4.66,3.14-1.96,.08-3.97-1.23-4.46-3.13-.34-1.3,.16-2.74,1.13-3.64-2.32,1.02-4.95,1.36-7.44,.91-1.64-.3-3.43-1.11-3.57-2.99Z"/>
            <path class="cls-3" d="M158.82,13.74c-.02,.06,.99,.23,2.57,1.09,1.56,.86,3.59,2.61,5.24,5.38,.83,1.37,1.6,2.96,2.23,4.75,.64,1.78,1.17,3.74,1.74,5.8,.58,2.06,1.18,4.24,2.09,6.4,.45,1.08,.98,2.16,1.62,3.2,.63,1.02,1.34,2.11,2.51,2.77,.94,.54,2.17,.49,3.06-.04,.91-.51,1.59-1.33,1.97-2.26,.73-1.89,.4-3.85,.13-5.58l-.39,.19c1.18,1.23,2.37,2.43,3.79,3.23,1.4,.81,3.05,1.09,4.49,.72,.72-.18,1.38-.54,1.87-1.05,.51-.51,.77-1.17,.89-1.82,.1-.65,.04-1.3-.19-1.86-.24-.56-.65-1.03-1.15-1.29l-.14,.26c2.09,1.18,3.99,1.53,5.26,1.66,.64,.06,1.13,.06,1.47,.05,.33-.02,.5-.04,.5-.05,0-.01-.17-.02-.5-.03-.33-.02-.82-.04-1.45-.12-1.25-.17-3.11-.57-5.13-1.75l-.14,.25c.9,.46,1.36,1.66,1.14,2.83-.11,.58-.36,1.17-.81,1.61-.44,.45-1.05,.77-1.71,.93-1.33,.32-2.87,.06-4.18-.72-1.34-.77-2.5-1.94-3.67-3.17l-.5-.52,.11,.72c.26,1.73,.56,3.62-.12,5.33-.34,.83-.97,1.57-1.76,2.02-.79,.46-1.79,.5-2.6,.04-1.02-.56-1.71-1.59-2.33-2.6-.62-1.01-1.14-2.07-1.59-3.13-.9-2.13-1.51-4.29-2.1-6.34-.58-2.06-1.13-4.02-1.79-5.82-.65-1.8-1.46-3.41-2.32-4.79-1.71-2.79-3.82-4.54-5.44-5.37-1.63-.83-2.66-.93-2.66-.93Z"/>
            <path class="cls-3" d="M105.54,53.7s.07,.03,.2,.08c.16,.05,.36,.11,.61,.18,.27,.08,.6,.17,1.01,.24,.4,.07,.87,.17,1.4,.21,2.1,.22,5.28,.05,8.82-1.43,3.5-1.46,7.34-4.24,10.17-8.44,2.89-4.15,4.84-9.44,5.96-15.11,.58-2.84,.88-5.65,1.37-8.32,.48-2.67,1.14-5.21,2.25-7.42,1.09-2.22,2.59-4.1,4.39-5.35,.89-.64,1.86-1.06,2.82-1.38,.97-.29,1.95-.41,2.88-.43,1.87-.03,3.54,.42,4.9,1.01,1.36,.6,2.41,1.37,3.18,2.06,1.51,1.47,1.96,2.6,2.02,2.55,0,0-.02-.07-.09-.2-.08-.15-.18-.34-.3-.56-.28-.49-.77-1.16-1.51-1.93-.77-.73-1.82-1.54-3.21-2.18-1.38-.63-3.08-1.11-5.01-1.1-.96,0-1.97,.13-2.98,.42-1,.31-2.02,.75-2.95,1.4-1.87,1.28-3.43,3.22-4.56,5.48-1.15,2.26-1.83,4.85-2.32,7.54-.49,2.69-.8,5.49-1.38,8.31-1.11,5.63-3.03,10.86-5.86,14.96-2.76,4.15-6.5,6.89-9.94,8.38-3.46,1.5-6.59,1.72-8.67,1.56-2.1-.17-3.21-.58-3.23-.52Z"/>
            <path class="cls-3" d="M100.78,45.81s.3,.12,.87,.24c.56,.13,1.39,.25,2.43,.32,1.03,.08,2.27,.06,3.63-.08,1.36-.16,2.85-.44,4.36-.92,1.51-.49,2.89-1.11,4.09-1.76,1.19-.68,2.22-1.37,3.02-2.03,.8-.65,1.41-1.22,1.8-1.66,.39-.43,.59-.67,.57-.69-.07-.06-.94,.86-2.58,2.08-.81,.62-1.84,1.27-3.02,1.91-1.19,.62-2.55,1.22-4.03,1.69-1.48,.46-2.93,.75-4.27,.93-1.34,.16-2.55,.21-3.57,.18-2.04-.05-3.29-.31-3.3-.22Z"/>
          </g>
        </g>
        <path class="cls-10" d="M137.05,184.43c-.17,.05,2.09,11.4,4.31,23.18h.7c-2.22-11.77-4.84-23.23-5.02-23.18Z"/>
        <path class="cls-3" d="M146.63,208.18c6.42,0,12.33-4.62,13.22-10.92,2.02-14.15,10.09-38.1,44.12-38.68,25.93-.44,36.84,17.91,39.9,26.07,4.85,12.96,4.25,28.69-3.63,41.57-12.1,19.79-34.36,22.82-46.56,22.87-14.02,.05-25.43,11.34-25.43,25.17v52.86l70.23-1.32v-13.2c0-.24,.15-.46,.39-.54,8.55-2.98,22.12-8.62,37.38-20.93l-4.57-60.88s13.37-25.69,12.7-31.47c-6.05-52.8-24.01-82.68-31.31-85.47-8.2-3.13-39.83-1.6-39.83-1.6,0,0-13.66,25.32-32.84,28.12-10.67,1.56-14.56-11.76-14.56-11.76l-24.78,14.53c-17.63,8.9-21.06,43.5-21.38,65.57h26.93Z"/>
        <g class="cls-8">
          <path d="M228.02,239.28c14.16,3.6,28.11,8.16,42.27,11.77,1.05,.27,2.17,.58,2.88,1.4,1.04,1.21,.81,3.04,.34,4.56-1.49,4.87-4.7,9.07-8.52,12.43-3.08,2.71-6.77,4.99-10.86,5.31-4.55,.36-8.93-1.76-12.78-4.21-9.84-6.28-18.24-15.46-23.52-25.87,0,0,3.32-1.37,5.86-2.72,2.36-1.26,4.33-2.66,4.33-2.66Z"/>
        </g>
        <path class="cls-4" d="M243.58,185.02c5.66,13.06,4.23,28.55-3.84,41.43-4.48,7.15-10.18,12.26-16.39,15.68,6.7,7.28,13.49,13.7,20.21,18.47,7.23,5.13,23.9,3.67,30.22-7.56,7.8-13.86,8.45-49.27,8.45-49.27l1.48-21.35-43.6-6.68-.35,1.2c1.87,2.8,2.97,6.11,3.83,8.07Z"/>
        <path class="cls-3" d="M167.67,176.05l-2.48,3.91c-1.89,1.3-3.68,.59-4.85-1.83l-26.84-40.85,6.54-4.16,29.64,39.17s.42,2.08-2.01,3.75Z"/>
        <g>
          <g>
            <path class="cls-10" d="M105.66,136.58c-5.25-2.96-9.66-7.54-12.39-13.41-3.36-7.24-3.7-15.35-.95-22.85s8.24-13.47,15.48-16.83c14.94-6.93,32.74-.42,39.68,14.53h0c3.36,7.24,3.7,15.35,.95,22.85-2.74,7.49-8.24,13.47-15.48,16.83-9.07,4.21-19.19,3.46-27.29-1.11Zm28.44-50.24c-7.56-4.27-17-4.96-25.46-1.04-6.75,3.13-11.88,8.71-14.44,15.7s-2.24,14.56,.89,21.32c3.13,6.76,8.71,11.88,15.7,14.44,6.99,2.56,14.56,2.24,21.32-.89,6.75-3.13,11.88-8.71,14.44-15.7,2.56-6.99,2.24-14.56-.89-21.32-2.54-5.48-6.66-9.75-11.56-12.52Z"/>
            <path class="cls-3" d="M106.94,135.32c-5.25-2.96-9.66-7.54-12.39-13.41-3.36-7.24-3.7-15.35-.95-22.85,2.74-7.49,8.24-13.47,15.48-16.83,14.94-6.93,32.74-.42,39.68,14.53h0c3.36,7.24,3.7,15.35,.95,22.85-2.74,7.49-8.24,13.47-15.48,16.83-9.07,4.2-19.19,3.46-27.29-1.11Zm28.44-50.24c-7.56-4.27-17-4.96-25.46-1.04-6.75,3.13-11.88,8.71-14.44,15.7s-2.24,14.56,.89,21.32c3.13,6.76,8.71,11.88,15.7,14.44,6.99,2.56,14.56,2.24,21.32-.89,6.75-3.13,11.88-8.71,14.44-15.7,2.56-6.99,2.24-14.56-.89-21.32-2.54-5.48-6.65-9.75-11.56-12.52Z"/>
          </g>
          <path class="cls-1" d="M146.5,109.75s-.02-.17-.03-.49c-.02-.32,.01-.79-.06-1.4-.07-1.21-.34-2.97-.99-5.04-.32-1.04-.77-2.14-1.31-3.3-.58-1.14-1.22-2.35-2.04-3.53-.8-1.19-1.73-2.39-2.81-3.52-1.07-1.14-2.25-2.25-3.59-3.23-1.33-.99-2.73-1.81-4.14-2.48-1.42-.65-2.85-1.14-4.23-1.51-2.79-.7-5.4-.89-7.56-.77-2.17,.12-3.91,.46-5.08,.79-.6,.13-1.04,.31-1.35,.39-.31,.09-.47,.14-.48,.12,0,0,.15-.07,.45-.19,.3-.1,.74-.3,1.34-.45,1.17-.36,2.91-.74,5.1-.89,2.19-.16,4.83,.01,7.65,.71,1.4,.37,2.85,.86,4.29,1.52,1.43,.68,2.85,1.51,4.2,2.51,1.35,.99,2.55,2.12,3.62,3.28,1.09,1.15,2.01,2.36,2.82,3.57,.83,1.19,1.46,2.42,2.04,3.58,.53,1.18,.98,2.29,1.29,3.35,.63,2.1,.87,3.88,.9,5.1,.05,.61,0,1.09,0,1.41-.01,.32-.02,.49-.03,.49Z"/>
          <path class="cls-1" d="M115.32,134.07c.02-.07,1.38,.43,3.69,.75,.29,.04,.59,.07,.9,.11,.31,.04,.65,.04,.99,.06,.68,.05,1.41,.02,2.17,0,1.53-.09,3.2-.32,4.91-.77,1.71-.47,3.27-1.11,4.64-1.8,.67-.37,1.32-.71,1.88-1.1,.28-.19,.57-.35,.82-.54,.25-.19,.49-.37,.73-.55,1.83-1.43,2.76-2.55,2.81-2.5,.02,.01-.21,.29-.65,.78-.21,.25-.49,.54-.83,.85-.34,.31-.71,.7-1.19,1.04-.23,.18-.47,.37-.72,.57-.25,.2-.54,.37-.82,.57-.56,.4-1.21,.75-1.89,1.14-1.38,.71-2.96,1.37-4.69,1.85-1.74,.46-3.43,.68-4.98,.76-.78,0-1.51,.03-2.2-.03-.34-.03-.68-.03-.99-.08-.32-.04-.62-.09-.91-.13-.58-.07-1.1-.21-1.55-.31-.46-.09-.84-.21-1.15-.32-.62-.2-.96-.32-.96-.35Z"/>
          <path class="cls-1" d="M135.88,114.94c-.06,.06-3.96-3.84-8.7-8.71-4.74-4.87-8.53-8.87-8.47-8.93,.06-.06,3.96,3.84,8.7,8.71,4.74,4.87,8.53,8.87,8.47,8.93Z"/>
          <path class="cls-1" d="M131.28,122.76s-.11-.09-.28-.28c-.2-.22-.45-.49-.77-.84-.68-.76-1.63-1.81-2.79-3.1-2.35-2.62-5.6-6.23-9.24-10.17-3.64-3.95-6.97-7.48-9.39-10.04-1.19-1.26-2.16-2.28-2.86-3.03-.32-.34-.57-.62-.77-.83-.17-.19-.26-.3-.25-.3s.11,.08,.3,.26c.21,.2,.48,.47,.81,.79,.7,.69,1.71,1.7,2.94,2.96,2.46,2.51,5.82,6.03,9.46,9.98,3.64,3.95,6.87,7.58,9.17,10.24,1.15,1.33,2.08,2.41,2.71,3.17,.3,.36,.54,.65,.72,.87,.16,.2,.24,.31,.24,.32Z"/>
          <g class="cls-8">
            <path class="cls-1" d="M106.92,86.17l36.68,39.85s-2.97,4.15-5.69,5.96l-37.46-40.78s2.7-3.25,6.46-5.03Z"/>
          </g>
          <g class="cls-8">
            <path class="cls-1" d="M97.3,95.79l36.08,38.82s.34,.18-2.15,.81l-34.95-37.66s.18-.94,1.02-1.97Z"/>
          </g>
        </g>
        <g>
          <path class="cls-4" d="M192.28,159.85c-7.71-6.19-26.59-21.32-27.45-21.73-1.09-.51-17.71-6.41-20.89-4.52-3.18,1.9-11.72,12.61-11.72,12.61,0,0,.81,6.66,8.26,1.9,5.68-3.64,6.56-4.2,6.66-4.27,0,0-.01,0-.01,0l7.91,1.85s-9.65,4.03-11.7,6.15c-2.04,2.12-5.27,10.24-3.26,12.11s4.35,2.03,4.35,2.03c0,0-3.99,5.66,3.08,9.08,0,0,1.03,4.76,4.52,6.62,3.49,1.86,9.98,1.21,9.98,1.21,0,0,3.01-1.78,.77-4.74s-6.37-3.36-6.37-3.36l5.12-2.99s2.66,.82,6.61,3.86c0,0,4.67-5.98,9.34-9.36,5.24-3.79,14.79-6.46,14.79-6.46Z"/>
          <path class="cls-6" d="M159.52,162.36s-.27-.02-.76,.04c-.49,.06-1.18,.2-2.02,.47-1.67,.52-3.9,1.68-5.74,3.67-1.83,1.99-2.8,4.32-3.18,6.02-.2,.86-.28,1.56-.3,2.05-.02,.49,0,.76,.02,.76,.07,0,.09-1.08,.54-2.75,.44-1.66,1.42-3.9,3.2-5.83,1.78-1.94,3.93-3.1,5.54-3.68,1.62-.59,2.71-.69,2.7-.77Z"/>
          <path class="cls-6" d="M159.86,153.75s-.29,0-.81,.06c-.26,.03-.58,.07-.94,.15-.36,.08-.78,.15-1.23,.29-.91,.24-1.96,.63-3.09,1.16-1.11,.55-2.29,1.25-3.44,2.12-1.13,.88-2.11,1.85-2.93,2.78-.8,.95-1.45,1.87-1.91,2.69-.25,.4-.43,.79-.6,1.12-.17,.33-.3,.63-.39,.87-.19,.49-.29,.76-.26,.77,.07,.03,.49-1.05,1.48-2.62,.49-.79,1.15-1.67,1.95-2.6,.82-.91,1.79-1.85,2.9-2.71,1.12-.85,2.41-1.82,3.5-2.37,1.1-.54,1.98-.68,2.87-.95,1.77-.55,2.92-.69,2.91-.76Z"/>
          <path class="cls-6" d="M161.3,143.86s-.39-.2-1.07-.24c-.68-.05-1.65,.06-2.62,.47-1.32,.56-1.78,1.11-2.16,1.56-.44,.52-.61,.92-.57,.94,.09,.08,1.01-1.38,2.88-2.16,1.85-.81,3.54-.46,3.55-.57Z"/>
        </g>
        <path class="cls-3" d="M250.01,112.52s24.39,2.34,32.13,23.53c6.14,16.82,9.48,67.21,7.94,68.23l-43.06-1.38c-.57-12.29-3.88-21.76-8.51-27.89l11.5-62.5Z"/>
        <path class="cls-6" d="M247.69,202.91s.32,.14,.85,.47c.53,.33,1.27,.84,2.16,1.5,1.79,1.31,4.16,3.28,6.55,5.68,2.4,2.4,4.36,4.77,5.7,6.53,.67,.88,1.2,1.61,1.54,2.13,.35,.52,.52,.81,.49,.83-.06,.05-.91-1.03-2.32-2.73-1.41-1.7-3.41-4.01-5.79-6.4-2.38-2.39-4.69-4.38-6.41-5.76-1.72-1.38-2.83-2.19-2.78-2.26Z"/>
        <path class="cls-10" d="M242.56,151.08c.14,.02-.65,5.4-1.77,12.01-1.12,6.61-2.14,11.95-2.28,11.93s.65-5.4,1.77-12.01c1.12-6.61,2.14-11.95,2.28-11.93Z"/>
        <path class="cls-10" d="M188.37,302.18s.24-.05,.71-.11c.52-.05,1.21-.12,2.06-.21,1.85-.17,4.42-.42,7.57-.72,6.39-.61,15.22-1.54,24.94-2.76,9.72-1.23,18.5-2.54,24.85-3.53,3.13-.5,5.68-.9,7.51-1.19,.85-.13,1.53-.23,2.05-.31,.47-.07,.72-.09,.72-.07,0,.02-.24,.08-.7,.18-.51,.1-1.19,.24-2.03,.41-1.76,.35-4.32,.81-7.49,1.36-6.33,1.09-15.11,2.45-24.84,3.69-9.73,1.23-18.57,2.09-24.97,2.61-3.2,.26-5.8,.45-7.59,.55-.86,.05-1.54,.08-2.07,.11-.47,.02-.72,.02-.72,0Z"/>
        <path class="cls-10" d="M184.56,295.74s.63-.09,1.77-.16c1.23-.07,2.86-.15,4.85-.26,4.17-.21,9.78-.5,15.98-.82,6.2-.36,11.81-.68,15.98-.93,1.98-.11,3.61-.2,4.84-.27,1.14-.06,1.78-.07,1.78-.03,0,.04-.63,.12-1.77,.24-1.14,.12-2.79,.27-4.83,.44-4.08,.34-9.73,.74-15.98,1.08-6.24,.34-11.9,.56-15.99,.67-2.05,.05-3.71,.09-4.85,.09-1.15,0-1.78,0-1.78-.04Z"/>
        <g>
          <g>
            <path class="cls-4" d="M115.97,204.57c.16-.61,.42-1.19,.78-1.71,.72-1.03,1.81-1.82,3.05-2.1,2.05-.47,4.35,.49,5.46,2.28-.07-1.36,1-2.63,2.32-2.99,1.32-.36,2.34,.15,3.39,1.02,1.05,.87,1.32,1.57,1.75,2.86,1.05-2.36,6.44-2.07,7.1-.3,0,0,4.64-5.08,7.01-2.58,.99,1.04,.56,2.63-.09,4.23-.87,2.13-1.45,3.02-2.59,5.36l-4.39,.24c-.37,1.38-1.15,6.97-1.31,8.38s-.45,2.85-1.2,4.06c-.75,1.21-2.06,2.15-3.48,2.14-1.42-.02-2.83-1.24-2.74-2.66-.3,1.17-.8,2.33-1.66,3.18s-2.15,1.34-3.32,1.03-2.1-1.53-1.87-2.72c-1.57,1.08-3.88,.12-4.88-1.5-.99-1.62-1.02-3.64-.96-5.55,.05-1.69,.21-3.58-.46-5.18-.1-.25-.29-.47-.35-.74-.09-.4-.03-.85-.06-1.25-.06-.88-.23-1.77-.53-2.6-.07-.18-.14-.36-.22-.54-.21-.47-.53-.87-.77-1.32-.05-.1-.1-.2-.11-.31-.03-.23,.07-.49,.12-.71Z"/>
            <path class="cls-4" d="M111.03,202.13c-1.17-.04-2.45,.2-3.24,1.08-.93,1.04-1.14,3.52-1.04,4.91,1.63,.31,2.5-.05,4.12,.25,.34,.07,.63-.02,.91,.18,.75,.53,.63,2.33,.93,3.2,.52,1.51,2.46,2.25,3.96,1.69s2.46-2.15,2.54-3.74c.08-1.6-.63-3.16-1.65-4.38-1.61-1.91-4.04-3.1-6.53-3.19Z"/>
          </g>
          <path class="cls-6" d="M138.76,216.92c-.17-.04,.5-3.02,.93-6.72,.2-1.85,.25-3.54,.18-4.76-.06-1.22-.21-1.96-.12-1.98,.06-.02,.33,.71,.49,1.95,.17,1.24,.18,2.96-.03,4.85-.2,1.88-.55,3.56-.84,4.76-.3,1.2-.53,1.93-.6,1.91Z"/>
          <path class="cls-6" d="M130.83,223.32c-.07-.02,.12-1.1,.43-2.84,.32-1.74,.76-4.15,1.1-6.82,.34-2.67,.46-5.11,.42-6.87-.03-1.76-.15-2.85-.07-2.86,.06,0,.32,1.07,.44,2.85,.13,1.78,.07,4.25-.27,6.95-.34,2.7-.85,5.1-1.26,6.83-.41,1.73-.73,2.78-.8,2.76Z"/>
          <path class="cls-6" d="M124.12,224.46c-.08-.02,.2-1.22,.55-3.16,.35-1.94,.74-4.65,.91-7.65,.16-3.01,.07-5.74-.07-7.71-.14-1.97-.28-3.19-.2-3.2,.04,0,.11,.29,.22,.84,.11,.54,.23,1.34,.35,2.33,.23,1.98,.38,4.73,.22,7.77-.17,3.04-.62,5.76-1.07,7.7-.22,.97-.43,1.75-.6,2.28-.17,.53-.28,.82-.31,.81Z"/>
          <path class="cls-6" d="M115.28,204.88c.02-.05,.6,.12,1.37,.69,.76,.57,1.68,1.59,2.22,2.97,.54,1.37,.58,2.77,.29,3.71-.29,.97-.9,1.3-.92,1.24-.06-.06,.39-.45,.56-1.33,.17-.86,.08-2.15-.42-3.43-.5-1.28-1.31-2.27-1.98-2.88-.67-.62-1.17-.9-1.13-.98Z"/>
        </g>
      </g>
    </g>
  </g>
</svg>