<?xml version="1.0" encoding="UTF-8"?>
<svg id="Layer_1" data-name="Layer 1" xmlns="http://www.w3.org/2000/svg" viewBox="0 0 440.05 433.64">
  <defs>
    <style>
      .cls-1 {
        fill: #fec853;
      }

      .cls-2, .cls-3, .cls-4, .cls-5, .cls-6, .cls-7, .cls-8, .cls-9, .cls-10, .cls-11, .cls-12, .cls-13 {
        isolation: isolate;
      }

      .cls-2, .cls-14, .cls-7, .cls-8, .cls-12 {
        opacity: .41;
      }

      .cls-2, .cls-15 {
        fill: #1f9874;
      }

      .cls-16, .cls-6, .cls-8 {
        fill: #fff;
      }

      .cls-3 {
        opacity: .22;
      }

      .cls-3, .cls-17 {
        fill: #ecedee;
      }

      .cls-18 {
        fill: #49bd97;
      }

      .cls-19 {
        fill: #c73c27;
      }

      .cls-20, .cls-4 {
        fill: #4d3529;
      }

      .cls-21, .cls-22 {
        stroke: #1f9874;
      }

      .cls-21, .cls-22, .cls-5, .cls-23, .cls-24, .cls-7, .cls-25, .cls-26, .cls-27, .cls-28, .cls-29, .cls-30 {
        fill: none;
        stroke-miterlimit: 10;
      }

      .cls-21, .cls-5, .cls-28 {
        stroke-width: 1.03px;
      }

      .cls-21, .cls-24, .cls-25, .cls-26, .cls-30 {
        stroke-linecap: round;
      }

      .cls-22 {
        stroke-width: 1.07px;
      }

      .cls-4 {
        opacity: .33;
      }

      .cls-31, .cls-11 {
        opacity: .36;
      }

      .cls-5 {
        opacity: .49;
      }

      .cls-5, .cls-25, .cls-28 {
        stroke: #4d3529;
      }

      .cls-6 {
        opacity: .26;
      }

      .cls-23, .cls-25 {
        stroke-width: .91px;
      }

      .cls-23, .cls-27, .cls-29 {
        stroke: #983533;
      }

      .cls-24 {
        stroke-width: 2.03px;
      }

      .cls-24, .cls-30 {
        stroke: #49bd97;
      }

      .cls-32 {
        fill: #ad843b;
      }

      .cls-33 {
        opacity: .16;
      }

      .cls-34 {
        fill: #a4a4a4;
      }

      .cls-35 {
        opacity: .53;
      }

      .cls-36 {
        fill: #187757;
      }

      .cls-37, .cls-9 {
        fill: #34251e;
      }

      .cls-7 {
        stroke: #34251e;
      }

      .cls-26 {
        stroke: #c73c27;
        stroke-width: 1.2px;
      }

      .cls-38 {
        opacity: .21;
      }

      .cls-39, .cls-12 {
        fill: #cfcfd0;
      }

      .cls-40, .cls-10 {
        fill: #c69a42;
      }

      .cls-9 {
        opacity: .2;
      }

      .cls-10 {
        opacity: .66;
      }

      .cls-11 {
        fill: #851619;
      }

      .cls-41 {
        fill: #f7a89c;
      }

      .cls-27 {
        stroke-width: 1.13px;
      }

      .cls-42 {
        fill: #d18e86;
      }

      .cls-43 {
        opacity: .32;
      }

      .cls-44 {
        fill: #983533;
      }

      .cls-29 {
        stroke-width: .87px;
      }

      .cls-13 {
        fill: #fefefe;
        opacity: .35;
      }

      .cls-45 {
        fill: #ef7d6e;
      }

      .cls-30 {
        stroke-width: 2.39px;
      }
    </style>
  </defs>
  <g id="OBJECTS">
    <g>
      <circle class="cls-13" cx="222.9" cy="215.92" r="184.82" transform="translate(-87.39 220.85) rotate(-45)"/>
      <g>
        <g>
          <g>
            <ellipse class="cls-40" cx="71.84" cy="429.63" rx="71.84" ry="4.01"/>
            <polygon class="cls-15" points="102.45 285.23 102.45 423.01 68.41 423.01 72.1 319.14 59.4 423.01 25.38 423.01 51.54 285.23 102.45 285.23"/>
            <path class="cls-39" d="M59.63,198.64l-.73,.26c-7.1,2.55-12.24,8.79-13.39,16.25l-5.5,35.9,15.24-5.49,4.38-46.91Z"/>
            <polygon class="cls-42" points="44.54 221.53 40.01 251.05 55.25 245.56 57.29 223.71 44.54 221.53"/>
            <polygon class="cls-16" points="82.62 194.27 102.45 203.05 102.45 285.23 51.54 285.23 59.63 198.64 82.62 194.27"/>
            <path class="cls-19" d="M71.44,169.11s-.21-2.54,1.32-4.16c1.54-1.63,7.86-4.25,13.74-.72,5.87,3.52,8.85,8.76,6.05,18.88-2.35,6.6-6.18,8.32-6.18,8.32l-7.9-11.12-7.04-11.2Z"/>
            <path class="cls-34" d="M78.12,212.35l-11.7,43.31c-1.58,5.86-5.73,10.7-11.29,13.15l-2.14,.95,4.19-44.9,20.94-12.5Z"/>
            <path class="cls-34" d="M102.45,262.14s-15.23,1.27-15.23,23.09h15.23v-23.09Z"/>
            <path class="cls-41" d="M71.51,168.7s-1.96,11.12-1.8,18.45c.02,.98,.8,1.77,1.78,1.84l6.61,.46-1.23,7.27c-.41,2.4,1.44,4.59,3.88,4.59h1.18c2.04,0,3.75-1.57,3.92-3.6l1.41-16.58s-14.31-5.69-15.74-12.42Z"/>
            <circle class="cls-41" cx="86.86" cy="180.94" r="3.43"/>
            <path class="cls-19" d="M73.67,178.77c-.09,.97-.44,1.73-.79,1.7s-.56-.84-.47-1.81c.09-.97,.44-1.73,.79-1.7,.35,.03,.56,.84,.47,1.81Z"/>
            <path class="cls-26" d="M72.39,175.16s1.64-.27,2.46,.81"/>
            <path class="cls-20" d="M78.09,189.44h3.72s-2.38,7.19-5.05,7.89l1.33-7.89Z"/>
            <path class="cls-41" d="M102.45,203.05l4.16,2.04c5.87,2.88,10.54,7.74,13.19,13.71l16.66,37.58c3.18,7.17-.25,15.55-7.55,18.42l-26.46,10.42h-3.93c-3.04,0-5.51-2.47-5.51-5.51v-8.92c0-2.28,1.41-4.33,3.54-5.14l17.09-6.54-13.63-29.34s-4.09-24.33,2.43-26.73Z"/>
            <path class="cls-20" d="M68.41,423.01s-3.07-.48-4.5,5.23h38.53v-5.23h-34.04Z"/>
            <path class="cls-20" d="M25.24,423.01s-3.07-.48-4.5,5.23H59.28v-5.23H25.24Z"/>
            <path class="cls-39" d="M119.79,218.8c-2.65-5.98-7.32-10.83-13.19-13.71l-4.16-2.04c-6.53,2.39-2.43,26.73-2.43,26.73l4.72,10.16c5.02-3.04,12.73-6.87,20.94-7.87l-5.88-13.25Z"/>
            <path class="cls-45" d="M125.67,265.76c0,3.53,1.81,6.63,4.55,8.44,6.39-3.31,9.22-11.1,6.24-17.83l-.32-.71c-.12,0-.23-.02-.35-.02-5.59,0-10.12,4.53-10.12,10.12Z"/>
            <rect class="cls-8" x="90.56" y="285.23" width="11.89" height="137.79"/>
            <path class="cls-15" d="M72.06,320.43s-17.06,36.34-23.41,102.58h10.75l12.66-102.58Z"/>
            <polygon class="cls-15" points="51.54 285.23 102.45 297.01 102.45 285.23 51.54 285.23"/>
            <path class="cls-15" d="M72.06,320.43v-35.2h-8.15s-1,28.03,8.15,35.2Z"/>
            <path class="cls-2" d="M35.9,378.03c8.37,0,15.16-6.79,15.16-15.16,0-7.1-4.89-13.04-11.47-14.69l-5.64,29.71c.64,.08,1.29,.14,1.95,.14Z"/>
            <g class="cls-14">
              <path class="cls-15" d="M72.06,347.71c-.33,0-.65,.03-.97,.05l-1.07,30.11c.67,.09,1.35,.15,2.04,.15,8.37,0,15.16-6.79,15.16-15.16s-6.79-15.16-15.16-15.16Z"/>
            </g>
            <path class="cls-8" d="M96.55,265.66c-2.13,.82-3.54,2.86-3.54,5.14v8.92c0,3.04,2.47,5.51,5.51,5.51h3.93c0-18.2-5.89-19.57-5.89-19.57Z"/>
            <path class="cls-8" d="M119.79,218.8c-2.15-4.85-5.65-8.94-10.02-11.86-.51,8.11-.52,23.6,5.55,34.1,7.7,13.32,13.95,25.56,20.23,28.19,2.31-3.74,2.83-8.52,.9-12.86l-16.66-37.58Z"/>
            <path class="cls-11" d="M72.76,164.94c-1.54,1.63-1.32,4.16-1.32,4.16-.35,2.06-1.87,11.53-1.73,18.04,.02,.98,.8,1.77,1.78,1.84l3.59,.25c8.55-7.39,3.85-25.13,3.42-26.65-2.74,.35-4.92,1.49-5.73,2.36Zm-.92,4.81l1.55,2.47c-.67-.8-1.2-1.62-1.55-2.47Z"/>
            <path class="cls-41" d="M69.6,185.86l-28.65,61.88c-1.97,4.26-.74,9.31,2.98,12.18l.17,.13c5.21,4.02,12.8,2.04,15.39-4.01l18.65-43.69c1.37-3.18,.6-6.88-1.94-9.24l-4.8-4.46,1.25-11.94c.07-.62-.24-1.23-.79-1.54h-.02c-.81-.48-1.84-.15-2.23,.69Z"/>
            <path class="cls-45" d="M58.01,258.43c-2.49-5.57-8.07-9.46-14.57-9.46-1.05,0-2.07,.11-3.07,.3-1.08,3.89,.26,8.12,3.54,10.64l.17,.13c4.44,3.43,10.6,2.48,13.93-1.61Z"/>
            <path class="cls-8" d="M86.5,164.22c-1.71-1.03-3.46-1.52-5.12-1.68,1.6,5.02,5.09,12.43,12.16,15.23,.54-6.74-2.31-10.7-7.05-13.55Z"/>
            <line class="cls-27" x1="113.64" y1="259.11" x2="120.86" y2="255.65"/>
            <line class="cls-27" x1="93.01" y1="272.37" x2="97.73" y2="274.2"/>
            <line class="cls-27" x1="93.01" y1="277.54" x2="97.73" y2="279.38"/>
            <path class="cls-34" d="M100.01,229.77s-2.57,20.04,2.43,25.88l.76-18.99-3.2-6.88Z"/>
            <path class="cls-12" d="M91.23,221.49s-13.14,39.2-21.21,44.71c-8.07,5.51,12.96,3.86,18.11-15.14,5.16-19.01,3.1-29.56,3.1-29.56Z"/>
            <path class="cls-8" d="M76.18,203.11l-4.8-4.46s-18.13,28.44-8.72,49.92l15.46-36.22c1.37-3.18,.6-6.88-1.94-9.24Z"/>
          </g>
          <g>
            <path class="cls-40" d="M51.46,84.61c7.48-8.65,17.09-13.78,27.77-13.78,14.21,0,25.42,7.48,25.42,21.9s-16.98,17.3-16.98,23.71v5.87h-19.76l-.11-8.54c0-9.83,16.98-15.38,16.98-21.25,0-4.06-4.17-5.02-7.9-5.02-4.59,0-10.25,4.49-13.89,8.76l-11.53-11.64Zm25.74,40.37c7.58,0,12.71,5.23,12.71,11.32s-4.91,11-12.71,11c-6.94,0-12.18-5.45-12.18-11s4.49-11.32,12.18-11.32Z"/>
            <path class="cls-16" d="M53.93,84.61c7.48-8.65,17.09-13.78,27.77-13.78,14.21,0,25.42,7.48,25.42,21.9s-16.98,17.3-16.98,23.71v5.87h-19.76l-.11-8.54c0-9.83,16.98-15.38,16.98-21.25,0-4.06-4.17-5.02-7.9-5.02-4.59,0-10.25,4.49-13.89,8.76l-11.53-11.64Zm25.74,40.37c7.58,0,12.71,5.23,12.71,11.32s-4.91,11-12.71,11c-6.94,0-12.18-5.45-12.18-11,0-5.34,4.49-11.32,12.18-11.32Z"/>
            <polygon class="cls-40" points="63 96.25 65.46 96.25 62.95 93.72 63 96.25"/>
          </g>
        </g>
        <g>
          <g class="cls-35">
            <path class="cls-16" d="M129.62,32.45c5.72-6.62,13.07-10.54,21.24-10.54,10.86,0,19.44,5.72,19.44,16.74s-12.99,13.23-12.99,18.13v4.49h-15.11l-.08-6.53c0-7.51,12.99-11.76,12.99-16.25,0-3.1-3.18-3.84-6.04-3.84-3.51,0-7.84,3.43-10.62,6.7l-8.82-8.9Zm19.68,30.87c5.8,0,9.72,4,9.72,8.66s-3.76,8.41-9.72,8.41c-5.31,0-9.31-4.17-9.31-8.41s3.43-8.66,9.31-8.66Z"/>
          </g>
          <g class="cls-31">
            <path class="cls-16" d="M286.35,94.1c5.06-5.86,11.57-9.33,18.8-9.33,9.62,0,17.21,5.06,17.21,14.83s-11.5,11.72-11.5,16.06v3.98h-13.38l-.07-5.79c0-6.65,11.5-10.41,11.5-14.39,0-2.75-2.82-3.4-5.35-3.4-3.11,0-6.94,3.04-9.4,5.93l-7.81-7.89Zm17.43,27.34c5.14,0,8.61,3.54,8.61,7.67s-3.33,7.45-8.61,7.45c-4.7,0-8.24-3.69-8.24-7.45s3.04-7.67,8.24-7.67Z"/>
          </g>
          <g class="cls-38">
            <path class="cls-16" d="M313.14,6.61c3.58-4.15,8.19-6.61,13.32-6.61,6.81,0,12.19,3.59,12.19,10.5s-8.14,8.3-8.14,11.37v2.82h-9.47l-.05-4.1c0-4.71,8.14-7.38,8.14-10.19,0-1.95-2-2.41-3.79-2.41-2.2,0-4.92,2.15-6.66,4.2l-5.53-5.58Zm12.34,19.36c3.64,0,6.1,2.51,6.1,5.43s-2.36,5.28-6.1,5.28c-3.33,0-5.84-2.61-5.84-5.28,0-2.56,2.15-5.43,5.84-5.43Z"/>
          </g>
          <g class="cls-38">
            <path class="cls-16" d="M413.18,120.98c2.41-2.79,5.52-4.45,8.96-4.45,4.58,0,8.2,2.41,8.2,7.07s-5.48,5.59-5.48,7.65v1.9h-6.38l-.04-2.76c0-3.17,5.48-4.96,5.48-6.86,0-1.31-1.35-1.62-2.55-1.62-1.48,0-3.31,1.45-4.48,2.83l-3.72-3.76Zm8.31,13.03c2.45,0,4.1,1.69,4.1,3.65s-1.59,3.55-4.1,3.55c-2.24,0-3.93-1.76-3.93-3.55,0-1.72,1.45-3.65,3.93-3.65Z"/>
          </g>
          <g class="cls-43">
            <path class="cls-16" d="M46.31,16.19c3.95-4.57,9.03-7.28,14.67-7.28,7.5,0,13.43,3.95,13.43,11.56s-8.97,9.14-8.97,12.52v3.1h-10.43l-.06-4.51c0-5.19,8.97-8.12,8.97-11.22,0-2.14-2.2-2.65-4.17-2.65-2.43,0-5.42,2.37-7.33,4.62l-6.09-6.15Zm13.59,21.32c4,0,6.71,2.76,6.71,5.98s-2.6,5.81-6.71,5.81c-3.67,0-6.43-2.88-6.43-5.81s2.37-5.98,6.43-5.98Z"/>
          </g>
          <g class="cls-33">
            <path class="cls-16" d="M21.35,85.04c2.65-3.07,6.06-4.89,9.85-4.89,5.04,0,9.01,2.65,9.01,7.76s-6.02,6.14-6.02,8.41v2.08h-7.01l-.04-3.03c0-3.49,6.02-5.45,6.02-7.54,0-1.44-1.48-1.78-2.8-1.78-1.63,0-3.64,1.59-4.92,3.11l-4.09-4.13Zm9.13,14.32c2.69,0,4.51,1.86,4.51,4.02s-1.74,3.9-4.51,3.9c-2.46,0-4.32-1.93-4.32-3.9,0-1.89,1.59-4.02,4.32-4.02Z"/>
          </g>
        </g>
        <g>
          <g>
            <path class="cls-40" d="M331.73,67.14c9.56-11.06,21.85-17.62,35.51-17.62,18.16,0,32.5,9.56,32.5,28s-21.71,22.12-21.71,30.32v7.51h-25.26l-.14-10.93c0-12.56,21.71-19.67,21.71-27.18,0-5.19-5.33-6.42-10.11-6.42-5.87,0-13.11,5.74-17.75,11.2l-14.75-14.89Zm32.91,51.62c9.7,0,16.25,6.69,16.25,14.48s-6.28,14.07-16.25,14.07c-8.88,0-15.57-6.96-15.57-14.07,0-6.83,5.74-14.48,15.57-14.48Z"/>
            <path class="cls-16" d="M334.88,67.14c9.56-11.06,21.85-17.62,35.51-17.62,18.16,0,32.5,9.56,32.5,28s-21.71,22.12-21.71,30.32v7.51h-25.26l-.14-10.93c0-12.56,21.71-19.67,21.71-27.18,0-5.19-5.33-6.42-10.11-6.42-5.87,0-13.11,5.74-17.75,11.2l-14.75-14.89Zm32.91,51.62c9.7,0,16.25,6.69,16.25,14.48s-6.28,14.07-16.25,14.07c-8.88,0-15.57-6.96-15.57-14.07,0-6.83,5.73-14.48,15.57-14.48Z"/>
            <polygon class="cls-40" points="346.48 82.03 349.63 82.03 346.42 78.79 346.48 82.03"/>
          </g>
          <g>
            <ellipse class="cls-40" cx="370.97" cy="429.79" rx="69.08" ry="3.85"/>
            <path class="cls-34" d="M384.5,277.82l20.3,63.05c2.61,8.09,.7,16.96-5,23.27l-45.43,50.31s-.13,14.41-11.66,16.33l-6.72-43.22,41.74-38.9,6.76-70.83Z"/>
            <path class="cls-4" d="M385.45,280.78s10.35,76.76,0,99.25c-8.4-19.64-4.87-94.61,0-99.25Z"/>
            <path class="cls-17" d="M352.32,279.15s-11.05,22.92-1.44,87.27l9.61,64.35h41.75s-3.26-14.41-14.82-16.81c-10.15-100.1-2.34-117.15-2.92-136.15-22.57-2.16-32.18,1.34-32.18,1.34Z"/>
            <path class="cls-20" d="M360.49,430.77h41.75s-3.26-14.41-14.82-16.81h-29.44q2.51,16.81,2.51,16.81Z"/>
            <path class="cls-20" d="M336,387.55l6.72,43.22c11.52-1.92,11.66-16.33,11.66-16.33l-6.6-37.87-11.78,10.98Z"/>
            <g class="cls-14">
              <path class="cls-16" d="M384.5,277.82c-1.84-.18-3.58-.31-5.25-.42l-9.84,.42s-10.74,104.16,18,136.15c-10.15-100.1-2.34-117.15-2.92-136.15Z"/>
              <path class="cls-16" d="M387.42,413.96c3.16,3.52,5.91,4.95,8.31,4.7-2.11-2.17-4.83-3.98-8.31-4.7Z"/>
            </g>
            <path class="cls-15" d="M381.09,176.65s-5.26-3.98-11.68-2.59c-6.41,1.38-15.07,9.35-15.93,27.69s2.25,24.57,5.88,24.57,12.81-19.21,12.81-19.21l3.72-17.83s5.29-9.87,5.19-12.63Z"/>
            <path class="cls-15" d="M369.41,174.06c-6.41,1.38-15.07,9.35-15.93,27.69-.49,10.44,.31,16.96,1.76,20.63,1.31-.63,2.1-1.99,1.65-4.59-1.46-8.35,1.68-27.17,8.92-33.86,4.32-3.99,5.86-7.76,6.41-10.15-.9,0-1.84,.07-2.8,.28Z"/>
            <path class="cls-19" d="M369.41,205.06l-18.53,11.31,1.44,62.78s13.93,4.43,32.18-1.34l-1.2-34.82s4.56-5.02,4.08-16.68c-.48-11.65-4.46-18.95-4.46-18.95l-7.03-2.38-6.48,.07Z"/>
            <g>
              <path class="cls-41" d="M350.88,216.37s6,1.65,6,11.62v30.12h41.54v3.18c0,5.27-4.27,9.55-9.55,9.55h-39.76c-3.53,0-6.4-2.86-6.4-6.4v-37.01s.96-7.95,8.17-11.05Z"/>
              <line class="cls-29" x1="356.89" y1="258.11" x2="351.86" y2="258.11"/>
            </g>
            <path class="cls-9" d="M371.1,209.28l-.09-4.24-1.6,.02-18.53,11.31c-7.2,3.1-8.17,11.05-8.17,11.05v37.01c0,1.16,.32,2.25,.86,3.19,5.36-9.6,3.6-37.65,4.96-41.3,1.65-4.43,22.57-17.04,22.57-17.04Z"/>
            <path class="cls-41" d="M381.09,176.65s7.01,7.06,4.38,21.65l-7.59,1.17v16.9s-8.46-1.32-8.46-9.26v-18.98s9.34-3.95,11.68-11.48Z"/>
            <path class="cls-28" d="M380.83,186.52s-2.77-.17-4.85,.87"/>
            <path class="cls-20" d="M377.88,199.47l-4.49,.72s2.08,5.89,5.02,6.92l-.52-7.64Z"/>
            <circle class="cls-41" cx="368.02" cy="191.54" r="4.15"/>
            <path class="cls-21" d="M380.83,183.06s-3.07-.54-4.85,.88"/>
            <polygon class="cls-37" points="356.89 225.15 362.89 258.11 356.89 258.11 356.89 225.15"/>
            <path class="cls-8" d="M383.3,243s-15.21,9.88-12.73,9.88,13.01-1.72,13.01-1.72l-.28-8.16Z"/>
            <path class="cls-6" d="M374.2,173.92c-.7,5.74-1.55,19.14,4.57,25.41,.93-.14,2.82-.43,6.69-1.03,2.63-14.59-4.38-21.65-4.38-21.65,0,0-2.84-2.14-6.89-2.73Z"/>
            <path class="cls-20" d="M370.57,196.67c0,1.18-.96,2.14-2.14,2.14s-2.14-.96-2.14-2.14,.96-2.14,2.14-2.14c1.18,0,2.14,.96,2.14,2.14Z"/>
            <path class="cls-1" d="M391.57,417.51c0,.65-.53,1.18-1.18,1.18h-18.23c-.65,0-1.18-.53-1.18-1.18h0c0-.65,.53-1.18,1.18-1.18h18.23c.65,0,1.18,.53,1.18,1.18h0Z"/>
            <path class="cls-5" d="M359.89,279.85s-7.25,70.55,7.33,136.48"/>
            <path class="cls-20" d="M385.75,189.7l-1.9,.48s1.84,1.21,1.9-.48Z"/>
            <path class="cls-45" d="M383.28,198.64s0-2.97,.37-3.43l.97,3.22-1.35,.21Z"/>
            <g>
              <path class="cls-41" d="M382.92,207.37c1.46-2.56,3.13-5.62,3.13-5.62l-2.42-5.6c-.13-.29-.12-.62,0-.92v-.02c.32-.71,1.23-.9,1.81-.39l8.16,7.23c.92,.81,1.58,1.87,1.93,3.04l13.16,45.12c1.16,3.98-.98,8.18-4.88,9.58l-.15,.05c-4.26,1.53-8.93-.86-10.18-5.21l-11.45-39.72c-.73-2.53-.41-5.25,.9-7.54Z"/>
              <path class="cls-45" d="M408.99,252.91c-1.43-1.09-3.21-1.74-5.15-1.74-4.14,0-7.58,2.95-8.35,6.86,2.07,2.05,5.22,2.88,8.17,1.82l.15-.05c3.02-1.08,4.98-3.84,5.17-6.88Z"/>
              <path class="cls-8" d="M393.61,230.78c4.42,12.2,11.08,18.96,15.37,22.27,.08-.93,0-1.89-.28-2.84l-13.16-45.12c-.34-1.18-1.01-2.23-1.93-3.04,0,0-6.98,9.49,0,28.73Z"/>
            </g>
          </g>
        </g>
        <g>
          <g>
            <g>
              <g>
                <g>
                  <path class="cls-18" d="M338.65,334.98s-8.44,16.59-22.04,12.66c3.46-13.73,22.04-12.66,22.04-12.66Z"/>
                  <path class="cls-15" d="M304.57,325.25s-1.6,18.55,12.03,22.39c4.32-13.48-12.03-22.39-12.03-22.39Z"/>
                </g>
                <g>
                  <path class="cls-18" d="M331.8,360.1s-11.37,14.74-24.01,8.36c5.94-12.85,24.01-8.36,24.01-8.36Z"/>
                  <path class="cls-15" d="M300.11,344.23s-5,17.93,7.68,24.23c6.74-12.45-7.68-24.23-7.68-24.23Z"/>
                </g>
                <g>
                  <path class="cls-18" d="M321.19,382.57s-13.69,12.62-25.07,4.2c8.02-11.67,25.07-4.2,25.07-4.2Z"/>
                  <path class="cls-15" d="M292.63,361.6s-7.95,16.84,3.49,25.18c8.74-11.14-3.49-25.18-3.49-25.18Z"/>
                </g>
                <path class="cls-24" d="M272.24,410.9s41.51-30.93,48.99-83.34"/>
                <path class="cls-18" d="M324.1,306.19s7.68,16.96-3.89,25.12c-8.56-11.28,3.89-25.12,3.89-25.12Z"/>
              </g>
              <path class="cls-18" d="M234.52,428.92s10.27-92.97,50.79-101.36c40.52-8.39,4.78,54.58-6.45,73.67-11.23,19.08,10.77,3.47,24.03-6.68,10.54-8.07,13.98,39.16-68.37,34.37Z"/>
              <path class="cls-15" d="M264.19,361.25c3.6-17.17,32.97-33.67,33.02-33.69-2.89-.98-6.78-1.06-11.89,0-40.52,8.39-50.79,101.36-50.79,101.36,1.57,.09,3.11,.16,4.62,.21,.22-.03,.43-.05,.65-.09,42.59-6.47,23.24-55.31,24.39-67.79Z"/>
              <path class="cls-22" d="M299.73,328.81s-28.81,20.28-43.5,80.11"/>
              <path class="cls-15" d="M302.89,394.55c-8.88,6.8-21.68,16.04-25.79,15.66,5,8.33,24.41-7.92,30.96-13.78-.72-2.67-2.76-3.73-5.18-1.88Z"/>
              <path class="cls-22" d="M298.37,362.87s-13.19-1.6-26.93,3.69"/>
              <g>
                <g>
                  <path class="cls-18" d="M123.46,309.39s7.02,20.78,23.54,18.51c-1.69-16.59-23.54-18.51-23.54-18.51Z"/>
                  <path class="cls-15" d="M164.83,303.84s-1.3,21.89-17.83,24.06c-2.74-16.45,17.83-24.06,17.83-24.06Z"/>
                </g>
                <g>
                  <path class="cls-18" d="M127.17,339.83s10.74,19.12,26.56,13.83c-4.74-15.99-26.56-13.83-26.56-13.83Z"/>
                  <path class="cls-15" d="M166.8,326.72s2.78,21.76-13.07,26.94c-5.74-15.66,13.07-26.94,13.07-26.94Z"/>
                </g>
                <g>
                  <path class="cls-18" d="M135.71,367.83s13.81,17.04,28.51,9.17c-7.36-14.97-28.51-9.17-28.51-9.17Z"/>
                  <path class="cls-15" d="M172.57,348.24s6.4,20.98-8.35,28.76c-8.29-14.47,8.35-28.76,8.35-28.76Z"/>
                </g>
                <path class="cls-30" d="M187.94,409.18s-43.12-43.11-42.92-105.48"/>
                <path class="cls-18" d="M145.31,278.3s-11.84,18.46,.26,29.95c11.9-11.69-.26-29.95-.26-29.95Z"/>
              </g>
            </g>
            <ellipse class="cls-40" cx="219.71" cy="429.63" rx="71.84" ry="4.01"/>
            <g>
              <g>
                <path class="cls-32" d="M109.42,186.45c28.76-33.28,65.73-53,106.82-53,54.64,0,97.78,28.76,97.78,84.22s-65.32,66.55-65.32,91.2v22.6h-76l-.41-32.87c0-37.8,65.32-59.16,65.32-81.75,0-15.61-16.02-19.31-30.4-19.31-17.66,0-39.44,17.26-53.41,33.69l-44.37-44.78Zm99.01,155.29c29.17,0,48.89,20.13,48.89,43.55s-18.9,42.32-48.89,42.32c-26.7,0-46.83-20.95-46.83-42.32,0-20.54,17.25-43.55,46.83-43.55Z"/>
                <path class="cls-16" d="M118.91,186.45c28.76-33.28,65.73-53,106.82-53,54.64,0,97.78,28.76,97.78,84.22s-65.32,66.55-65.32,91.2v22.6h-76l-.41-32.87c0-37.8,65.32-59.16,65.32-81.75,0-15.61-16.02-19.31-30.4-19.31-17.66,0-39.44,17.26-53.41,33.69l-44.37-44.78Zm99.01,155.29c29.17,0,48.89,20.13,48.89,43.55s-18.9,42.32-48.89,42.32c-26.7,0-46.83-20.95-46.83-42.32,0-20.54,17.26-43.55,46.83-43.55Z"/>
                <polygon class="cls-32" points="153.79 231.23 163.28 231.23 153.62 221.49 153.79 231.23"/>
              </g>
              <path class="cls-10" d="M191.81,206.14l-6.6-50.53,12.13-20.74c-10.15,1.53-19.99,4.3-29.45,8.18-5.43,9.48-12.15,23.94-9.44,33.68,4.34,15.59,17.68,37.69,17.68,37.69l15.68-8.28Z"/>
              <path class="cls-10" d="M266.81,221.49s-3.31,12.18-10.74,7.07-18.97-16.21-18.97-16.21l12.29-45.99-32.95-20.06,6.46-12.84,50.13,29.9-6.23,58.13Z"/>
            </g>
          </g>
          <g>
            <g>
              <path class="cls-19" d="M223.67,127.48v18.82l12.77,2.17,24.04,13.33-18.4,47.88,24.41,15.07c2.91,1.8,6.63-.36,6.55-3.78-.07-3.08-.5-6.83-1.74-10.68l16.41-42.31c3.77-9.72-.39-20.72-9.64-25.52l-32.37-16.79-22.01,1.82Z"/>
              <path class="cls-15" d="M242.07,209.68l24.41,15.07c2.91,1.8,6.63-.36,6.55-3.78-.07-3.08-.5-6.83-1.74-10.68,0,0-13.31-2.79-24.21-13.62l-5,13.01Z"/>
              <path class="cls-19" d="M223.67,146.3h-7.24l-19.7,23.38,6.97,47.28-25.08,11.26c-2.43,1.09-5.17-.61-5.31-3.27-.18-3.57,.12-8.35,2.21-12.53l-5.8-44.64c-.74-5.67,1.2-11.37,5.25-15.41l26.69-26.69,22.01,1.82v18.82h0Z"/>
              <path class="cls-15" d="M203.71,216.96l-2.46-16.66h0c-12.76,13.94-25.73,12.12-25.73,12.12-2.09,4.18-2.39,8.97-2.21,12.53,.13,2.66,2.88,4.36,5.31,3.27l25.08-11.26Z"/>
              <path class="cls-3" d="M280.25,143.79c-2.52,2.67-4.07,6.26-4.07,10.22,0,7,4.83,12.85,11.33,14.46l.19-.49c3.46-8.91,.24-18.88-7.45-24.18Z"/>
              <path class="cls-3" d="M182.69,160.62c0-4.35-2.19-8.18-5.51-10.47l-2.21,2.21c-4.04,4.04-5.98,9.74-5.25,15.41l.72,5.54c6.8-.25,12.25-5.82,12.25-12.69Z"/>
              <path class="cls-37" d="M245.68,125.66l-19.56,1.62c-1.73,6.45-2.24,14.69-2.39,19.03l12.71,2.16,14.98,8.31c3.28-10.48,7.86-17.83,11.29-22.28l-17.03-8.83Z"/>
              <path class="cls-37" d="M272.24,213.94c-.25-1.2-.55-2.41-.95-3.65,0,0-6.28-1.32-13.74-5.65,1.07,3.02,4.41,7.58,14.69,9.3Z"/>
              <path class="cls-37" d="M189.09,209.54c-7.71,3.69-13.57,2.87-13.57,2.87-.74,1.47-1.24,3.02-1.59,4.56,4.59-.3,11.61-1.75,15.16-7.43Z"/>
              <path class="cls-3" d="M201.66,125.66l-26.69,26.69c-4.04,4.04-5.98,9.74-5.25,15.41l.1,.77c21.71-3.34,39.38-30.41,45.89-41.72l-14.05-1.16Z"/>
              <path class="cls-42" d="M201.66,56.57s-7.57,3.18-11.67,12.73-10.37,29.82-10.37,29.82l22.03-8.46V56.57Z"/>
              <path class="cls-15" d="M223.67,47.93l-22.01,8.64V125.66s7.65,1.82,22.01,1.82,22.01-1.82,22.01-1.82V56.57l-22.01-8.64Z"/>
              <path class="cls-36" d="M201.66,56.57s-7.57,3.18-11.67,12.73c-1.24,2.89-2.68,6.76-4.08,10.76,4.18,.94,10.74,2.9,15.75,6.63v-30.11h0Z"/>
              <polygon class="cls-15" points="225.6 61.59 201.66 110.66 201.66 90.49 225.6 61.59"/>
              <path class="cls-15" d="M238.39,75.44s1.34,29.99,0,36.81-5.39,15.66-5.39,24.73,12.68-18.15,12.68-18.15v-27.33l-7.29-16.05Z"/>
              <path class="cls-41" d="M245.68,56.57l.11,.05c6.86,3.08,11.67,9.47,12.74,16.91l5.02,35.96c.63,4.54-.51,9.15-3.2,12.87l-11.94,16.49v15.89c0,2.05-1.94,3.54-3.92,3.02-4.57-1.19-11.49-3.67-11.49-7.78v-13.01c0-3.54,.97-7,2.8-10.03l9.88-16.29-7.05-32.73s-2.73-18.18,7.05-21.36Z"/>
              <path class="cls-18" d="M260.48,87.44l-1.94-13.91c-1.07-7.45-5.88-13.83-12.74-16.91l-.11-.05c-9.77,3.18-7.05,21.36-7.05,21.36l2.5,11.6c3.97-1.44,10.9-3.19,19.34-2.09Z"/>
              <path class="cls-45" d="M257.05,114.75c0,2.93,1.43,5.52,3.62,7.13,2.46-3.63,3.5-8.04,2.89-12.39l-.44-3.15c-3.53,1.17-6.07,4.49-6.07,8.41Z"/>
              <line class="cls-23" x1="245.68" y1="110.66" x2="249.38" y2="104.9"/>
              <path class="cls-41" d="M223.72,55.03h-.1c-2.88,0-5.21-2.33-5.21-5.21v-8.66h10.52v8.66c0,2.88-2.33,5.21-5.21,5.21Z"/>
              <path class="cls-20" d="M231.21,33.91s1.33-1.52,1.33-4.36,.59-8.69-3.6-11.12-12.55-6.17-11.25-3.08,.32,2.68-2.52,2.6-2.27,9.72,0,13.56c2.27,3.83,16.05,2.41,16.05,2.41Z"/>
              <path class="cls-41" d="M218.41,34.3c0,1.55-1.13,2.8-2.52,2.8s-2.52-1.25-2.52-2.8,1.13-2.8,2.52-2.8c1.39,0,2.52,1.25,2.52,2.8Z"/>
              <path class="cls-41" d="M228.93,34.3c0,1.55,1.13,2.8,2.52,2.8s2.52-1.25,2.52-2.8-1.13-2.8-2.52-2.8c-1.39,0-2.52,1.25-2.52,2.8Z"/>
              <path class="cls-41" d="M223.74,45.65h-.15c-4.12,0-7.46-3.34-7.46-7.46v-10.6c0-3,2.43-5.43,5.43-5.43h4.22c3,0,5.43,2.43,5.43,5.43v10.6c0,4.12-3.34,7.46-7.46,7.46Z"/>
              <path class="cls-44" d="M218.41,41.16v8.66c0,.14,0,.29,.02,.43,6.83-.04,10.5-6.7,10.5-6.7l-5.82-2.39h-4.71Z"/>
              <path class="cls-20" d="M220.84,31.09c0,.58-.25,1.06-.57,1.06s-.57-.47-.57-1.06,.25-1.06,.57-1.06,.57,.47,.57,1.06Z"/>
              <path class="cls-25" d="M221.74,27.6s-1.87-.89-3.33,0"/>
              <ellipse class="cls-20" cx="227.06" cy="31.09" rx=".57" ry="1.06"/>
              <path class="cls-25" d="M225.6,27.6s1.87-.89,3.33,0"/>
              <path class="cls-20" d="M227.06,36.86c-3.39-.53-2.03-.53-3.39-.53s0,0-3.39,.53-4.15-5.36-4.15-5.36v6.69c0,4.12,3.34,7.46,7.46,7.46h.15c4.12,0,7.46-3.34,7.46-7.46v-6.69s-.75,5.89-4.14,5.36Z"/>
              <path class="cls-41" d="M180.27,98.06l40.42-56.08c.51-.71,1.52-.81,2.16-.23l.02,.02c.47,.43,.62,1.11,.36,1.69l-2.53,5.64,2.34,2.06c3.52,3.1,4.21,8.32,1.63,12.24l-29.65,44.87c-2.93,4.43-9.05,5.32-13.12,1.91l-.14-.12c-3.56-2.99-4.22-8.22-1.5-12Z"/>
              <path class="cls-45" d="M181.47,100.21c-.84,0-1.65,.11-2.43,.3-1.09,3.36-.11,7.17,2.73,9.55l.14,.12c2.88,2.41,6.79,2.66,9.87,1.03,.01-.22,.03-.44,.03-.66,0-5.71-4.63-10.34-10.34-10.34Z"/>
              <line class="cls-23" x1="238.29" y1="155.61" x2="238.29" y2="143.79"/>
              <path class="cls-8" d="M260.35,122.36c2.69-3.71,3.84-8.32,3.2-12.87l-5.02-35.96c-.77-5.34-3.46-10.12-7.44-13.54-.99,4.4-2.6,15.7,.58,35,4.22,25.61-3.26,43.85-3.26,43.85l11.94-16.49Z"/>
              <path class="cls-8" d="M233.96,34.3c0-1.23-.71-2.26-1.7-2.64,.16-.6,.27-1.29,.27-2.11,0-2.84,.59-8.69-3.6-11.12-.05-.03-.11-.06-.16-.09-.16,1.49-.48,3.17-1.14,4.16-.83,2.28-3.94,17.27-.03,22.07,2.16-1.31,3.6-3.67,3.6-6.38v-1.12c.08,0,.16,.03,.24,.03,1.39,0,2.52-1.26,2.52-2.8Z"/>
              <path class="cls-8" d="M223.05,51.16s-27.1,34.73-25.8,53.75h0l27.43-41.51c2.59-3.91,1.89-9.14-1.63-12.24Z"/>
              <path class="cls-18" d="M226.72,87.7c-3.37,7.31-17.67,20.64-25.05,27.22v10.74c24.91-7.02,29.64-47.92,25.05-37.96Z"/>
            </g>
            <polyline class="cls-7" points="193.79 206.83 189.09 168.47 216.44 138.83 226.49 138.83"/>
            <polyline class="cls-7" points="250.94 147.1 268.28 157.87 252.47 201.3"/>
          </g>
        </g>
      </g>
    </g>
  </g>
</svg>