<?xml version="1.0" encoding="UTF-8"?>
<svg id="Layer_1" data-name="Layer 1" xmlns="http://www.w3.org/2000/svg" viewBox="0 0 500 372.56">
  <defs>
    <style>
      .cls-1 {
        fill: #f0f0f0;
      }

      .cls-2, .cls-3, .cls-4 {
        fill: #fff;
      }

      .cls-5 {
        fill: #fafafa;
      }

      .cls-6 {
        fill: #f5f5f5;
      }

      .cls-7 {
        fill: #1f448b;
      }

      .cls-3, .cls-8 {
        opacity: .3;
      }

      .cls-3, .cls-8, .cls-9, .cls-4 {
        isolation: isolate;
      }

      .cls-10 {
        fill: #e0e0e0;
      }

      .cls-11 {
        fill: #e6e6e6;
      }

      .cls-9, .cls-4 {
        opacity: .2;
      }

      .cls-12 {
        fill: #ffb573;
      }

      .cls-13 {
        fill: #ebebeb;
      }

      .cls-14 {
        fill: #ff8b7b;
      }

      .cls-15 {
        fill: #ff5652;
      }

      .cls-16 {
        fill: #ed893e;
      }

      .cls-17 {
        fill: #263238;
      }
    </style>
  </defs>
  <g id="freepik--background-complete--inject-2">
    <rect class="cls-13" y="327.4" width="500" height=".25"/>
    <rect class="cls-13" x="416.78" y="343.49" width="33.12" height=".25"/>
    <rect class="cls-13" x="322.53" y="346.21" width="8.69" height=".25"/>
    <rect class="cls-13" x="396.59" y="334.21" width="19.19" height=".25"/>
    <rect class="cls-13" x="52.46" y="335.89" width="43.19" height=".25"/>
    <rect class="cls-13" x="104.56" y="335.89" width="6.33" height=".25"/>
    <rect class="cls-13" x="131.47" y="340.11" width="93.68" height=".25"/>
    <path class="cls-13" d="M237,282.8H43.91c-3.15,0-5.7-2.56-5.7-5.71V5.66c.03-3.13,2.57-5.65,5.7-5.66H237c3.15,0,5.71,2.56,5.71,5.71h0V277.09c0,3.15-2.56,5.71-5.71,5.71ZM43.91,.2c-3.01,0-5.45,2.45-5.45,5.46V277.09c0,3.01,2.44,5.45,5.45,5.46H237c3.01,0,5.45-2.45,5.46-5.46V5.66c0-3.01-2.45-5.45-5.46-5.46H43.91Z"/>
    <path class="cls-13" d="M453.31,282.8h-193.1c-3.15,0-5.7-2.56-5.71-5.71V5.66c.03-3.13,2.58-5.65,5.71-5.66h193.1c3.13,.01,5.66,2.53,5.69,5.66V277.09c0,3.15-2.54,5.7-5.69,5.71ZM260.21,.2c-3.01,0-5.45,2.45-5.46,5.46V277.09c0,3.01,2.45,5.45,5.46,5.46h193.1c3.01,0,5.45-2.45,5.46-5.46V5.66c0-3.01-2.45-5.45-5.46-5.46h-193.1Z"/>
    <rect class="cls-1" x="63.53" y="204.3" width="216.49" height="114.78"/>
    <rect class="cls-11" x="68.78" y="209.56" width="205.99" height="104.28"/>
    <rect class="cls-10" x="68.78" y="209.55" width="23.04" height="104.28"/>
    <rect class="cls-11" x="280.03" y="204.31" width="13.06" height="114.78"/>
    <rect class="cls-1" x="68.78" y="258.9" width="205.99" height="5.6"/>
    <polygon class="cls-1" points="77.72 327.4 73.2 327.4 70.97 319.08 77.72 319.08 77.72 327.4"/>
    <polygon class="cls-1" points="265.83 327.4 270.35 327.4 272.58 319.08 265.83 319.08 265.83 327.4"/>
    <polygon class="cls-11" points="95.33 327.4 90.82 327.4 88.58 319.08 95.33 319.08 95.33 327.4"/>
    <polygon class="cls-11" points="283.45 327.4 287.96 327.4 290.2 319.08 283.45 319.08 283.45 327.4"/>
    <rect class="cls-1" x="87.41" y="213.37" width="10.96" height="45.53"/>
    <rect class="cls-10" x="98.38" y="213.36" width="29.31" height="45.53"/>
    <rect class="cls-5" x="101.93" y="218.58" width="6.18" height="40.32"/>
    <rect class="cls-13" x="108.11" y="218.57" width="16.51" height="40.32"/>
    <polygon class="cls-5" points="126.9 258.89 117.75 258.89 112.48 220.9 121.63 220.9 126.9 258.89"/>
    <polygon class="cls-13" points="126.9 258.89 151.36 258.89 146.09 220.9 121.63 220.9 126.9 258.89"/>
    <rect class="cls-1" x="158.16" y="280.58" width="10.96" height="33.25"/>
    <rect class="cls-10" x="169.13" y="280.58" width="16.27" height="33.25"/>
    <rect class="cls-5" x="174.98" y="273.52" width="6.18" height="40.32"/>
    <rect class="cls-13" x="181.16" y="273.51" width="16.51" height="40.32"/>
    <polygon class="cls-1" points="90.12 313.83 80.97 313.83 75.7 275.84 84.85 275.84 90.12 313.83"/>
    <polygon class="cls-10" points="90.12 313.83 114.58 313.83 109.31 275.84 84.85 275.84 90.12 313.83"/>
    <rect class="cls-11" x="135.33" y="247.93" width="45.53" height="10.96"/>
    <rect class="cls-10" x="180.86" y="247.93" width="16.81" height="10.96"/>
    <rect class="cls-1" x="182.33" y="249.18" width="15.34" height="8.47"/>
    <rect class="cls-1" x="138.13" y="239.38" width="45.53" height="8.55"/>
    <rect class="cls-11" x="183.66" y="239.38" width="16.81" height="8.55"/>
    <rect class="cls-1" x="185.13" y="240.35" width="15.34" height="6.6"/>
    <rect class="cls-6" x="193.59" y="302.02" width="49.03" height="11.81"/>
    <rect class="cls-10" x="242.63" y="302.02" width="18.11" height="11.81"/>
    <rect class="cls-1" x="244.21" y="303.37" width="16.52" height="9.12"/>
    <rect class="cls-5" x="200.41" y="283.27" width="39.64" height="9.55"/>
    <rect class="cls-10" x="240.05" y="283.27" width="14.64" height="9.55"/>
    <rect class="cls-6" x="241.34" y="284.36" width="13.36" height="7.37"/>
    <rect class="cls-5" x="97.49" y="304.25" width="39.64" height="9.55"/>
    <rect class="cls-10" x="137.12" y="304.24" width="14.64" height="9.55"/>
    <rect class="cls-6" x="138.4" y="305.33" width="13.36" height="7.37"/>
    <rect class="cls-1" x="196.61" y="292.82" width="49.03" height="9.21"/>
    <rect class="cls-11" x="245.63" y="292.82" width="18.11" height="9.21"/>
    <rect class="cls-1" x="247.23" y="293.87" width="16.52" height="7.11"/>
    <rect class="cls-1" x="202.8" y="223.78" width="8.88" height="36.88"/>
    <rect class="cls-10" x="211.68" y="223.78" width="23.75" height="36.88"/>
    <rect class="cls-5" x="222.8" y="228" width="8.53" height="32.67"/>
    <rect class="cls-13" x="231.33" y="227.99" width="14.58" height="32.67"/>
    <path class="cls-10" d="M326.72,260.87h28.94c6.85,0,12.7-4.93,13.87-11.67l7.66-44c1.78-10.2,10.64-17.65,21-17.64h29.08c7.44,0,13.48,6.02,13.48,13.46,0,.78-.07,1.56-.2,2.33l-8,46.07c-1.78,10.2-10.64,17.65-21,17.63h-92.18c.63-3.57,3.73-6.18,7.35-6.18Z"/>
    <polygon class="cls-13" points="407 267.05 410.33 267.05 416.36 327.4 413.03 327.4 407 267.05"/>
    <polygon class="cls-13" points="380.33 267.05 383.66 267.05 389.68 327.4 386.35 327.4 380.33 267.05"/>
    <rect class="cls-13" x="382.66" y="267.04" width="26.08" height="3.12"/>
    <polygon class="cls-13" points="331.26 267.05 327.93 267.05 321.91 327.4 325.24 327.4 331.26 267.05"/>
    <polygon class="cls-13" points="357.94 267.05 354.61 267.05 348.58 327.4 351.92 327.4 357.94 267.05"/>
    <rect class="cls-13" x="329.55" y="267.04" width="26.08" height="3.12"/>
    <path class="cls-10" d="M114.21,188.15c0,8.92,7.24,16.16,16.16,16.16,8.92,0,16.16-7.23,16.16-16.16h-32.32Z"/>
    <path class="cls-13" d="M139.23,191.85c.19,6.88,5.93,12.3,12.81,12.1,6.6-.19,11.91-5.5,12.1-12.1h-24.91Z"/>
    <rect class="cls-6" x="135.33" y="43.09" width="234.33" height="112.89"/>
    <circle class="cls-5" cx="199.33" cy="104.6" r="41.53"/>
    <rect class="cls-13" x="133.83" y="153.09" width="237.33" height="7.61"/>
    <path class="cls-13" d="M293.58,51.76h-82.16c-.75,0-1.36,.61-1.36,1.36h0c0,.75,.61,1.36,1.36,1.36h82.16c.75,0,1.36-.61,1.36-1.36h0c0-.75-.61-1.36-1.36-1.36h0Z"/>
    <path class="cls-11" d="M161,70.7s.28,10.11-1,13.12c4.78,1.34,13.89,1.32,13.89,1.32,0,0,1.55-9.71,1-13.56-2.66-.58-13.89-.88-13.89-.88Z"/>
    <path class="cls-2" d="M161,70.7s-.68,10.09-2,13.1c4.28,1,8.62,1.72,13,2.13,0,0,3.54-10.49,2.9-14.35-2.67-.58-13.9-.88-13.9-.88Z"/>
    <path class="cls-11" d="M188.8,93.55s1.46,15.06-.15,19.67c7.27,1.52,20.07,.23,20.07,.23,0,0,2.1-14.35,.94-20-4.14-.64-20.86,.1-20.86,.1Z"/>
    <path class="cls-2" d="M187.38,92s-.43,18.57-2,23.19c7.28,1.51,22.42,.45,22.42,.45,0,0,3.05-18.13,1.7-23.82-4.19-.61-22.12,.18-22.12,.18Z"/>
    <path class="cls-11" d="M264.58,124.56s2.39,9.83,1.75,13c5,.32,13.69-1.59,13.69-1.59,0,0-.34-9.85-1.64-13.5-2.8,.03-13.8,2.09-13.8,2.09Z"/>
    <path class="cls-2" d="M264.58,124.56s1.44,10,.81,13.22c5,.32,14.11-.84,14.11-.84,0,0,.31-10.8-1.12-14.43-2.8-.01-13.8,2.05-13.8,2.05Z"/>
    <path class="cls-11" d="M311.28,87.81s6.1,13.85,6,18.74c7.38-.84,20.1-5.1,20.1-5.1,0,0-3.45-15.24-6.32-20.28-4.12,.72-19.78,6.64-19.78,6.64Z"/>
    <path class="cls-2" d="M309.45,86.77s5.39,17.78,5.3,22.67c7.39-.83,21.44-6.57,21.44-6.57,0,0-2.77-18.18-5.83-23.16-4.12,.72-20.91,7.06-20.91,7.06Z"/>
    <circle class="cls-11" cx="329" cy="84.39" r="1.59"/>
    <path class="cls-11" d="M214.8,84.86c-.08,0-.16-.02-.23-.06-.25-.12-.34-.42-.22-.67,1.19-2.28,3.47-3.68,5.55-4.74,10.83-5.55,23.5-6.64,33.33-7,7.02-.35,14.05,0,21,1.05,7.02,1.07,13.73,3.62,19.7,7.46,.23,.15,.29,.47,.14,.7-.15,.23-.47,.29-.7,.14-5.85-3.77-12.43-6.26-19.31-7.31-6.9-1.03-13.88-1.36-20.85-1-9.72,.33-22.25,1.41-32.91,6.87-1.93,1-4.06,2.28-5.11,4.31-.08,.14-.23,.24-.39,.25Z"/>
    <path class="cls-11" d="M282.58,85.65c-.17,0-.33-.09-.42-.24-.15-.23-.08-.54,.15-.69,1.14-.63,2.4-1.01,3.7-1.1,3.96-.49,7.97-.46,11.92,.11-1.12-1.32-2.12-2.73-3-4.21-.5-.76-.87-1.6-1.07-2.49-.21-1,.04-2.03,.69-2.82,.19-.2,.51-.22,.71-.03s.22,.51,.03,.71c-.45,.56-.62,1.3-.44,2,.18,.77,.5,1.5,.94,2.16,1.1,1.83,2.38,3.54,3.83,5.1,.14,.16,.17,.39,.07,.58-.1,.19-.32,.29-.53,.25-4.29-.76-8.68-.87-13-.32-1.15,.07-2.27,.4-3.28,.95-.09,.04-.2,.05-.3,.04Z"/>
    <path class="cls-11" d="M296.75,122.87c-.28,.02-.51-.19-.53-.47s.19-.51,.47-.53c5.57-.66,10.54-3.82,13.5-8.59,.14-.24,.45-.31,.69-.17,0,0,0,0,0,0,.23,.15,.31,.45,.17,.69-3.13,5.03-8.37,8.36-14.25,9.06h-.05Z"/>
    <path class="cls-11" d="M301.29,127.19h0c-4.1-.34-8.1-1.39-11.84-3.1-.15-.08-.26-.22-.28-.39-.03-.16,.03-.33,.16-.44,1.62-1.45,3.23-2.95,4.78-4.46,.19-.2,.51-.2,.71,0,0,0,0,0,0,0,.19,.2,.19,.51,0,.71-1.38,1.34-2.8,2.67-4.24,4,3.43,1.48,7.08,2.39,10.8,2.7,.27,.03,.47,.27,.46,.54-.04,.27-.28,.46-.55,.44Z"/>
    <path class="cls-11" d="M245,135.43c-12.95,0-25.65-5.78-31.61-11.6-.18-.21-.16-.52,.05-.71,.19-.16,.46-.16,.65,0,7.49,7.32,27.1,14.88,43,9.38,.25-.11,.55,0,.66,.25,.11,.25,0,.55-.25,.66-.03,.01-.05,.02-.08,.03-4,1.35-8.2,2.03-12.42,1.99Z"/>
    <path class="cls-11" d="M215.4,131.78c-.17,0-.32-.08-.42-.22-2.3-3.4-3.99-7.17-5-11.15-.04-.17,0-.34,.12-.47,.12-.12,.28-.18,.45-.15,2.14,.35,4.32,.66,6.47,.92,.27,.03,.46,.27,.43,.54,0,0,0,0,0,0-.03,.27-.28,.47-.55,.44-1.91-.23-3.84-.5-5.75-.8,1,3.6,2.58,7.01,4.68,10.1,.16,.22,.1,.53-.12,.68,0,0,0,0-.01,0-.09,.06-.19,.09-.3,.09Z"/>
  </g>
  <g id="freepik--Shadow--inject-2">
    <ellipse id="freepik--path--inject-2" class="cls-6" cx="250" cy="361.24" rx="193.89" ry="11.32"/>
  </g>
  <g id="freepik--character-1--inject-2">
    <circle class="cls-17" cx="216.28" cy="116.11" r="11.25"/>
    <path class="cls-7" d="M217.46,117.5c-3,2.75-7.33,2.92-9.66,.37s-1.8-6.87,1.2-9.58,7.33-2.92,9.66-.37,1.8,6.83-1.2,9.58Z"/>
    <circle class="cls-17" cx="198.7" cy="113.58" r="10.45"/>
    <path class="cls-14" d="M187.35,138.9c-1.12,3-2.38,5.61-3.72,8.34s-2.86,5.33-4.47,7.91c-1.61,2.62-3.4,5.13-5.34,7.51-.98,1.2-2.02,2.37-3.11,3.51-.54,.58-1.11,1.13-1.69,1.68-.28,.28-.59,.54-.88,.81l-.45,.41c-.3,.25-.61,.49-.94,.7-.75,.48-1.58,.8-2.46,.93-.78,.12-1.58,.09-2.35-.08-1.13-.25-2.19-.72-3.14-1.38-1.39-1-2.65-2.17-3.74-3.48-1.93-2.31-3.67-4.77-5.2-7.36-2.96-5-5.53-10.22-7.71-15.61l3.67-1.87c1.45,2.37,2.94,4.78,4.48,7.11s3.08,4.66,4.72,6.86c1.55,2.18,3.26,4.24,5.11,6.16,.78,.82,1.66,1.54,2.63,2.13,.23,.15,.49,.25,.76,.29h-.21c-.15,.02-.3,.06-.44,.14h-.07s-.06,.05,0,0l.35-.35c.23-.23,.47-.45,.69-.7,.46-.47,.91-.96,1.35-1.47,.88-1,1.73-2.06,2.53-3.16,1.62-2.19,3.12-4.51,4.55-6.89s2.72-4.87,4-7.37,2.43-5.12,3.44-7.55l7.64,2.78Z"/>
    <path class="cls-17" d="M192.91,141.55c-1.18,2.35-4.66,6.41-7.39,9.41-2,2.15-3.53,3.76-3.53,3.76l-1.21-1-10-8.62c2.88-6.1,6.49-12.59,14.4-13.66,4.94-.71,9.82,5.93,7.73,10.11Z"/>
    <path class="cls-8" d="M185.52,151c-2,2.15-3.53,3.76-3.53,3.76l-1.21-1c1-2.46,2.71-6.27,4.62-7.66,.39,1.61,.43,3.28,.12,4.9Z"/>
    <path class="cls-14" d="M146.33,142.75l1.25-6.89-8.41,.32s1.64,5.55,3.82,8l3.34-1.43Z"/>
    <polygon class="cls-14" points="145.28 132.7 139.04 134.1 139.17 136.18 147.58 135.86 145.28 132.7"/>
    <polygon class="cls-14" points="198.42 353.47 190.31 354.23 190.45 335.73 198.56 334.97 198.42 353.47"/>
    <polygon class="cls-14" points="241.36 349.61 233.37 350.83 228.48 332.81 236.47 331.58 241.36 349.61"/>
    <path class="cls-17" d="M232,347.87l8.91-1.82c.31-.08,.63,.1,.72,.41l2.26,6.8c.2,.71-.21,1.44-.92,1.64-.03,0-.05,.01-.08,.02-3.12,.58-4.64,.7-8.56,1.5-2.41,.5-7.68,1.94-11,2.62s-4.08-2.56-2.75-3.14c6-2.6,8.43-5.1,10.21-7.28,.31-.38,.73-.65,1.21-.75Z"/>
    <path class="cls-17" d="M189.43,351.83h9.57c.35,0,.66,.24,.74,.58l1.86,7.55c.17,.65-.22,1.31-.87,1.47-.11,.03-.22,.04-.33,.04-3.37,0-5-.23-9.16-.23-2.58,0-9.27,.25-12.83,.25s-4.12-3.53-2.67-3.85c6.51-1.43,10.3-3.4,12.35-5.29,.37-.33,.84-.52,1.34-.52Z"/>
    <polygon class="cls-9" points="190.45 335.73 190.37 345.27 198.48 345.27 198.56 334.97 190.45 335.73"/>
    <polygon class="cls-9" points="236.48 331.59 228.48 332.81 231 342.1 239 340.88 236.48 331.59"/>
    <path class="cls-17" d="M219.68,179.32l-32.69,.91c-7.68-47-4.06-48.32-4.06-48.32,0,0,5.61-1.36,11.26-2.21,.86-.13,1.72-.25,2.56-.35,4.93-.49,9.9-.63,14.85-.42,.73,0,1.46,0,2.19,.07,3.92,.22,7.83,.68,11.7,1.37-1.34,5.81-2.41,10.75-3.24,15.07-1.08,5.63-1.78,10.18-2.2,14.17-.65,6.55-.78,13.14-.37,19.71Z"/>
    <path class="cls-8" d="M220.05,159.61c-1.58-4.91-1.34-15.14,.48-18.49l1.72,4.32c-1.08,5.63-1.78,10.18-2.2,14.17Z"/>
    <path class="cls-14" d="M209.31,118.82c-.21,4,.21,8.18,2.3,10.11,0,0-2.1,9.91-14,15.74-7.65-9.5-.83-15.33-.83-15.33,5.33-1.42,5.43-5,4-10.8l4.22-1.74c1.04-.96,2.67-.9,3.63,.14,.47,.51,.71,1.18,.68,1.88Z"/>
    <path class="cls-9" d="M205,116.8c1.03-.97,2.65-.91,3.62,.12,.39,.42,.63,.96,.68,1.53-1.89,2.9-4.63,5.15-7.85,6.43,.17-2.14-.07-4.29-.69-6.34l4.24-1.74Z"/>
    <path class="cls-14" d="M217.08,106.94c-3,7.5-4.05,10.73-9.15,13.5-7.68,4.17-16.15-.84-15.47-9,.61-7.35,5.34-18.38,13.75-19.2,5.82-.62,11.04,3.6,11.66,9.42,.19,1.8-.08,3.62-.79,5.28Z"/>
    <path class="cls-17" d="M212.85,100.24c-7.71,1.25-18.9-3.81-16.74-9.57,1.49-4,6.67-1.16,6.67-1.16,0,0,8.29-2.31,14.16,2.24s7.41,15-3.5,21.83c-3.44-3.86-3.75-10.42-.59-13.34Z"/>
    <path class="cls-14" d="M216.48,114.56c-.82,1.33-2.12,2.29-3.63,2.68-2,.5-2.89-1.29-2.24-3.13,.58-1.66,2.33-3.92,4.29-3.6s2.57,2.41,1.58,4.05Z"/>
    <path class="cls-17" d="M187,180.23s-3.54,48.71-3.54,80.2c0,25,5.42,81.1,5.42,81.1l11.71-1.16s1.93-60.18-.34-78c7.23-35.22,20.45-68.72,13-83l-26.25,.86Z"/>
    <polygon class="cls-7" points="202.49 337.52 187.05 337.99 187.89 343.26 202.33 343.04 202.49 337.52"/>
    <path class="cls-8" d="M205.49,198.27l-3.84,4.28c-3.67,10.92-1.24,26.08,3.14,40.15,4.47-17.73,9.19-34.09,10.38-46.59v-1.11l-9.68,3.27Z"/>
    <path class="cls-17" d="M194.13,180.13s11.85,53.71,16.69,84.7c7.78,25,17.52,73.2,17.52,73.2l10.81-2.58s-5-57.17-11.09-75c-.35-35.23,2.1-66.82-8.38-81.11l-25.55,.79Z"/>
    <polygon class="cls-7" points="227.41 340.58 241.13 337.83 240.95 332.26 225.64 335.79 227.41 340.58"/>
    <path class="cls-7" d="M220.17,177.39l1.48,2.88c.11,.23-.16,.47-.53,.48l-34.3,.95c-.29,0-.54-.13-.55-.31l-.3-2.92c0-.2,.24-.38,.56-.39l33.11-.92c.21-.03,.41,.06,.53,.23Z"/>
    <path class="cls-17" d="M215.73,181.21h.88c.18,0,.31-.1,.3-.21l-.41-3.79c0-.11-.17-.2-.35-.19h-.88c-.18,0-.31,.1-.3,.21l.41,3.79c.02,.11,.17,.2,.35,.19Z"/>
    <path class="cls-17" d="M189.32,182h.88c.18,0,.31-.1,.3-.21l-.41-3.79c0-.11-.17-.19-.35-.19h-.88c-.18,0-.31,.1-.3,.21l.41,3.79c.03,.06,.17,.19,.35,.19Z"/>
    <path class="cls-17" d="M202.52,181.58h.89c.17,0,.31-.1,.3-.22l-.42-3.78c0-.11-.16-.2-.34-.2h-.89c-.17,0-.31,.1-.3,.21l.42,3.79c0,.12,.16,.21,.34,.2Z"/>
    <path class="cls-17" d="M205.22,105.76c-.2,.62-.69,1-1.1,.91s-.56-.73-.36-1.35,.69-1,1.1-.91,.56,.73,.36,1.35Z"/>
    <path class="cls-17" d="M198.25,103.66c-.21,.63-.7,1-1.1,.91s-.57-.72-.36-1.35,.69-1,1.09-.9,.57,.68,.37,1.34Z"/>
    <path class="cls-17" d="M198.05,102.41l-1.34-.88s.38,1.4,1.34,.88Z"/>
    <path class="cls-15" d="M198.71,104.81c-1.01,1.25-2.19,2.37-3.5,3.31,.49,.65,1.25,1.04,2.07,1.07l1.43-4.38Z"/>
    <path class="cls-17" d="M199.29,112.6c-.06-.05-.08-.13-.06-.2,.04-.1,.15-.16,.25-.13,1.57,.5,3.27,.23,4.61-.73,.07-.08,.19-.08,.27-.01,.08,.07,.08,.19,.01,.27-.01,.01-.03,.02-.04,.03-1.44,1.06-3.3,1.36-5,.81l-.04-.04Z"/>
    <path class="cls-17" d="M206.68,103.58s-.09-.1-.11-.16c-.29-.91-1-1.63-1.92-1.91-.2-.05-.33-.25-.28-.46,0,0,0,0,0,0,.05-.21,.26-.33,.47-.29,1.17,.34,2.09,1.24,2.46,2.4,.06,.2-.04,.42-.24,.49-.13,.05-.28,.02-.38-.07Z"/>
    <path class="cls-17" d="M195,99.21v-.07c-.04-.21,.1-.41,.31-.45,1.2-.26,2.44,.08,3.34,.91,.15,.15,.15,.39,0,.54,0,0,0,0,0,0-.15,.14-.39,.14-.54,0-.71-.65-1.71-.91-2.65-.69-.19,.05-.39-.05-.46-.24Z"/>
    <path class="cls-7" d="M228.1,349.76l-.11-.06c-.33-.19-.52-.55-.49-.93-.03-.24,.08-.47,.28-.6,.85-.61,3.53,.45,3.83,.57,.07,.03,.12,.09,.12,.17,0,.08-.05,.15-.12,.18-.94,.43-2.61,1.07-3.51,.67Zm2.93-.83c-1.08-.39-2.59-.77-3-.46-.08,.06-.12,.17-.11,.27-.02,.25,.1,.49,.31,.63,.42,.28,1.47,.12,2.77-.44h.03Z"/>
    <path class="cls-7" d="M231.28,349c-.88-.4-2.38-1.67-2.36-2.53,.01-.31,.23-.58,.54-.65,.28-.1,.59-.06,.84,.09,1,.58,1.41,2.85,1.43,2.95,0,.07-.02,.13-.07,.18-.06,.03-.13,.03-.19,0l-.19-.04Zm-1.25-2.8c-.15-.06-.31-.06-.46,0-.23,.08-.27,.2-.27,.29,0,.56,1.11,1.66,2,2.1-.13-.88-.54-1.7-1.17-2.33l-.1-.06Z"/>
    <path class="cls-7" d="M185.16,353.41c-.65,.05-1.3-.11-1.86-.45-.28-.22-.45-.56-.45-.92-.02-.21,.08-.4,.25-.52,.88-.58,4.09,.89,4.73,1.2,.09,.05,.12,.17,.07,.26-.03,.05-.07,.08-.12,.09-.86,.21-1.74,.32-2.62,.34Zm-1.48-1.65c-.13-.01-.26,.02-.38,.08-.06,.04-.09,.11-.07,.18,0,.25,.11,.49,.31,.64,.55,.42,1.87,.47,3.59,.16-1.09-.53-2.25-.89-3.45-1.06h0Z"/>
    <path class="cls-7" d="M187.74,353.08h-.08c-1.06-.44-3.19-2.18-3-3.08,0-.2,.18-.44,.67-.5,1.9-.23,2.61,3.22,2.64,3.37,.01,.07-.02,.14-.07,.18-.05,.03-.1,.04-.16,.03Zm-2.29-3.23h-.13c-.2,0-.31,.08-.32,.17-.09,.52,1.38,1.9,2.46,2.5-.23-.82-.87-2.67-2.01-2.67h0Z"/>
    <path class="cls-17" d="M205,104.5l-1.34-.87s.4,1.37,1.34,.87Z"/>
    <path class="cls-14" d="M226.71,135.59c.86,1.3,1.55,2.47,2.25,3.72s1.36,2.49,2,3.76c1.25,2.54,2.39,5.14,3.4,7.81,1.03,2.69,1.89,5.44,2.57,8.23,.19,.69,.31,1.42,.47,2.13s.3,1.42,.41,2.15,.24,1.4,.34,2.21l.12,1.29v1.27c-.13,3.17-.79,6.29-1.95,9.24-1.07,2.77-2.38,5.45-3.91,8-1.48,2.48-3.09,4.88-4.82,7.2-1.74,2.3-3.59,4.51-5.56,6.61l-3.1-2.56c1.49-2.2,3-4.52,4.35-6.86s2.67-4.71,3.79-7.12c1.12-2.35,2.07-4.77,2.83-7.26,.35-1.18,.63-2.38,.84-3.59,.18-1.12,.25-2.26,.22-3.4v-.79l-.12-.75c-.09-.55-.26-1.23-.38-1.83s-.29-1.24-.46-1.86-.32-1.23-.52-1.85c-.73-2.46-1.68-4.87-2.64-7.28s-2.1-4.76-3.3-7.08c-.58-1.16-1.19-2.31-1.82-3.45s-1.31-2.29-1.91-3.28l6.9-4.66Z"/>
    <path class="cls-17" d="M225.49,130.37c3.92,.94,8.5,12.7,8.5,12.7l-11.41,9s-6.62-9.65-5.75-14.82c.74-4.42,3.67-8.07,8.66-6.88Z"/>
    <rect class="cls-7" x="129.68" y="165.11" width="14.56" height="1" transform="translate(-30.89 299.8) rotate(-89.05)"/>
    <rect class="cls-7" x="134.26" y="178.97" width="4.95" height="1" transform="translate(-44.98 313.21) rotate(-89.05)"/>
    <polygon class="cls-7" points="140.44 136.18 138.96 227.3 174.04 242.31 211.31 234.06 226.74 144.25 140.44 136.18"/>
    <polygon class="cls-4" points="182.84 148.18 174.83 233.94 204.33 227.41 217.39 151.41 182.84 148.18"/>
    <polygon class="cls-2" points="209.15 162.85 154.28 157.72 153.2 191.97 194.73 195.85 192.7 208.85 177.02 210.48 161.92 205.97 161.91 205.97 162.2 197.01 153.07 196.16 152.48 214.82 175.96 221.83 200.33 219.29 205.62 185.42 162.69 181.41 163.05 169.99 207.39 174.14 209.15 162.85"/>
    <polygon class="cls-14" points="209.91 202.67 214.96 206.39 219.63 202.87 214 196.78 209.91 202.67"/>
    <path class="cls-14" d="M220.91,194.6l-6.91,2.18,5.64,6.09s3.42-3,3.88-6.34l-2.61-1.93Z"/>
  </g>
  <g id="freepik--character-2--inject-2">
    <polygon class="cls-12" points="335.02 350.68 342.07 348.39 337.69 331.76 330.64 334.05 335.02 350.68"/>
    <path class="cls-17" d="M342.18,347.45l-7.93,2.55c-.28,.08-.44,.37-.36,.65l1.65,6.4c.22,.69,.95,1.07,1.64,.85,2.74-.94,4-1.53,7.49-2.66,2.14-.7,7.32-2.27,10.28-3.23s1.93-3.86,.59-3.72c-6,.64-9.51,.1-12-.82-.44-.15-.92-.16-1.36-.02Z"/>
    <polygon class="cls-9" points="330.64 334.06 337.69 331.76 339.95 340.34 332.89 342.63 330.64 334.06"/>
    <path class="cls-17" d="M313.45,165.72s10,60.35,13,81.4c3.25,23.05,16,90.47,16,90.47l-13.09,3.62s-18.7-65.33-24-87.74c-5.75-24.33-18.4-87.75-18.4-87.75h26.49Z"/>
    <path class="cls-8" d="M297.38,190.47c5.12,12.79,5.7,34.53,3.62,43.44-3.14-14.63-6.74-32.13-9.51-45.74,.99-3.49,2.78-5.48,5.89,2.3Z"/>
    <polygon class="cls-7" points="329.03 341.47 343.05 337.61 342.77 331.9 326.99 337.35 329.03 341.47"/>
    <path class="cls-7" d="M345.08,347.87c-.65,.19-1.32,.31-2,.36-.07,0-.13-.03-.16-.09-.03-.06-.03-.13,0-.19,.18-.23,1.73-2.24,2.7-2.18,.23,0,.43,.14,.53,.34,.22,.29,.26,.68,.09,1-.28,.38-.7,.65-1.16,.76Zm-1.59,0c1.34-.16,2.26-.5,2.48-.93,.09-.21,.06-.45-.07-.63-.05-.1-.15-.16-.26-.17-.52-.06-1.5,.92-2.15,1.7v.03Z"/>
    <path class="cls-7" d="M343.15,348.22h-.08c-.06,0-.11-.05-.13-.11,0-.08-.85-2.06-.36-3,.12-.24,.35-.41,.62-.45,.29-.09,.61,.04,.76,.3,.41,.72-.16,2.53-.73,3.18l-.08,.08Zm0-3.17c-.14,.04-.25,.13-.31,.26-.17,.81-.07,1.64,.27,2.39,.48-.75,.67-1.65,.51-2.53-.05-.09-.14-.19-.39-.14l-.08,.02Z"/>
    <path class="cls-7" d="M311.9,104.93c.23,.49,.58,1.19,.89,1.8l1,1.89c.66,1.27,1.35,2.52,2.06,3.75,1.42,2.48,2.92,4.89,4.49,7.19,1.54,2.25,3.23,4.39,5.05,6.42,1.66,1.86,3.54,3.51,5.61,4.9l-1.52-.59c.46,.17,.96,.21,1.44,.12,.86-.14,1.69-.42,2.46-.82,2.08-1.08,4.01-2.42,5.75-4,1.96-1.72,3.82-3.55,5.58-5.48,1.8-1.94,3.59-4.06,5.24-6.07l.1-.12c1.14-1.38,3.18-1.57,4.56-.43,1.11,.92,1.48,2.46,.91,3.78-1.2,2.71-2.58,5.33-4.14,7.85-1.57,2.56-3.33,5.01-5.26,7.31-2.09,2.52-4.53,4.73-7.24,6.56-1.62,1.06-3.39,1.89-5.25,2.44-2.23,.65-4.59,.74-6.87,.27-.44-.09-.86-.24-1.25-.45l-.27-.14c-3.18-1.72-6.1-3.88-8.68-6.42-2.42-2.34-4.65-4.88-6.65-7.59-1.96-2.62-3.77-5.35-5.41-8.18-.81-1.41-1.58-2.82-2.33-4.27-.37-.72-.74-1.44-1.09-2.18s-.67-1.44-1.05-2.34c-1.37-3.32,.22-7.12,3.53-8.49,3.16-1.3,6.79,.07,8.31,3.14l.03,.15Z"/>
    <path class="cls-8" d="M316.33,123.71c-3.14-8.34-9.81-8.48-12.7-6.27,.21,.39,.43,.78,.65,1.17,1.57,2.73,3.29,5.37,5.15,7.91,1.9,2.61,4,5.08,6.27,7.38,.72,.71,1.46,1.41,2.23,2.09,.27-4.16-.27-8.33-1.6-12.28Z"/>
    <path class="cls-12" d="M355.57,118.54l6.42,1-.77-7.09s-9.13-.75-9.63,1.74l1.06,2.17c.57,1.15,1.65,1.96,2.92,2.18Z"/>
    <polygon class="cls-12" points="367.31 115.42 366.09 110.34 361.22 112.48 361.99 119.56 367.31 115.42"/>
    <polygon class="cls-12" points="279.51 353.92 286.92 353.92 287.88 336.75 280.47 336.75 279.51 353.92"/>
    <path class="cls-17" d="M287.31,353.06h-8.31c-.29-.01-.54,.22-.55,.51,0,0,0,0,0,0l-.4,6.59c0,.72,.57,1.31,1.29,1.32,2.9-.05,4.29-.22,7.95-.22,2.25,0,9.79,.23,12.9,.23s3-3.08,1.7-3.36c-5.91-1.24-11.19-3-13.29-4.61-.36-.3-.82-.46-1.29-.46Z"/>
    <polygon class="cls-9" points="280.47 336.76 287.88 336.76 287.38 345.61 279.97 345.61 280.47 336.76"/>
    <path class="cls-17" d="M299,165.34s-.64,64.79-1.84,86c-1.32,23.24-6.57,92.11-6.57,92.11h-13.59s-.93-67-1.75-90c-.89-25-1.85-88.13-1.85-88.13l25.6,.02Z"/>
    <polygon class="cls-7" points="276.44 343.47 291.11 343.47 291.93 338.32 275.73 339.12 276.44 343.47"/>
    <path class="cls-7" d="M289.94,354.35c-.67-.02-1.34-.1-2-.26-.07-.02-.12-.07-.13-.14,0-.06,.02-.13,.07-.17,.24-.17,2.34-1.6,3.24-1.24,.21,.08,.36,.26,.4,.48,.1,.33,.02,.68-.21,.94-.39,.29-.88,.43-1.37,.39Zm-1.5-.51c1.32,.26,2.3,.22,2.64-.12,.15-.17,.2-.41,.13-.62-.01-.11-.09-.2-.19-.24-.49-.19-1.72,.43-2.58,.98Z"/>
    <path class="cls-7" d="M288,354.09s-.05,0-.08,0c-.05-.03-.09-.08-.09-.14,0-.09-.18-2.22,.57-2.94,.19-.19,.46-.27,.73-.24,.3,0,.57,.22,.63,.52,.17,.81-.93,2.36-1.67,2.8-.03,0-.06,0-.09,0Zm1-3c-.14,0-.27,.05-.37,.15-.41,.71-.58,1.53-.49,2.35,.65-.54,1.38-1.72,1.27-2.25,0-.1-.08-.22-.33-.25h-.08Z"/>
    <path class="cls-7" d="M270.08,105.94c-.45-2.57,1.27-5.02,3.84-5.48,.05,0,.1-.02,.16-.02h.09c2.39-.35,5.39-.71,8.33-.85,5.61-.32,11.24-.32,16.85,0,2.59,.24,5.12,.67,7.14,1.06h.08c2.57,.52,4.64,2.42,5.39,4.94,2.42,8.15,5.3,24.79,1.53,60.12h-39.69c-.28-3.54,.51-15.06-.07-29.73-.56-10.08-1.78-20.12-3.65-30.04Z"/>
    <path class="cls-8" d="M270.46,108.12c.83,4.74,1.84,11.19,2.54,18,0,0,3.62-7.1,4.28-13.17s-4.52-6.53-6.82-4.83Z"/>
    <path class="cls-6" d="M281.81,99.62s3.15,5.55,11.42,7.91c7.3-4,5.28-8,5.28-8"/>
    <path class="cls-12" d="M298.51,99.52c-4.9-1.16-5.76-4.19-5.43-7.52,.08-.83,.21-1.66,.39-2.48l-6.14-5.1-4.51-3.74c1.25,5.43,2.66,15.32-1,18.94,0,0,3,5,11.42,4.56,7.08-.39,5.27-4.66,5.27-4.66Z"/>
    <polygon class="cls-6" points="292.86 104.21 291.46 102.42 288.21 104.98 292.86 104.21"/>
    <path class="cls-2" d="M290,108.13c.08-1.98,.57-3.92,1.43-5.71-2.48-.7-8.78-4.33-8.78-4.33l-2.35,1.43c1.87,4.11,5.4,7.24,9.7,8.61Z"/>
    <polygon class="cls-6" points="292.86 104.21 294.48 102.42 297.5 104.98 292.86 104.21"/>
    <path class="cls-2" d="M296.73,107.53c-.6-1.77-1.35-3.48-2.25-5.11,2.48-.7,1.65-4.19,1.65-4.19l2.64,1.11s4.16,6.19-2.04,8.19Z"/>
    <path class="cls-7" d="M293.51,105.86c.11,.43,0,.82-.25,.88s-.53-.23-.64-.66,0-.82,.26-.88,.53,.23,.63,.66Z"/>
    <path class="cls-9" d="M293.47,89.52c-.18,.82-.31,1.65-.39,2.48-2.29-.46-5.35-2.9-5.67-5.24-.11-.77-.14-1.56-.08-2.34l6.14,5.1Z"/>
    <path class="cls-17" d="M299.46,76.11c3.05,.72,3.59-6.53,1.71-10.12-1.51-2.89-5.69-1.84-6.78-.63s2.39,9.38,2.39,9.38l2.68,1.37Z"/>
    <path class="cls-12" d="M281,72.87c1.57,7.21,2.12,11.5,6.38,14.79,4.16,3.28,10.19,2.57,13.47-1.59,1.2-1.53,1.92-3.38,2.04-5.32,.56-6.71-2.1-17.37-9.68-19.41-5.13-1.53-10.54,1.39-12.07,6.53-.48,1.63-.53,3.35-.14,5Z"/>
    <path class="cls-17" d="M283.4,79.17c2.27-.19,5-4.95,1.71-10.12-1.76-2.75-5.68-1.83-6.78-.63-3,3.26,2.39,9.37,2.39,9.37l2.68,1.38Z"/>
    <path class="cls-17" d="M282.61,70.33c4.49-.22,13.87-3.46,15.22-7.83,2.63-8.48-6.74-8.72-11.86-4.16-3.37,3-6.52,7.34-12.64,8.44,.82,1.54,4.29,3.8,9.28,3.55Z"/>
    <path class="cls-17" d="M281,71.53c3.16-.54,6.69-3.49,7.27-6.7,1.15-6.21-3.11-4.67-6.85-1-2.32,2.24-3,4.72-7.28,6,.67,.98,3.31,2.29,6.86,1.7Z"/>
    <path class="cls-17" d="M293.62,63c2.84,3,7.35,5.84,8.72,4s-1.27-8.57-4.76-8.86-6.02,2.67-3.96,4.86Z"/>
    <path class="cls-12" d="M279.3,80.4c1.17,1.4,2.78,2.36,4.57,2.72,2.28,.38,2.79-1.72,1.63-3.76-1-1.83-3.47-4.24-5.5-3.7s-2.17,2.96-.7,4.74Z"/>
    <ellipse class="cls-17" cx="293.04" cy="73.5" rx=".71" ry="1.08" transform="translate(-8.4 53.26) rotate(-10.24)"/>
    <path class="cls-17" d="M299.05,72.79c.09,.59,.48,1,.86,1s.63-.57,.54-1.16-.48-1-.87-1-.58,.57-.53,1.16Z"/>
    <path class="cls-16" d="M297,73.34c.99,1.73,2.2,3.31,3.61,4.72-.74,.68-1.75,1-2.75,.86l-.86-5.58Z"/>
    <path class="cls-17" d="M295.64,80.81c-1.4,.02-2.75-.54-3.73-1.54-.06-.07-.06-.18,.02-.24,.07-.06,.18-.06,.24,.01,1.09,1.06,2.61,1.57,4.12,1.38,.09-.02,.18,.04,.2,.14,0,0,0,0,0,.01,.01,.09-.06,.18-.15,.19,0,0,0,0-.01,0-.23,.03-.46,.05-.69,.05Z"/>
    <path class="cls-17" d="M289.93,71.68c-.06,0-.12-.02-.17-.05-.17-.09-.23-.3-.14-.47,0,0,0,0,0,0,.53-.99,1.51-1.65,2.63-1.77,.19-.01,.35,.13,.36,.32,0,0,0,0,0,.01,.01,.19-.14,.36-.33,.37,0,0,0,0,0,0-.86,.12-1.6,.65-2,1.42-.07,.13-.21,.2-.35,.18Z"/>
    <path class="cls-17" d="M301.83,70.15c-.12,0-.23-.06-.29-.16-.49-.77-1.31-1.26-2.22-1.34-.19,0-.35-.16-.35-.35,0-.19,.16-.35,.35-.35h0c1.14,.08,2.18,.69,2.8,1.65,.11,.16,.07,.38-.09,.49,0,0,0,0,0,0-.06,.04-.13,.06-.2,.06Z"/>
    <path class="cls-7" d="M278.82,112.16c.07,0,0,0,0,0h0l-.1,.09-.24,.22-.48,.53c-.35,.36-.72,.75-1.07,1.14-.71,.8-1.42,1.64-2.08,2.53-1.34,1.79-2.54,3.69-3.58,5.68-2.12,4.09-3.65,8.47-4.53,13-.22,.95-.36,1.91-.41,2.88-.05,.99,0,1.97,.14,2.95,.33,2.23,.9,4.41,1.68,6.52,1.72,4.61,3.84,9.06,6.35,13.3l.09,.16c.89,1.55,.35,3.53-1.2,4.42-1.22,.7-2.76,.53-3.8-.42-2.07-1.91-3.98-3.99-5.71-6.21-1.76-2.24-3.35-4.61-4.75-7.09-1.49-2.64-2.65-5.45-3.46-8.37-.44-1.59-.73-3.22-.86-4.87-.1-1.67-.05-3.34,.16-5,.29-2.92,.83-5.82,1.61-8.65,.78-2.88,1.81-5.68,3.08-8.37,1.29-2.74,2.83-5.34,4.62-7.78,.91-1.24,1.89-2.43,2.94-3.56,.53-.57,1.07-1.14,1.66-1.69l.93-.84,.5-.42,.67-.53c2.79-2.26,6.88-1.84,9.14,.94s1.84,6.88-.94,9.14c-.12,.1-.24,.19-.36,.27v.02Z"/>
    <path class="cls-12" d="M275.56,159.15l4.07-.71-3.79,8.56s-6.73,0-6.42-3.51l.8-1.07c1.3-1.73,3.21-2.9,5.34-3.27Z"/>
    <polygon class="cls-12" points="285.14 162.73 281.67 169.63 275.84 166.98 279.63 158.44 285.14 162.73"/>
    <polygon class="cls-7" points="327.25 31.74 341.24 97.76 369.05 102.8 394.58 90.69 390.88 23.3 327.25 31.74"/>
    <polygon class="cls-3" points="327.25 31.74 341.24 97.76 369.05 102.8 394.58 90.69 390.88 23.3 327.25 31.74"/>
    <polygon class="cls-4" points="359.84 33.4 368.23 96.63 388.45 87.04 385.31 30.02 359.84 33.4"/>
    <polygon class="cls-2" points="381.25 39.64 340.79 45.01 342.42 53.3 375.12 48.97 376.98 75.56 365.93 79.33 354.28 78.57 353.01 72.06 346.27 72.95 348.93 86.52 367.04 87.7 384.22 81.84 381.25 39.64"/>
  </g>
</svg>