<?xml version="1.0" encoding="UTF-8"?>
<svg id="Layer_1" data-name="Layer 1" xmlns="http://www.w3.org/2000/svg" viewBox="0 0 455.76 432.65">
  <defs>
    <style>
      .cls-1, .cls-2, .cls-3, .cls-4 {
        fill: #fff;
      }

      .cls-5, .cls-2, .cls-6, .cls-3, .cls-7, .cls-4, .cls-8, .cls-9, .cls-10, .cls-11, .cls-12 {
        isolation: isolate;
      }

      .cls-5, .cls-13, .cls-6 {
        fill: #1f448b;
      }

      .cls-5, .cls-3 {
        opacity: .5;
      }

      .cls-2 {
        opacity: .8;
      }

      .cls-14 {
        fill: #fafafa;
      }

      .cls-15 {
        fill: #37474f;
      }

      .cls-16 {
        fill: #f5f5f5;
      }

      .cls-17 {
        fill: #455a64;
      }

      .cls-18 {
        fill: #f28f8f;
      }

      .cls-19 {
        fill: #e0e0e0;
      }

      .cls-6, .cls-20 {
        opacity: .7;
      }

      .cls-21, .cls-10 {
        opacity: .4;
      }

      .cls-7 {
        opacity: .35;
      }

      .cls-22 {
        fill: #e6e6e6;
      }

      .cls-4 {
        opacity: .6;
      }

      .cls-23 {
        fill: #ebebeb;
      }

      .cls-8 {
        opacity: .15;
      }

      .cls-9 {
        opacity: .1;
      }

      .cls-11 {
        opacity: .55;
      }

      .cls-24 {
        fill: #263238;
      }

      .cls-25 {
        fill: #ffa8a7;
      }

      .cls-12 {
        opacity: .25;
      }
    </style>
  </defs>
  <g id="freepik--Floor--inject-6">
    <ellipse id="freepik--floor--inject-6" class="cls-16" cx="227.88" cy="307.38" rx="227.88" ry="125.27"/>
  </g>
  <g id="freepik--Shadows--inject-6">
    <ellipse id="freepik--Shadow--inject-6" class="cls-19" cx="270.61" cy="371.46" rx="72.58" ry="41.9"/>
    <path id="freepik--shadow--inject-6" class="cls-19" d="M211.96,320.68l130.87-75.58c1.55-.89,1.55-2.34,0-3.23l-57.4-33.14c-1.76-.9-3.84-.9-5.6,0l-130.87,75.63c-1.55,.89-1.55,2.34,0,3.23l57.41,33.14c1.76,.89,3.84,.87,5.59-.05Z"/>
    <path id="freepik--shadow--inject-6-2" data-name="freepik--shadow--inject-6" class="cls-19" d="M101.68,335.84l-83.66-48.3c-1.54-.89-1.54-2.34,0-3.23l136.16-78.62c1.76-.89,3.84-.89,5.6,0l83.66,48.3c1.55,.9,1.55,2.34,0,3.24l-136.16,78.61c-1.76,.89-3.84,.89-5.6,0Z"/>
  </g>
  <g id="freepik--Photos--inject-6">
    <g id="freepik--photos--inject-6">
      <path class="cls-15" d="M145.75,198.29L20.06,270.87c-.97,.63-1.58,1.68-1.64,2.83v3.31c.06,1.15,.67,2.2,1.64,2.83l82.64,47.72c1.03,.52,2.24,.52,3.27,0l125.72-72.59c.96-.63,1.57-1.68,1.63-2.83v-3.31c-.06-1.15-.67-2.2-1.64-2.83l-82.66-47.71c-1.03-.52-2.24-.52-3.27,0Z"/>
      <path class="cls-17" d="M102.7,320.47l-82.64-47.71c-.52-.18-.8-.75-.62-1.27,.1-.29,.33-.52,.62-.62l125.69-72.58c1.03-.52,2.24-.52,3.27,0l82.66,47.71c.52,.19,.79,.76,.6,1.28-.1,.28-.32,.5-.6,.6l-125.71,72.59c-1.03,.52-2.24,.52-3.27,0Z"/>
      <path class="cls-24" d="M104.44,320.86v7.08c-.6,.03-1.2-.1-1.73-.37l-82.66-47.73c-.96-.63-1.57-1.67-1.63-2.82v-3.31c.06-1.02,.54-1.98,1.33-2.63-.58,.53-.48,1.22,.3,1.67l82.66,47.72c.53,.28,1.13,.42,1.73,.39Z"/>
      <polygon class="cls-19" points="211.94 252.86 208.5 254.86 220.71 162.74 224.16 160.75 211.94 252.86"/>
      <polygon class="cls-14" points="208.5 254.86 134.83 212.34 147.04 120.23 220.71 162.74 208.5 254.86"/>
      <polygon class="cls-23" points="224.16 160.75 220.71 162.74 147.04 120.23 150.54 118.21 224.16 160.75"/>
      <polygon class="cls-13" points="216.86 164.13 149.34 125.16 138.26 209.33 205.78 248.24 216.86 164.13"/>
      <polygon class="cls-2" points="216.86 164.13 149.34 125.16 138.26 209.33 205.78 248.24 216.86 164.13"/>
      <path class="cls-13" d="M145.5,176.91l17.33-16.42c1.81-1.71,3.95-1.18,4.75,1.18l12.42,36.58c.13,.43,.59,.68,1.02,.54,.37-.11,.61-.48,.58-.86l-.54-7.71,11.05-7.78c1.67-1.26,4.05-.93,5.31,.74,.17,.22,.31,.46,.42,.71l13,26-4.62,35-64.89-37.4,4.17-30.58Z"/>
      <path class="cls-13" d="M204.25,164.36c-3-1.76-5.9-.56-6.37,2.67s1.66,7.29,4.74,9.07,5.93,.59,6.37-2.66-1.69-7.34-4.74-9.08Z"/>
      <polygon class="cls-19" points="152.4 126.94 141.33 207.49 138.27 209.27 149.34 125.16 152.4 126.94"/>
      <polygon class="cls-23" points="141.33 207.49 206.22 244.93 205.78 248.24 138.27 209.27 141.33 207.49"/>
      <polygon class="cls-19" points="193.62 263.48 190.17 265.47 202.39 173.36 205.84 171.37 193.62 263.48"/>
      <polygon class="cls-14" points="190.17 265.47 116.5 222.95 128.71 130.84 202.39 173.36 190.17 265.47"/>
      <polygon class="cls-23" points="205.84 171.37 202.39 173.36 128.71 130.84 132.21 128.82 205.84 171.37"/>
      <polygon class="cls-13" points="198.54 174.74 131.02 135.78 119.94 219.94 187.46 258.86 198.54 174.74"/>
      <polygon class="cls-2" points="198.54 174.74 131.02 135.78 119.94 219.94 187.46 258.86 198.54 174.74"/>
      <path class="cls-13" d="M127.17,187.52l17.32-16.41c1.81-1.72,4-1.19,4.75,1.17l12.42,36.58c.13,.43,.59,.68,1.02,.54,.37-.11,.61-.48,.58-.86l-.54-7.71,11.05-7.77c1.68-1.26,4.06-.93,5.32,.75,.16,.22,.3,.45,.42,.7l13,26-4.61,35-64.9-37.43,4.17-30.56Z"/>
      <path class="cls-13" d="M185.92,174.96c-3.05-1.76-5.89-.57-6.36,2.66s1.65,7.3,4.74,9.08,5.93,.58,6.36-2.67-1.69-7.31-4.74-9.07Z"/>
      <polygon class="cls-19" points="134.08 137.55 123 218.11 119.95 219.88 131.02 135.78 134.08 137.55"/>
      <polygon class="cls-23" points="123 218.11 187.89 255.54 187.46 258.86 119.95 219.88 123 218.11"/>
      <polygon class="cls-19" points="175.29 274.1 171.85 276.09 184.06 183.98 187.51 181.98 175.29 274.1"/>
      <polygon class="cls-14" points="171.85 276.09 98.17 233.57 110.39 141.46 184.06 183.98 171.85 276.09"/>
      <polygon class="cls-23" points="187.51 181.98 184.06 183.98 110.39 141.46 113.89 139.44 187.51 181.98"/>
      <polygon class="cls-13" points="180.21 185.36 112.69 146.39 101.61 230.56 169.13 269.47 180.21 185.36"/>
      <polygon class="cls-2" points="180.21 185.36 112.69 146.39 101.61 230.56 169.13 269.47 180.21 185.36"/>
      <path class="cls-13" d="M108.83,198.14l17.32-16.42c1.81-1.71,3.94-1.18,4.75,1.18l12.41,36.58c.13,.43,.59,.68,1.02,.54,.37-.11,.61-.48,.58-.86l-.54-7.71,11.06-7.78c1.67-1.26,4.05-.93,5.31,.74,.17,.22,.31,.46,.42,.71l13,26-4.61,35-64.89-37.43,4.17-30.55Z"/>
      <path class="cls-13" d="M167.6,185.57c-3.05-1.76-5.9-.56-6.37,2.67s1.66,7.29,4.74,9.07,5.93,.59,6.36-2.66-1.69-7.29-4.73-9.08Z"/>
      <polygon class="cls-19" points="115.75 148.17 104.68 228.73 101.62 230.5 112.69 146.39 115.75 148.17"/>
      <polygon class="cls-23" points="104.68 228.73 169.57 266.16 169.13 269.47 101.62 230.5 104.68 228.73"/>
      <polygon class="cls-19" points="156.96 284.71 153.52 286.7 165.74 194.59 169.18 192.6 156.96 284.71"/>
      <polygon class="cls-14" points="153.52 286.7 79.85 244.18 92.06 152.07 165.74 194.59 153.52 286.7"/>
      <polygon class="cls-23" points="169.18 192.6 165.74 194.59 92.06 152.07 95.56 150.05 169.18 192.6"/>
      <polygon class="cls-13" points="161.89 195.97 94.37 157.01 83.29 241.17 150.81 280.09 161.89 195.97"/>
      <polygon class="cls-2" points="161.89 195.97 94.37 157.01 83.29 241.17 150.81 280.09 161.89 195.97"/>
      <path class="cls-13" d="M90.52,208.75l17.31-16.39c1.81-1.71,4-1.19,4.75,1.17l12.42,36.58c.13,.43,.59,.68,1.02,.54,.37-.11,.61-.48,.58-.86l-.54-7.71,11-7.77c1.68-1.26,4.06-.93,5.32,.75,.16,.22,.3,.45,.42,.7l13,26-4.62,35-64.83-37.4,4.17-30.61Z"/>
      <path class="cls-13" d="M149.27,196.19c-3.05-1.76-5.9-.57-6.36,2.66s1.65,7.3,4.73,9.08,5.94,.59,6.37-2.67-1.69-7.31-4.74-9.07Z"/>
      <polygon class="cls-19" points="97.42 158.79 86.35 239.34 83.29 241.11 94.37 157.01 97.42 158.79"/>
      <polygon class="cls-23" points="86.35 239.34 151.24 276.77 150.81 280.09 83.29 241.11 86.35 239.34"/>
      <polygon class="cls-19" points="138.64 295.32 135.2 297.32 147.41 205.2 150.86 203.21 138.64 295.32"/>
      <polygon class="cls-14" points="135.2 297.32 61.52 254.8 73.74 162.69 147.41 205.2 135.2 297.32"/>
      <polygon class="cls-23" points="150.86 203.21 147.41 205.2 73.74 162.69 77.23 160.67 150.86 203.21"/>
      <polygon class="cls-13" points="143.56 206.59 76.04 167.62 64.96 251.79 132.48 290.7 143.56 206.59"/>
      <polygon class="cls-2" points="143.56 206.59 76.04 167.62 64.96 251.79 132.48 290.7 143.56 206.59"/>
      <path class="cls-13" d="M72.2,219.36l17.32-16.42c1.81-1.71,3.94-1.18,4.74,1.18l12.42,36.58c.13,.43,.59,.68,1.02,.54,.37-.11,.61-.48,.58-.86l-.54-7.71,11.09-7.77c1.69-1.24,4.07-.88,5.31,.81,.15,.2,.28,.42,.39,.65l13,26-4.61,35-64.89-37.4,4.17-30.6Z"/>
      <path class="cls-13" d="M130.94,206.8c-3-1.75-5.89-.56-6.36,2.67s1.66,7.29,4.74,9.07,5.93,.59,6.36-2.66-1.69-7.32-4.74-9.08Z"/>
      <polygon class="cls-19" points="79.1 169.4 68.03 249.96 64.97 251.73 76.04 167.62 79.1 169.4"/>
      <polygon class="cls-23" points="68.03 249.96 132.92 287.39 132.48 290.7 64.97 251.73 68.03 249.96"/>
      <polygon class="cls-19" points="120.31 305.94 116.87 307.93 129.08 215.82 132.53 213.83 120.31 305.94"/>
      <polygon class="cls-14" points="116.87 307.93 43.2 265.41 55.41 173.3 129.08 215.82 116.87 307.93"/>
      <polygon class="cls-23" points="132.53 213.83 129.08 215.82 55.41 173.3 58.91 171.28 132.53 213.83"/>
      <polygon class="cls-13" points="125.23 217.2 57.72 178.24 46.63 262.4 114.15 301.32 125.23 217.2"/>
      <polygon class="cls-2" points="125.23 217.2 57.72 178.24 46.63 262.4 114.15 301.32 125.23 217.2"/>
      <path class="cls-13" d="M53.83,229.98l17.32-16.41c1.81-1.71,4-1.19,4.75,1.17l12.46,36.62c.13,.43,.59,.68,1.02,.54,.37-.11,.61-.48,.58-.86l-.54-7.71,11-7.77c1.67-1.26,4.05-.93,5.31,.74,.17,.22,.31,.46,.42,.71l13,26-4.62,35-64.83-37.44,4.13-30.59Z"/>
      <path class="cls-13" d="M112.62,217.42c-3-1.76-5.9-.57-6.36,2.67s1.65,7.29,4.73,9.07,5.93,.59,6.37-2.67-1.69-7.31-4.74-9.07Z"/>
      <polygon class="cls-19" points="60.77 180.02 49.7 260.57 46.64 262.35 57.72 178.24 60.77 180.02"/>
      <polygon class="cls-23" points="49.7 260.57 114.59 298 114.15 301.32 46.64 262.35 49.7 260.57"/>
    </g>
    <g id="freepik--photos--inject-6-2" data-name="freepik--photos--inject-6">
      <path class="cls-15" d="M145.75,81.94L20.06,154.52c-.97,.63-1.58,1.68-1.64,2.84v3.31c.06,1.15,.67,2.21,1.64,2.84l82.64,47.71c1.03,.52,2.24,.52,3.27,0l125.72-72.59c.96-.63,1.57-1.68,1.63-2.83v-3.31c-.06-1.15-.67-2.2-1.64-2.83l-82.66-47.71c-1.03-.52-2.24-.53-3.27,0Z"/>
      <path class="cls-17" d="M102.7,204.12L20.06,156.41c-.52-.18-.8-.75-.62-1.27,.1-.29,.33-.52,.62-.62l125.69-72.58c1.03-.52,2.24-.52,3.27,0l82.66,47.71c.91,.52,.91,1.36,0,1.89l-125.71,72.58c-1.03,.53-2.24,.53-3.27,0Z"/>
      <path class="cls-24" d="M104.44,204.51v7.09c-.6,.02-1.2-.11-1.73-.38L20.05,163.49c-.96-.63-1.57-1.67-1.63-2.82v-3.31c.06-1.02,.54-1.98,1.33-2.63-.58,.53-.48,1.22,.3,1.68l82.66,47.71c.53,.29,1.13,.42,1.73,.39Z"/>
      <polygon class="cls-19" points="211.94 135.76 208.5 137.75 220.71 45.64 224.16 43.65 211.94 135.76"/>
      <polygon class="cls-14" points="208.5 137.75 134.83 95.23 147.04 3.12 220.71 45.64 208.5 137.75"/>
      <polygon class="cls-23" points="224.16 43.65 220.71 45.64 147.04 3.12 150.54 1.1 224.16 43.65"/>
      <polygon class="cls-13" points="216.86 47.02 149.34 8.06 138.26 92.22 205.78 131.14 216.86 47.02"/>
      <polygon class="cls-2" points="216.86 47.02 149.34 8.06 138.26 92.22 205.78 131.14 216.86 47.02"/>
      <path class="cls-13" d="M145.5,59.8l17.33-16.44c1.81-1.72,3.95-1.19,4.75,1.17l12.42,36.58c.13,.43,.59,.68,1.02,.54,.37-.11,.61-.48,.58-.86l-.54-7.71,11.04-7.72c1.66-1.26,4.03-.94,5.3,.72,.17,.22,.32,.47,.43,.72l13,26-4.62,35-64.88-37.44,4.17-30.56Z"/>
      <path class="cls-13" d="M204.25,47.24c-3-1.76-5.9-.57-6.37,2.66s1.66,7.3,4.74,9.08,5.93,.58,6.37-2.67-1.69-7.31-4.74-9.07Z"/>
      <polygon class="cls-19" points="152.4 9.83 141.33 90.39 138.27 92.16 149.34 8.06 152.4 9.83"/>
      <polygon class="cls-23" points="141.33 90.39 206.22 127.82 205.78 131.14 138.27 92.16 141.33 90.39"/>
      <polygon class="cls-19" points="193.62 146.37 190.17 148.36 202.39 56.25 205.84 54.26 193.62 146.37"/>
      <polygon class="cls-14" points="190.17 148.36 116.5 105.85 128.71 13.74 202.39 56.25 190.17 148.36"/>
      <polygon class="cls-23" points="205.84 54.26 202.39 56.25 128.71 13.74 132.21 11.72 205.84 54.26"/>
      <polygon class="cls-13" points="198.54 57.64 131.02 18.67 119.94 102.83 187.46 141.75 198.54 57.64"/>
      <polygon class="cls-2" points="198.54 57.64 131.02 18.67 119.94 102.83 187.46 141.75 198.54 57.64"/>
      <path class="cls-13" d="M127.17,70.41l17.32-16.41c1.81-1.71,4-1.18,4.75,1.18l12.42,36.58c.13,.43,.59,.68,1.02,.55,.38-.11,.62-.49,.58-.88l-.54-7.7,11.05-7.78c1.68-1.26,4.06-.93,5.32,.75,.16,.22,.3,.45,.42,.7l13,26-4.61,35-64.9-37.43,4.17-30.56Z"/>
      <path class="cls-13" d="M185.92,57.85c-3.05-1.76-5.89-.56-6.36,2.67s1.65,7.29,4.74,9.07,5.93,.59,6.36-2.66-1.69-7.32-4.74-9.08Z"/>
      <polygon class="cls-19" points="134.08 20.45 123 101 119.95 102.78 131.02 18.67 134.08 20.45"/>
      <polygon class="cls-23" points="123 101 187.89 138.43 187.46 141.75 119.95 102.78 123 101"/>
      <polygon class="cls-19" points="175.29 156.99 171.85 158.98 184.06 66.87 187.51 64.88 175.29 156.99"/>
      <polygon class="cls-14" points="171.85 158.98 98.17 116.46 110.39 24.35 184.06 66.87 171.85 158.98"/>
      <polygon class="cls-23" points="187.51 64.88 184.06 66.87 110.39 24.35 113.89 22.33 187.51 64.88"/>
      <polygon class="cls-13" points="180.21 68.25 112.69 29.28 101.61 113.45 169.13 152.36 180.21 68.25"/>
      <polygon class="cls-2" points="180.21 68.25 112.69 29.28 101.61 113.45 169.13 152.36 180.21 68.25"/>
      <path class="cls-13" d="M108.83,81.03l17.32-16.41c1.81-1.72,3.94-1.19,4.75,1.17l12.43,36.57c.13,.43,.59,.68,1.02,.54,.37-.11,.61-.48,.58-.86l-.54-7.71,11.06-7.77c1.66-1.26,4.03-.94,5.3,.72,.17,.22,.32,.47,.43,.72l13,26-4.61,35-64.89-37.43,4.15-30.54Z"/>
      <path class="cls-13" d="M167.6,68.47c-3.05-1.76-5.9-.57-6.37,2.66s1.66,7.3,4.74,9.08,5.93,.58,6.36-2.67-1.69-7.31-4.73-9.07Z"/>
      <polygon class="cls-19" points="115.75 31.06 104.68 111.62 101.62 113.39 112.69 29.28 115.75 31.06"/>
      <polygon class="cls-23" points="104.68 111.62 169.57 149.05 169.13 152.36 101.62 113.39 104.68 111.62"/>
      <polygon class="cls-19" points="156.96 167.6 153.52 169.59 165.74 77.48 169.18 75.49 156.96 167.6"/>
      <polygon class="cls-14" points="153.52 169.59 79.85 127.08 92.06 34.97 165.74 77.48 153.52 169.59"/>
      <polygon class="cls-23" points="169.18 75.49 165.74 77.48 92.06 34.97 95.56 32.95 169.18 75.49"/>
      <polygon class="cls-13" points="161.89 78.86 94.37 39.9 83.29 124.06 150.81 162.98 161.89 78.86"/>
      <polygon class="cls-2" points="161.89 78.86 94.37 39.9 83.29 124.06 150.81 162.98 161.89 78.86"/>
      <path class="cls-13" d="M90.52,91.64l17.31-16.41c1.81-1.71,4-1.18,4.75,1.18l12.42,36.58c.13,.43,.59,.68,1.02,.54,.37-.11,.61-.48,.58-.86l-.54-7.71,11-7.78c1.68-1.26,4.06-.93,5.32,.75,.16,.22,.3,.45,.42,.7l13,26-4.62,35-64.89-37.44,4.23-30.55Z"/>
      <path class="cls-13" d="M149.27,79.08c-3.05-1.76-5.9-.56-6.36,2.67s1.65,7.29,4.73,9.07c3.08,1.78,5.94,.59,6.37-2.66s-1.69-7.32-4.74-9.08Z"/>
      <polygon class="cls-19" points="97.42 41.68 86.35 122.23 83.29 124.01 94.37 39.9 97.42 41.68"/>
      <polygon class="cls-23" points="86.35 122.23 151.24 159.67 150.81 162.98 83.29 124.01 86.35 122.23"/>
      <polygon class="cls-19" points="138.64 178.22 135.2 180.21 147.41 88.1 150.86 86.11 138.64 178.22"/>
      <polygon class="cls-14" points="135.2 180.21 61.52 137.69 73.74 45.58 147.41 88.1 135.2 180.21"/>
      <polygon class="cls-23" points="150.86 86.11 147.41 88.1 73.74 45.58 77.23 43.56 150.86 86.11"/>
      <polygon class="cls-13" points="143.56 89.48 76.04 50.52 64.96 134.68 132.48 173.6 143.56 89.48"/>
      <polygon class="cls-2" points="143.56 89.48 76.04 50.52 64.96 134.68 132.48 173.6 143.56 89.48"/>
      <path class="cls-13" d="M72.2,102.26l17.32-16.41c1.81-1.72,3.94-1.19,4.74,1.17l12.42,36.58c.13,.43,.59,.68,1.02,.54,.37-.11,.61-.48,.58-.86l-.54-7.71,11.09-7.77c1.67-1.27,4.04-.94,5.31,.72,.17,.22,.31,.46,.43,.72l13,26-4.61,35-64.93-37.39,4.17-30.59Z"/>
      <path class="cls-13" d="M130.94,89.7c-3-1.76-5.89-.57-6.36,2.66-.47,3.23,1.66,7.3,4.74,9.08s5.93,.58,6.36-2.67-1.69-7.31-4.74-9.07Z"/>
      <polygon class="cls-19" points="79.1 52.29 68.03 132.85 64.97 134.62 76.04 50.52 79.1 52.29"/>
      <polygon class="cls-23" points="68.03 132.85 132.92 170.28 132.48 173.6 64.97 134.62 68.03 132.85"/>
      <polygon class="cls-19" points="120.31 188.83 116.87 190.82 129.08 98.71 132.53 96.72 120.31 188.83"/>
      <polygon class="cls-14" points="116.87 190.82 43.2 148.31 55.41 56.2 129.08 98.71 116.87 190.82"/>
      <polygon class="cls-23" points="132.53 96.72 129.08 98.71 55.41 56.2 58.91 54.18 132.53 96.72"/>
      <polygon class="cls-13" points="125.23 100.1 57.72 61.13 46.63 145.29 114.15 184.21 125.23 100.1"/>
      <polygon class="cls-2" points="125.23 100.1 57.72 61.13 46.63 145.29 114.15 184.21 125.23 100.1"/>
      <path class="cls-13" d="M53.83,112.88l17.36-16.42c1.81-1.71,4-1.18,4.75,1.18l12.42,36.58c.13,.43,.59,.68,1.02,.54,.37-.11,.61-.48,.58-.86l-.54-7.71,11-7.78c1.67-1.26,4.05-.93,5.31,.74,.17,.22,.31,.46,.42,.71l13,26-4.62,35-64.83-37.4,4.13-30.58Z"/>
      <path class="cls-13" d="M112.62,100.36c-3-1.76-5.9-.56-6.36,2.67s1.65,7.29,4.73,9.07,5.93,.59,6.37-2.66-1.69-7.37-4.74-9.08Z"/>
      <polygon class="cls-19" points="60.77 62.91 49.7 143.46 46.64 145.24 57.72 61.13 60.77 62.91"/>
      <polygon class="cls-23" points="49.7 143.46 114.59 180.89 114.15 184.21 46.64 145.24 49.7 143.46"/>
    </g>
  </g>
  <g id="freepik--Window--inject-6">
    <g id="freepik--window--inject-6">
      <path class="cls-17" d="M344.03,6.68V230.97c-.18,3.28-1.91,6.28-4.66,8.07l-128.85,74.32c-.46,.29-1,.44-1.54,.44-.2,0-.4-.03-.6-.07-.14-.03-.27-.08-.4-.14l-.24-.14-.28-.18c-.09-.07-.18-.15-.26-.23-.36-.35-.65-.76-.85-1.22-.33-.74-.49-1.55-.49-2.36V86.36c.18-3.28,1.91-6.28,4.66-8.07L339.37,3.99c.92-.64,2.09-.78,3.13-.39,.14,.06,.28,.13,.4,.23h0c.12,.08,.22,.19,.31,.3,.05,.05,.1,.11,.14,.17,.06,.07,.11,.15,.15,.24,.12,.19,.21,.39,.27,.6,.06,.13,.1,.27,.11,.41,.01,.03,.01,.06,0,.09,.04,.14,.06,.28,.07,.43,.04,.2,.06,.41,.08,.61Z"/>
      <path class="cls-13" d="M342.5,3.6c-1.04-.39-2.21-.25-3.13,.39L210.52,78.26c-2.77,1.79-4.51,4.8-4.69,8.1v15.2l-5.95-3.49v-15.12c.19-3.25,1.92-6.22,4.65-8L333.42,.63c1-.72,2.31-.83,3.41-.27,.81,.5,4.68,2.72,5.67,3.24Z"/>
      <path class="cls-13" d="M344.02,6.65c0-2.94-2.09-4.13-4.65-2.65L210.52,78.26c-2.77,1.8-4.51,4.81-4.69,8.1v15.2L344.02,21.94V6.65Z"/>
      <g class="cls-21">
        <path class="cls-1" d="M339.37,4L210.52,78.26c-1.36,.86-2.49,2.05-3.28,3.46l-5.91-3.43c.77-1.39,1.89-2.56,3.24-3.4L333.42,.63c1-.72,2.31-.83,3.41-.27,.84,.51,4.71,2.71,5.69,3.24-1.05-.4-2.23-.25-3.15,.4Z"/>
      </g>
      <path class="cls-8" d="M199.9,98.09v-15.14c.06-1.65,.55-3.26,1.42-4.66l5.93,3.41c-.88,1.4-1.37,3.01-1.42,4.66v15.2l-5.93-3.47Z"/>
      <path class="cls-17" d="M315.97,23.99c-1.45,.84-2.63,3.34-2.63,5.57s1.18,3.38,2.63,2.54,2.63-3.34,2.63-5.57-1.18-3.38-2.63-2.54Z"/>
      <path class="cls-17" d="M325.44,18.51c-1.45,.84-2.63,3.34-2.63,5.57s1.18,3.38,2.63,2.54,2.63-3.34,2.63-5.57-1.17-3.38-2.63-2.54Z"/>
      <path class="cls-17" d="M334.92,13.03c-1.46,.84-2.63,3.34-2.63,5.57s1.17,3.38,2.63,2.54,2.63-3.34,2.63-5.57-1.18-3.37-2.63-2.54Z"/>
      <path class="cls-15" d="M207.57,313.36c-.17-.11-.37-.22-.58-.34-.43-.26-.92-.54-1.44-.81h0l-.78-.44h-.06c-.43-.24-.84-.49-1.23-.7l-1-.58c-.19-.12-.38-.22-.58-.32-.31-.16-.58-.38-.8-.65-.26-.28-.47-.6-.62-.94-.36-.77-.55-1.62-.54-2.47V98.11l5.89,3.45v207.92c.02,.81,.19,1.61,.49,2.36,.2,.46,.49,.87,.85,1.22,.07,.09,.16,.17,.26,.23,.04,.03,.09,.06,.14,.07Z"/>
      <path class="cls-13" d="M217.3,114.21c0-.31,.09-.6,.24-.87l3.35-6.93c.03-.08,.08-.15,.15-.2,0,0,.07-.06,.09-.06,.07-.07,.19-.07,.26,0,.08,.09,.12,.22,.11,.34v2.32c0,.24-.02,.48-.07,.72-.05,.22-.13,.44-.24,.64l-1.76,3.66,1.76,1.62c.11,.1,.19,.22,.24,.36,.06,.21,.08,.42,.07,.64v2.33c0,.16-.04,.32-.11,.47-.05,.13-.14,.24-.26,.32h-.09s-.1,.02-.15,0l-3.35-3.07c-.17-.14-.26-.37-.24-.59v-1.7Z"/>
      <path class="cls-13" d="M229.55,96.83c.06-.24,.15-.46,.26-.68,.1-.22,.27-.41,.49-.53l1.26-.73c.07-.06,.19-.06,.26,0,.08,.09,.12,.22,.11,.34,0,.09,0,.17,0,.26l-5.75,24.47c-.05,.23-.13,.45-.23,.66-.11,.23-.29,.43-.51,.56l-1.21,.7c-.07,.06-.19,.06-.26,0-.08-.09-.12-.22-.11-.34,0-.09,0-.17,0-.26l5.69-24.45Z"/>
      <path class="cls-13" d="M238.44,103.74c0,.31-.09,.6-.24,.87l-3.37,6.93c-.04,.08-.09,.14-.15,.2-.05,0-.07,.06-.09,.06-.07,.06-.19,.06-.26,0-.08-.1-.12-.22-.11-.35v-2.32c0-.24,.02-.48,.07-.72,.05-.22,.13-.44,.24-.64l1.76-3.66-1.76-1.62c-.11-.1-.19-.22-.24-.36-.06-.21-.08-.42-.07-.64v-2.33c0-.16,.04-.32,.11-.47,.05-.13,.14-.24,.26-.32h.09s.1-.02,.15,0l3.35,3.07c.17,.14,.26,.37,.24,.59l.02,1.71Z"/>
      <path class="cls-13" d="M247.75,102.13c.09-.08,.23-.08,.32,0,.1,.12,.15,.27,.14,.42v2.56c0,.2-.05,.4-.14,.58-.07,.16-.18,.29-.32,.39l-1.58,.92c-.09,.08-.24,.08-.33,0-.1-.11-.15-.26-.13-.41v-2.57c0-.2,.04-.39,.13-.57,.07-.16,.18-.3,.33-.4l1.58-.92Z"/>
      <path class="cls-13" d="M253.03,99.08c.09-.08,.23-.08,.32,0,.11,.11,.16,.27,.14,.42v2.56c0,.2-.05,.4-.14,.58-.06,.16-.17,.3-.32,.39l-1.58,.92c-.09,.08-.23,.08-.32,0-.1-.11-.16-.27-.14-.42v-2.57c0-.2,.05-.39,.14-.57,.06-.16,.17-.3,.32-.4l1.58-.91Z"/>
      <path class="cls-13" d="M258.31,96.03c.09-.08,.24-.08,.33,0,.1,.12,.14,.27,.13,.42v2.56c0,.2-.04,.4-.13,.58-.07,.16-.18,.3-.33,.39l-1.58,.92c-.09,.08-.23,.08-.32,0-.1-.12-.15-.27-.13-.42v-2.56c0-.2,.04-.39,.13-.57,.06-.16,.17-.3,.32-.4l1.58-.92Z"/>
      <path class="cls-13" d="M218.71,132.9l77.42-44.69c.91-.53,1.66-.16,1.66,.83-.09,1.13-.7,2.15-1.66,2.75l-77.42,44.7c-.91,.53-1.65,.15-1.65-.84,.08-1.13,.69-2.15,1.65-2.75Z"/>
      <path class="cls-1" d="M243.55,161.59l77.42-44.7c.91-.53,1.66-.15,1.66,.84-.08,1.13-.7,2.14-1.66,2.74l-77.42,44.7c-.91,.53-1.65,.15-1.65-.84,.08-1.12,.69-2.14,1.65-2.74Z"/>
      <path class="cls-19" d="M243.55,190.27l37.06-21.38c.91-.53,1.65-.15,1.65,.84-.08,1.13-.69,2.15-1.65,2.75l-37.06,21.37c-.91,.53-1.65,.16-1.65-.83,.08-1.13,.69-2.15,1.65-2.75Z"/>
      <path class="cls-13" d="M302.55,84.5l30.84-17.87c.91-.53,1.65-.15,1.65,.84-.08,1.12-.69,2.14-1.65,2.74l-30.84,17.88c-.92,.53-1.66,.15-1.66-.84,.08-1.13,.7-2.15,1.66-2.75Z"/>
      <path class="cls-13" d="M218.71,290.64l77.42-44.7c.91-.52,1.66-.15,1.66,.84-.09,1.13-.7,2.15-1.66,2.75l-77.42,44.7c-.91,.52-1.65,.15-1.65-.84,.08-1.13,.69-2.15,1.65-2.75Z"/>
      <path class="cls-13" d="M302.55,242.24l30.84-17.88c.91-.53,1.65-.16,1.65,.83-.08,1.13-.69,2.15-1.65,2.75l-30.84,17.87c-.92,.53-1.66,.16-1.66-.83,.09-1.13,.7-2.14,1.66-2.74Z"/>
      <path class="cls-13" d="M302.55,199.29l30.84-17.87c.91-.53,1.65-.15,1.65,.84-.08,1.13-.69,2.15-1.65,2.75l-30.84,17.87c-.92,.53-1.66,.15-1.66-.84,.08-1.13,.7-2.15,1.66-2.75Z"/>
      <path class="cls-13" d="M302.55,213.63l30.84-17.87c.91-.53,1.65-.16,1.65,.83-.08,1.13-.69,2.15-1.65,2.75l-30.84,17.88c-.92,.52-1.66,.15-1.66-.84,.08-1.13,.7-2.15,1.66-2.75Z"/>
      <path class="cls-13" d="M276.25,214.43l17.32-10c.92-.53,1.66-.15,1.66,.84-.08,1.13-.7,2.15-1.66,2.75l-17.32,10c-.92,.53-1.66,.15-1.66-.84,.08-1.13,.7-2.15,1.66-2.75Z"/>
      <path class="cls-13" d="M218.71,147.28l45.12-26.09c.91-.53,1.65-.15,1.65,.83-.08,1.13-.69,2.15-1.65,2.75l-45.12,26.09c-.91,.53-1.65,.16-1.65-.83,.08-1.13,.69-2.15,1.65-2.75Z"/>
      <path class="cls-4" d="M218.71,147.28l45.12-26.09c.91-.53,1.65-.15,1.65,.83-.08,1.13-.69,2.15-1.65,2.75l-45.12,26.09c-.91,.53-1.65,.16-1.65-.83,.08-1.13,.69-2.15,1.65-2.75Z"/>
      <path class="cls-13" d="M218.71,161.59l15.32-8.85c.92-.53,1.66-.16,1.66,.83-.07,1.14-.69,2.18-1.66,2.79l-15.32,8.86c-.91,.52-1.65,.15-1.65-.84,.07-1.14,.68-2.18,1.65-2.79Z"/>
      <path class="cls-4" d="M218.71,161.59l15.32-8.85c.92-.53,1.66-.16,1.66,.83-.07,1.14-.69,2.18-1.66,2.79l-15.32,8.86c-.91,.52-1.65,.15-1.65-.84,.07-1.14,.68-2.18,1.65-2.79Z"/>
      <path class="cls-13" d="M218.71,175.93l15.32-8.85c.92-.53,1.66-.16,1.66,.83-.08,1.13-.7,2.15-1.66,2.75l-15.32,8.86c-.91,.53-1.65,.15-1.65-.84,.08-1.13,.69-2.15,1.65-2.75Z"/>
      <path class="cls-4" d="M218.71,175.93l15.32-8.85c.92-.53,1.66-.16,1.66,.83-.08,1.13-.7,2.15-1.66,2.75l-15.32,8.86c-.91,.53-1.65,.15-1.65-.84,.08-1.13,.69-2.15,1.65-2.75Z"/>
      <path class="cls-13" d="M218.71,190.27l15.32-8.85c.92-.53,1.66-.16,1.66,.83-.08,1.13-.7,2.15-1.66,2.75l-15.32,8.86c-.91,.53-1.65,.15-1.65-.84,.08-1.13,.69-2.15,1.65-2.75Z"/>
      <path class="cls-4" d="M218.71,190.27l15.32-8.86c.92-.53,1.66-.15,1.66,.84-.08,1.13-.7,2.15-1.66,2.75l-15.32,8.85c-.91,.53-1.65,.16-1.65-.83,.08-1.13,.69-2.15,1.65-2.75Z"/>
      <path class="cls-13" d="M243.55,175.93l45.16-26.09c.91-.53,1.65-.16,1.65,.83-.08,1.13-.69,2.15-1.65,2.75l-45.16,26.09c-.91,.53-1.65,.16-1.65-.83,.08-1.13,.69-2.15,1.65-2.75Z"/>
      <path class="cls-13" d="M295.12,146.13l19.64-11.3c.91-.53,1.65-.15,1.65,.84-.08,1.13-.69,2.15-1.65,2.75l-19.64,11.3c-.91,.53-1.65,.15-1.65-.84,.08-1.13,.69-2.15,1.65-2.75Z"/>
      <path class="cls-13" d="M218.71,204.61l15.32-8.85c.92-.53,1.66-.16,1.66,.83-.08,1.14-.69,2.17-1.66,2.77l-15.32,8.86c-.91,.53-1.65,.15-1.65-.84,.08-1.13,.69-2.16,1.65-2.77Z"/>
      <path class="cls-4" d="M218.71,204.61l15.32-8.85c.92-.53,1.66-.16,1.66,.83-.08,1.14-.69,2.17-1.66,2.77l-15.32,8.86c-.91,.53-1.65,.15-1.65-.84,.08-1.13,.69-2.16,1.65-2.77Z"/>
      <path class="cls-13" d="M270.28,117.48l19.64-11.3c.91-.52,1.66-.15,1.66,.84-.09,1.13-.7,2.15-1.66,2.75l-19.64,11.3c-.91,.53-1.65,.15-1.65-.84,.08-1.13,.69-2.15,1.65-2.75Z"/>
      <path class="cls-4" d="M270.28,117.48l19.64-11.3c.91-.52,1.66-.15,1.66,.84-.09,1.13-.7,2.15-1.66,2.75l-19.64,11.3c-.91,.53-1.65,.15-1.65-.84,.08-1.13,.69-2.15,1.65-2.75Z"/>
      <path class="cls-19" d="M262.18,193.83l45.16-26.09c.91-.53,1.65-.15,1.65,.84-.08,1.13-.69,2.15-1.65,2.75l-45.16,26.09c-.91,.52-1.65,.15-1.65-.84,.08-1.13,.69-2.15,1.65-2.75Z"/>
      <path class="cls-1" d="M288.23,193.19l45.16-26.09c.91-.53,1.66-.15,1.66,.84-.08,1.13-.7,2.14-1.66,2.74l-45.16,26.09c-.91,.53-1.65,.16-1.65-.83,.08-1.13,.69-2.15,1.65-2.75Z"/>
      <path class="cls-19" d="M313.75,164.04l19.64-11.3c.91-.53,1.65-.16,1.65,.83-.08,1.13-.69,2.15-1.65,2.75l-19.64,11.3c-.91,.53-1.65,.16-1.65-.83,.08-1.13,.69-2.15,1.65-2.75Z"/>
      <path class="cls-19" d="M313.75,220.84l19.64-11.3c.91-.53,1.65-.16,1.65,.83-.08,1.13-.69,2.15-1.65,2.75l-19.64,11.3c-.91,.53-1.65,.15-1.65-.84,.08-1.12,.69-2.14,1.65-2.74Z"/>
      <path class="cls-13" d="M243.55,147.25l45.16-26.09c.91-.53,1.65-.15,1.65,.84-.08,1.13-.69,2.15-1.65,2.75l-45.16,26.09c-.91,.52-1.65,.15-1.65-.84,.08-1.13,.69-2.15,1.65-2.75Z"/>
      <path class="cls-4" d="M243.55,147.25l45.16-26.09c.91-.53,1.65-.15,1.65,.84-.08,1.13-.69,2.15-1.65,2.75l-45.16,26.09c-.91,.52-1.65,.15-1.65-.84,.08-1.13,.69-2.15,1.65-2.75Z"/>
      <path class="cls-13" d="M295.12,117.46l19.64-11.3c.91-.53,1.65-.16,1.65,.83-.08,1.13-.69,2.15-1.65,2.75l-19.64,11.3c-.91,.53-1.65,.16-1.65-.83,.08-1.13,.69-2.15,1.65-2.75Z"/>
      <path class="cls-4" d="M295.12,117.46l19.64-11.3c.91-.53,1.65-.16,1.65,.83-.08,1.13-.69,2.15-1.65,2.75l-19.64,11.3c-.91,.53-1.65,.16-1.65-.83,.08-1.13,.69-2.15,1.65-2.75Z"/>
      <path class="cls-4" d="M243.55,175.93l45.16-26.09c.91-.53,1.65-.16,1.65,.83-.08,1.13-.69,2.15-1.65,2.75l-45.16,26.09c-.91,.53-1.65,.16-1.65-.83,.08-1.13,.69-2.15,1.65-2.75Z"/>
      <path class="cls-4" d="M295.12,146.13l19.64-11.3c.91-.53,1.65-.15,1.65,.84-.08,1.13-.69,2.15-1.65,2.75l-19.64,11.3c-.91,.53-1.65,.15-1.65-.84,.08-1.13,.69-2.15,1.65-2.75Z"/>
    </g>
  </g>
  <g id="freepik--Icons--inject-6">
    <g id="freepik--Java--inject-6">
      <path class="cls-13" d="M397.72,25.36l-10.77,6.17-10.83-1c-.13-.01-.25,0-.37,.06,.87-.51,10.31-5.91,10.7-6.12,.14-.08,.29-.11,.45-.09l10.82,.98Z"/>
      <path class="cls-3" d="M397.72,25.36l-10.77,6.17-10.83-1c-.13-.01-.25,0-.37,.06,.87-.51,10.31-5.91,10.7-6.12,.14-.08,.29-.11,.45-.09l10.82,.98Z"/>
      <polygon class="cls-13" points="431.19 27.52 392.25 5.03 384.51 9.53 387.36 67.31 403.98 86.99 420.6 86.5 428.34 82 431.19 27.52"/>
      <polygon class="cls-3" points="431.19 27.52 423.46 32.02 384.51 9.53 392.25 5.03 431.19 27.52"/>
      <polygon class="cls-8" points="431.19 27.52 423.46 32.02 420.6 86.5 428.34 82 431.19 27.52"/>
      <path class="cls-13" d="M384.51,9.53l1.08,21.88-9.46-.83c-.44-.03-.83,.29-.86,.73-.02,.22,.06,.43,.2,.6l10.72,11.61,1.17,23.84,16.62,19.68,16.62-.49,2.86-54.48-38.95-22.54Z"/>
      <polygon class="cls-3" points="403.98 26.41 419.46 35.34 417.18 80.16 403.98 81.14 403.98 26.41"/>
      <polygon class="cls-1" points="415.78 37.62 414.15 74.33 403.98 74.91 393.82 62.59 393.3 52.22 396.98 54.34 397.28 60.53 403.98 68.92 410.68 68.26 411.82 40.97 392.48 29.8 392.19 24 415.78 37.62"/>
    </g>
    <g id="freepik--CSS--inject-6">
      <path class="cls-13" d="M397.72,117.62l-10.77,6.17-10.83-1c-.13,0-.25,0-.37,.05,.87-.51,10.31-5.91,10.7-6.12,.14-.08,.29-.11,.45-.09l10.82,.99Z"/>
      <polygon class="cls-13" points="431.19 119.78 392.25 97.29 384.51 101.79 387.36 159.57 403.98 179.25 420.6 178.76 428.34 174.26 431.19 119.78"/>
      <polygon class="cls-7" points="431.19 119.78 423.46 124.27 420.6 178.76 428.34 174.26 431.19 119.78"/>
      <path class="cls-13" d="M384.51,101.79l1.08,21.87-9.46-.82c-.44-.03-.83,.29-.86,.73-.02,.22,.06,.43,.2,.6l10.72,11.61,1.17,23.79,16.62,19.68,16.62-.49,2.86-54.49-38.95-22.48Z"/>
      <path class="cls-12" d="M384.51,101.79l1.08,21.87-9.46-.82c-.44-.03-.83,.29-.86,.73-.02,.22,.06,.43,.2,.6l10.72,11.61,1.17,23.79,16.62,19.68,16.62-.49,2.86-54.49-38.95-22.48Z"/>
      <polygon class="cls-6" points="403.98 118.66 419.46 127.6 417.18 172.41 403.98 173.4 403.98 118.66"/>
      <polygon class="cls-1" points="392.19 116.26 392.43 122.03 411.82 133.22 411.35 144.6 392.94 133.97 393.18 139.74 411.12 150.1 410.68 160.52 403.98 161.18 397.28 152.78 396.98 146.6 393.3 144.48 393.82 154.85 403.98 167.17 414.15 166.59 415.78 129.87 392.19 116.26"/>
    </g>
    <g id="freepik--HTML--inject-6">
      <polygon class="cls-13" points="431.19 212.02 392.25 189.54 384.51 194.03 387.36 251.81 403.98 271.49 420.6 271 428.34 266.5 431.19 212.02"/>
      <polygon class="cls-12" points="431.19 212.02 423.46 216.52 384.51 194.03 392.25 189.54 431.19 212.02"/>
      <polygon class="cls-11" points="431.19 212.02 423.46 216.52 420.6 271 428.34 266.5 431.19 212.02"/>
      <path class="cls-13" d="M397.72,209.86l-10.77,6.17-10.83-.95c-.13-.01-.25,0-.37,.06,.87-.51,10.31-5.92,10.7-6.13,.14-.07,.29-.1,.45-.09l10.82,.94Z"/>
      <path class="cls-12" d="M397.72,209.86l-10.77,6.17-10.83-.95c-.13-.01-.25,0-.37,.06,.87-.51,10.31-5.92,10.7-6.13,.14-.07,.29-.1,.45-.09l10.82,.94Z"/>
      <path class="cls-13" d="M384.51,194.03l1.08,21.88-9.46-.83c-.44-.03-.83,.29-.86,.73-.02,.22,.06,.43,.2,.6l10.72,11.61,1.17,23.79,16.62,19.68,16.62-.49,2.86-54.48-38.95-22.49Z"/>
      <path class="cls-10" d="M384.51,194.03l1.08,21.88-9.46-.83c-.44-.03-.83,.29-.86,.73-.02,.22,.06,.43,.2,.6l10.72,11.61,1.17,23.79,16.62,19.68,16.62-.49,2.86-54.48-38.95-22.49Z"/>
      <polygon class="cls-5" points="403.98 210.91 419.46 219.84 417.18 264.66 403.98 265.64 403.98 210.91"/>
      <polygon class="cls-1" points="415.78 222.12 392.19 208.5 393.18 231.99 411.12 242.34 410.68 252.77 403.98 253.42 397.28 245.03 396.98 238.84 393.3 236.72 393.82 247.1 403.98 259.41 414.15 258.83 415.02 238.96 396.62 228.34 396.14 216.42 415.49 227.59 415.78 222.12"/>
    </g>
  </g>
  <g id="freepik--Character--inject-6">
    <g id="freepik--character--inject-6">
      <path class="cls-15" d="M228.14,328.54c-2.8,8.36-5.2,19.16-9,35.43-3.55,15.24-3.57,26,1.36,29.7s19.06,1.44,28-17.6c2.8-6,13.33-24.35,13.33-24.35,0,0,7.8-2.81,10.49-4.92,0,0,26,.76,38.64-1.83s26.08-18,20.9-19.54c-9.3-2.74-34.08-3.78-55.07-5.13l-48.65,8.24Z"/>
      <path class="cls-24" d="M298.58,341.71c-5.69,1.32-14.12-.44-18.87-1.82,.28-1.66,.23-3.36-.16-5-.26,2.23-.98,4.38-2.11,6.32-.78,.44-1.44,.81-1.92,1.06-3.16,1.61-11.84,6.05-13.45,4.65-2.42-3.13-5.87-5.31-9.73-6.17,2.72,1.83,10.6,7.48,7.8,14l1.71-3s7.8-2.81,10.49-4.92c0,0,14.55,.42,27.16-.44l15-10.37s-7.2-.45-15.92,5.69Z"/>
      <path class="cls-18" d="M284,359.45c-1.9,1.86-4.22,3.23-6.76,4-.84,.19-1.7,.19-2.54,0-2.92-.61-7.6-.6-9.24,5.23-1.85,6.61-9.24,9.75-11.21,14.28-1,2.26-1.5,8.81-.54,12.84,.8,3.3,7.19,.85,9.56-3.18s7.45-9.34,10.8-12.4c5.45-3.07,11.5-7.57,14.08-9.38l-4.15-11.39Z"/>
      <path class="cls-24" d="M322.44,323.18c16.77,1.12,17.34,10,13.15,16.76-4.51,7.25-21,17-30,22.16-8.21,4.73-22.22,13.11-22.22,13.11,0,0-7.09-5.54-6.17-11.77,9.28-6.47,21.78-24.89,37.25-27.45l7.99-12.81Z"/>
      <path class="cls-24" d="M256.24,397.83c-.96,.14-1.95-.08-2.75-.64-.75-.53-2.41-5.2-1-10.86,1.03-4.2,3.17-8.05,6.2-11.14,1.83-1.94,2.49-4.17,3.15-7s2.72-6.3,4.15-6.69,3.6,.72,3.6,.72l-13.35,35.61Z"/>
      <path class="cls-13" d="M278.35,377.83c-.35,1.8-1.83,2.26-3.42,2.89-2.17,.86-4.23,3.1-6.19,5.6-1.33,1.7-2.43,3.4-3.64,5.18s-2.23,4.35-3.53,5.71c-1.91,2-5.77,1.62-6.83-1.21-.92-2.44-1.31-8.5,1.47-14.3,1.52-3.17,5.72-6.24,6.82-10.55,.73-2.88,1.74-6.31,3.86-8.5,1.26-1.3,2.41-1,4-.54,2.09,.58,4.21,1.02,6.36,1.33-.05,1.78-.58,3.51-1.55,5-.38,.48-.65,1.03-.8,1.62-.04,.41,0,.82,.11,1.22,.12,.56,.32,1.21,.87,1.37,.23,.03,.46,.05,.69,.05,.86,.11,1.28,1.1,1.5,1.94,.28,.9,.4,1.85,.35,2.79-.02,.13-.04,.27-.07,.4Z"/>
      <path class="cls-10" d="M278.35,377.83c-.35,1.8-1.83,2.26-3.42,2.89-2.17,.86-4.23,3.1-6.19,5.6-1.33,1.7-2.43,3.4-3.64,5.18s-2.23,4.35-3.53,5.71c-1.91,2-5.77,1.62-6.83-1.21-.92-2.44-1.31-8.5,1.47-14.3,1.52-3.17,5.72-6.24,6.82-10.55,.73-2.88,1.74-6.31,3.86-8.5,1.26-1.3,2.41-1,4-.54,2.09,.58,4.21,1.02,6.36,1.33-.05,1.78-.58,3.51-1.55,5-.38,.48-.65,1.03-.8,1.62-.04,.41,0,.82,.11,1.22,.12,.56,.32,1.21,.87,1.37,.23,.03,.46,.05,.69,.05,.86,.11,1.28,1.1,1.5,1.94,.28,.9,.4,1.85,.35,2.79-.02,.13-.04,.27-.07,.4Z"/>
      <path class="cls-16" d="M270.7,383.99c.85-.27,1.5-.95,1.73-1.81,.45-1.22-.09-3.62-1-5.2-.23-.5-.83-.72-1.33-.49-.16,.07-.3,.19-.4,.34h0c-.28,.35-.31,.83-.08,1.21,1.12,1.77,1.51,3.9,1.08,5.95Z"/>
      <path class="cls-16" d="M267.83,387.52c.88-.42,1.51-1.25,1.67-2.21,.25-1.96-.12-3.95-1.07-5.68-.25-.49-.86-.68-1.35-.43-.13,.07-.24,.16-.33,.28h0c-.27,.33-.3,.8-.07,1.16,1.42,2,1.84,4.53,1.15,6.88Z"/>
      <path class="cls-16" d="M265.1,391.5c.83-.51,1.41-1.36,1.57-2.32,.21-1.9-.18-3.81-1.13-5.47-.25-.49-.86-.68-1.35-.43-.13,.07-.24,.16-.33,.28h0c-.27,.33-.3,.81-.07,1.17,1.49,1.92,1.98,4.43,1.31,6.77Z"/>
      <path class="cls-25" d="M277.31,361.93c3-.75,7.34-1.81,9.14-4.19s5.55-4.68,10.61-1.35c3.2,2.11,7,2.8,10.8,3.05,1.69-.04,3.38,.04,5.06,.24,2,.55,3.89,1.42,5.6,2.59,1.08,.61,2.03,1.43,2.79,2.41,1.26,1.88,1.3,4.33,.09,6.24-.21,.34-.47,.63-.79,.87-.39,.28-.85,.47-1.32,.55-1.75,.39-3.21-.16-4.86-.62-1.37-.38-2.77-.67-4.16-.92-3.16-.59-6.36-.97-9.58-1.12-1.37-.05-4.22-.27-5.59-.17-5.72,.39-13.81,3.61-13.81,3.61l-3.98-11.19Z"/>
      <path class="cls-15" d="M217.83,389.36c.94,5.78,7.43,8.57,21.34,5.79s47-23.63,47-23.63c0,0-1.29-8-8.9-10.14,0,0-6.92,1.26-18.22,3.72-5.09,1.12-10.12,2.51-15.07,4.17-7.64,10.25-15.58,6.11-18.44,9.71-4.71,5.99-7.71,10.38-7.71,10.38Z"/>
      <path class="cls-24" d="M322.83,371.24c.82-.53,1.41-1.35,1.65-2.3,.21-.89-1.61-5.49-6.39-8.85-3.54-2.48-7.69-3.96-12-4.29-2.65-.25-4.62-1.49-7-3.17s-6.19-2.94-7.53-2.29-2.23,2.91-2.23,2.91l33.5,17.99Z"/>
      <path class="cls-13" d="M293.04,370.76c1.45,1.12,2.87,.49,4.48-.08,2.2-.78,5.23-.46,8.35,.13,2.12,.4,4.07,1,6.15,1.5s4.54,1.8,6.42,2c2.74,.23,5.4-2.59,4.34-5.41-.92-2.44-4.62-7.26-10.54-9.79-3.22-1.38-8.4-.93-12.07-3.44-2.45-1.68-5.47-3.61-8.51-3.85-1.8-.15-2.46,.85-3.36,2.22-1.19,1.81-2.49,3.55-3.9,5.2,1.21,1.31,2.76,2.27,4.48,2.76,.6,.11,1.17,.34,1.67,.68,.3,.29,.54,.63,.72,1,.28,.49,.55,1.12,.24,1.6-.15,.17-.31,.34-.48,.49-.57,.66-.23,1.67,.15,2.45,.39,.86,.92,1.65,1.58,2.33,.09,.08,.18,.15,.28,.21Z"/>
      <path class="cls-10" d="M293.04,370.76c1.45,1.12,2.87,.49,4.48-.08,2.2-.78,5.23-.46,8.35,.13,2.12,.4,4.07,1,6.15,1.5s4.54,1.8,6.42,2c2.74,.23,5.4-2.59,4.34-5.41-.92-2.44-4.62-7.26-10.54-9.79-3.22-1.38-8.4-.93-12.07-3.44-2.45-1.68-5.47-3.61-8.51-3.85-1.8-.15-2.46,.85-3.36,2.22-1.19,1.81-2.49,3.55-3.9,5.2,1.21,1.31,2.76,2.27,4.48,2.76,.6,.11,1.17,.34,1.67,.68,.3,.29,.54,.63,.72,1,.28,.49,.55,1.12,.24,1.6-.15,.17-.31,.34-.48,.49-.57,.66-.23,1.67,.15,2.45,.39,.86,.92,1.65,1.58,2.33,.09,.08,.18,.15,.28,.21Z"/>
      <path class="cls-16" d="M302.83,370.36c-.81,.36-1.75,.27-2.49-.22-1.15-.62-2.32-2.78-2.68-4.57-.16-.53,.15-1.09,.68-1.24,.17-.05,.36-.05,.53,0h0c.43,.08,.77,.42,.85,.85,.32,2.07,1.43,3.93,3.11,5.19Z"/>
      <path class="cls-16" d="M307.35,371.12c-.95,.27-1.96,.05-2.72-.57-1.49-1.31-2.51-3.06-2.94-5-.11-.54,.24-1.07,.78-1.18,.12-.02,.24-.03,.36,0h0c.42,.08,.74,.41,.81,.83,.27,2.44,1.64,4.62,3.71,5.93Z"/>
      <path class="cls-16" d="M312.02,372.36c-.96,.17-1.95-.09-2.71-.71-1.41-1.29-2.37-2.99-2.75-4.86-.13-.54,.2-1.08,.73-1.21,.14-.03,.29-.04,.43-.01h0c.42,.07,.75,.41,.82,.83,.15,2.43,1.44,4.64,3.48,5.96Z"/>
      <path class="cls-24" d="M253.62,366.36s-9.34,1.83-16.27,6.49c0,0,7.12-8.34,18.12-9.83l-1.85,3.34Z"/>
      <path class="cls-25" d="M288.6,295.14l-11.64-32.88-3.07,1.1,1.84,36.32,2,5.4c5.21-2.72,9.46-4.72,10.87-9.94Z"/>
      <path class="cls-13" d="M261.22,253.62c7.21,.08,13.79,2.7,16.52,8.35s11.09,31.32,11.09,31.32c0,0-6.86,8.07-17,7.42l-10.61-47.09Z"/>
      <path class="cls-9" d="M261.22,253.62c7.21,.08,13.79,2.7,16.52,8.35s11.09,31.32,11.09,31.32c0,0-6.86,8.07-17,7.42l-10.61-47.09Z"/>
      <path class="cls-14" d="M246.43,254.06c-10.11,1.87-16.85,4-18.76,5.89-4.3,8.81,1.29,38.34,1.29,38.34l1,14.05-1.78,16.2c10.93,9.24,44.38,4.7,50.34-8.24,0,0-1.67-42.12-1.67-49.59s-4.14-16.42-15.59-17.09l-14.83,.44Z"/>
      <path class="cls-23" d="M239.07,322.19c-2.93-4.49-2.81-15.91-2.81-15.91,0,0,5.12-29.8,3.94-36.9l-13.51,12.98c.86,8.53,2.27,16,2.27,16l1,14.05-1.78,16.2c8.74,7.39,31.88,6,43.85-1.53-17.57,6.97-30.04-.4-32.96-4.89Z"/>
      <path class="cls-24" d="M240.83,230.36s1.52,11.21,2.33,13.09c.54,1.16,1.51,2.07,2.71,2.54l.42-7.77-5.46-7.86Z"/>
      <path class="cls-24" d="M244.98,214.73c-1.65-.32-3.35,.13-4.62,1.24-2.08,1.83-1.46,8.1,.49,14.34l4.39,.84-.26-16.42Z"/>
      <path class="cls-25" d="M246.56,231.25c-.92,.46-2.06-1.33-3.07-2.56s-4.46-3.06-6.52,.56,.9,9,3.65,10.09c4.73,1.88,5.69-1.17,5.69-1.17l-1,17.84c4.39,9.56,21.91,6.15,15.93-.42l.32-4.53c2.42,.36,4.86,.54,7.31,.55,3.61-.29,5.25-2.64,6.62-6.42,2.2-6.06,3.24-11,2.67-23.31-.61-13.47-16.13-14.77-24.91-10.12s-6.69,19.49-6.69,19.49Z"/>
      <path class="cls-24" d="M246.25,207.48c3.04-1.04,6.18-1.73,9.37-2.07,6.88-1,13.88-1.8,20.3-4.47,.76-.42,1.62-.59,2.48-.51,1.62,.33,2.18,2.36,2.12,4-.05,1.53-.36,3.04-.92,4.47,1.1-.91,2.72-.76,3.64,.33,.84,1.11,1.13,2.54,.77,3.88-.82,3.02-3.06,5.44-6,6.49-2.91,1.01-6,1.39-9.06,1.11-4.28-.2-8.53-.84-12.68-1.92-.99-.33-2.03-.48-3.07-.45-1.07,.04-2.02,.68-2.45,1.66-.57,1.65-1.9,13.08-4.26,13-.44,0-1.89-3-2.91-4.14-1.27-1.4-1.91-11.33-2-13.16-.02-.14-.08-.28-.16-.4-1.38-2.28,.7-5.78,2.69-6.82,.69-.37,1.41-.71,2.14-1Z"/>
      <path class="cls-24" d="M242.26,215.48c-1.26,1.27-3.31,1.28-4.58,.02s-1.28-3.31-.02-4.58l4.61,4.56Z"/>
      <path class="cls-18" d="M261.55,251.06s-7.89-1.36-10.56-3c-1.57-.98-2.81-2.4-3.56-4.09,.3,1.66,.93,3.24,1.85,4.65,1.84,2.75,12.05,5.44,12.05,5.44l.22-3Z"/>
      <path class="cls-24" d="M262.35,230.36c-.1,.88-.9,1.51-1.77,1.4-.88-.1-1.51-.9-1.4-1.77,.1-.85,.85-1.48,1.71-1.41,.9,.08,1.55,.88,1.47,1.78,0,0,0,0,0,0Z"/>
      <path class="cls-24" d="M261.11,224.2l-3.55,1.63c-.43-1.01,0-2.19,1-2.66,.96-.43,2.09,0,2.52,.97,0,.02,.02,.04,.03,.06Z"/>
      <path class="cls-18" d="M261.55,241.44l3.54,1.64c-.41,.98-1.54,1.44-2.51,1.02-.02,0-.04-.02-.06-.02-.99-.47-1.42-1.64-.97-2.64Z"/>
      <path class="cls-24" d="M276.47,226.72l-2.93-2.63c.65-.81,1.84-.94,2.64-.28,.03,.02,.06,.05,.09,.07,.81,.74,.9,1.99,.2,2.84Z"/>
      <path class="cls-24" d="M275.2,230.88c-.1,.88-.9,1.51-1.77,1.4-.88-.1-1.51-.9-1.4-1.77,.1-.85,.85-1.48,1.71-1.41,.9,.09,1.55,.88,1.47,1.78Z"/>
      <polygon class="cls-18" points="267.07 229.24 266.87 238.86 272.01 237.53 267.07 229.24"/>
      <path class="cls-25" d="M215.99,327.27c-6.48-6.52-7.52-8.65-6.64-12.72,1.74-8,8.85-33.61,11.55-41.22,3.39-9.56,4.9-13.38,10.54-14.61,4.55,3.6,9,17.08,2.88,29.22l-7.38,26.5"/>
      <path class="cls-13" d="M236.28,256.36c-8.71,1-12.4,4.52-15.54,13.93s-8.66,31.07-8.66,31.07c0,0,7.31,7.92,17.56,7.09l8.54-28.3s6.01-20.58-1.9-23.79Z"/>
      <path class="cls-9" d="M236.28,256.36c-8.71,1-12.4,4.52-15.54,13.93s-8.66,31.07-8.66,31.07c0,0,7.31,7.92,17.56,7.09l8.54-28.3s6.01-20.58-1.9-23.79Z"/>
      <path class="cls-23" d="M234.26,353.84v1c0,1.02,.55,1.96,1.43,2.48l27.26,15.68c.88,.51,1.97,.51,2.85,0l50-28.87c.89-.51,1.43-1.45,1.43-2.47v-.7l-52.85,30.52-30.12-17.64Z"/>
      <path class="cls-14" d="M317.23,340.97l-29.64-17.11c-.53-.31-1.18-.31-1.71,0l-51.43,29.69c-.18,.1-.25,.34-.14,.52,.03,.06,.08,.11,.14,.14l29.93,17.28,52.85-30.52Z"/>
      <path class="cls-25" d="M304.05,323.63c-4.07-7.22-15.45-28.49-15.45-28.49l-10.86,10c4.43,8.38,16.46,25.24,16.46,25.24,5.53,3.61,12.19-2.59,9.85-6.75Z"/>
      <polygon class="cls-19" points="264.1 368.97 248.11 359.75 294.87 332.76 310.94 341.93 264.1 368.97"/>
      <polygon class="cls-19" points="256.25 343.32 256.54 343.49 264.38 348.01 278.32 339.97 278.6 339.8 270.47 335.11 256.25 343.32"/>
      <polygon class="cls-22" points="256.54 343.49 264.38 348.01 278.32 339.97 270.47 335.44 256.54 343.49"/>
      <path class="cls-23" d="M264.38,371.49v1.87c.5,0,.99-.13,1.42-.38l50-28.87c.89-.51,1.43-1.45,1.43-2.47v-.7l-52.85,30.55Z"/>
      <path class="cls-19" d="M264.38,371.49v1.87c.5,0,.99-.13,1.42-.38l50-28.87c.89-.51,1.43-1.45,1.43-2.47v-.7l-52.85,30.55Z"/>
      <path class="cls-13" d="M265.18,371.91c.96,.38,2.03,.29,2.92-.22l49.78-28.75c.88-.5,1.48-1.37,1.65-2.36l5.45-32.5c.01-.19,.01-.37,0-.56,0-.9-.36-1.77-1-2.4l-51.73,29.87c-.65,.37-1.1,1.01-1.22,1.75l-5.85,35.17Z"/>
      <g class="cls-20">
        <path class="cls-1" d="M265.18,371.91c.96,.38,2.03,.29,2.92-.22l49.78-28.75c.88-.5,1.48-1.37,1.65-2.36l5.45-32.5c.01-.19,.01-.37,0-.56,0-.9-.36-1.77-1-2.4l-51.73,29.87c-.65,.37-1.1,1.01-1.22,1.75l-5.85,35.17Z"/>
      </g>
      <path class="cls-14" d="M264.38,371.49l.34,.2c.15,.08,.3,.16,.46,.22l5.89-35.17c.12-.74,.57-1.38,1.22-1.75l51.73-29.87c-.21-.21-.44-.38-.69-.53l-51.84,29.93c-.65,.37-1.09,1.01-1.21,1.75l-5.9,35.22Z"/>
      <path class="cls-13" d="M293.22,341.91c.36-2.18,2.61-5.07,5-6.46s4.06-.75,3.69,1.43-2.61,5.06-5,6.45-4.08,.76-3.69-1.42Z"/>
      <path class="cls-25" d="M226.94,314.44s3.74,6.21,8.06,12,9,11.89,12.5,12.92c3.29,1,7.15,2.13,8.27,3.16,2.69,2.73,5.2,5.64,7.5,8.7,1,1.71,3.51,5.19,0,6.3-3.21,1-5.83-.36-8.43-2.15-1.23-.88-2.39-1.84-3.49-2.87-2.6,.29-5.23-.24-7.53-1.5-2-1.12-5.3-3.08-5.3-3.08-2.74-1.88-16.35-14.48-22.53-20.68"/>
    </g>
  </g>
</svg>