<?xml version="1.0" encoding="UTF-8"?>
<svg id="Layer_1" data-name="Layer 1" xmlns="http://www.w3.org/2000/svg" viewBox="0 0 448.57 352.64">
  <defs>
    <style>
      .cls-1, .cls-2, .cls-3, .cls-4, .cls-5, .cls-6 {
        stroke: #fff;
      }

      .cls-1, .cls-2, .cls-4, .cls-7, .cls-8, .cls-6 {
        stroke-miterlimit: 10;
      }

      .cls-1, .cls-9 {
        fill: #1f448b;
      }

      .cls-10, .cls-11, .cls-12, .cls-13, .cls-14, .cls-15, .cls-8, .cls-16, .cls-17 {
        fill: #fff;
      }

      .cls-2 {
        stroke-dasharray: 0 0 5.28 5.28;
      }

      .cls-2, .cls-3, .cls-4, .cls-7, .cls-18, .cls-5, .cls-6 {
        fill: none;
      }

      .cls-3 {
        stroke-width: 1.5px;
      }

      .cls-3, .cls-18, .cls-5 {
        stroke-linecap: round;
        stroke-linejoin: round;
      }

      .cls-19 {
        fill: #a24e3f;
      }

      .cls-20 {
        fill: #f5f5f5;
      }

      .cls-21 {
        fill: #ebb376;
      }

      .cls-11, .cls-12, .cls-22, .cls-13, .cls-23, .cls-14, .cls-24, .cls-15, .cls-25, .cls-16, .cls-17 {
        isolation: isolate;
      }

      .cls-11, .cls-22 {
        opacity: .3;
      }

      .cls-12 {
        opacity: .5;
      }

      .cls-7, .cls-8 {
        stroke: #1f448b;
      }

      .cls-13 {
        opacity: .6;
      }

      .cls-23, .cls-26, .cls-17 {
        opacity: .2;
      }

      .cls-18 {
        stroke: #263238;
        stroke-width: .5px;
      }

      .cls-5 {
        stroke-width: 2px;
      }

      .cls-14 {
        opacity: .7;
      }

      .cls-27, .cls-24 {
        opacity: .1;
      }

      .cls-15, .cls-25 {
        opacity: .4;
      }

      .cls-28 {
        fill: #b97964;
      }

      .cls-16 {
        opacity: .9;
      }

      .cls-6 {
        stroke-dasharray: 0 0 4.53 4.53;
      }

      .cls-29 {
        fill: #263238;
      }
    </style>
  </defs>
  <g id="freepik--background-simple--inject-20">
    <path class="cls-9" d="M131.6,18.43C151.54,7.22,173.92,.15,196.73,0c26.76-.18,54,9.77,72.28,29.34,7.37,7.91,13.16,17.17,20.4,25.19s16.48,15,27.21,16.3c11.54,1.37,22.8-4,34.4-4.74,27-1.7,45.94,23.23,47.62,48.12,2,29.58-19.85,60.34-39.55,80.09-23.9,23.95-51.86,43.2-78.68,63.63-26.13,19.89-49.8,43.42-78.66,59.49-12.56,7-26.36,12.6-40.74,12.74-21.82,.22-38.74-12.92-42.59-34.45-2.39-13.36-.07-26.94-2.27-40.34-5.45-33.08-36-55.94-49.6-86.58-11.37-25.56-10.06-55.83,.83-81.6s30.76-47.17,54.11-62.59c3.29-2.17,6.67-4.23,10.11-6.17Z"/>
    <path class="cls-16" d="M131.6,18.43C151.54,7.22,173.92,.15,196.73,0c26.76-.18,54,9.77,72.28,29.34,7.37,7.91,13.16,17.17,20.4,25.19s16.48,15,27.21,16.3c11.54,1.37,22.8-4,34.4-4.74,27-1.7,45.94,23.23,47.62,48.12,2,29.58-19.85,60.34-39.55,80.09-23.9,23.95-51.86,43.2-78.68,63.63-26.13,19.89-49.8,43.42-78.66,59.49-12.56,7-26.36,12.6-40.74,12.74-21.82,.22-38.74-12.92-42.59-34.45-2.39-13.36-.07-26.94-2.27-40.34-5.45-33.08-36-55.94-49.6-86.58-11.37-25.56-10.06-55.83,.83-81.6s30.76-47.17,54.11-62.59c3.29-2.17,6.67-4.23,10.11-6.17Z"/>
  </g>
  <g id="freepik--Shadow--inject-20">
    <ellipse id="freepik--path--inject-20" class="cls-20" cx="228.68" cy="341.32" rx="193.89" ry="11.32"/>
  </g>
  <g id="freepik--Ladder--inject-20">
    <polygon class="cls-29" points="313.06 341.32 320.41 341.32 330.41 286.08 323.06 286.08 313.06 341.32"/>
    <polygon class="cls-17" points="313.06 341.32 320.41 341.32 330.41 286.08 323.06 286.08 313.06 341.32"/>
    <polygon class="cls-17" points="313.06 341.32 318.41 341.32 328.41 286.08 323.06 286.08 313.06 341.32"/>
    <path class="cls-29" d="M292.37,302.51h29.39c.89,0,1.61-.71,1.62-1.6,0,0,0-.01,0-.02h0c0-.89-.71-1.61-1.6-1.62,0,0-.01,0-.02,0h-29.39c-.89,0-1.61,.71-1.62,1.6,0,0,0,.01,0,.02h0c0,.89,.71,1.61,1.6,1.62,0,0,.01,0,.02,0Z"/>
    <path class="cls-29" d="M289.1,321.01h29.4c.9,0,1.62-.73,1.62-1.63h0c0-.89-.73-1.61-1.62-1.62h-29.4c-.89,0-1.61,.73-1.62,1.62h0c0,.9,.72,1.62,1.62,1.63Z"/>
    <polygon class="cls-29" points="283.06 341.32 290.41 341.32 300.41 286.08 293.06 286.08 283.06 341.32"/>
    <polygon class="cls-17" points="283.06 341.32 290.41 341.32 300.41 286.08 293.06 286.08 283.06 341.32"/>
    <polygon class="cls-17" points="283.06 341.32 288.41 341.32 298.41 286.08 293.06 286.08 283.06 341.32"/>
    <polygon class="cls-29" points="351.41 341.32 344.06 341.32 334.06 286.08 341.41 286.08 351.41 341.32"/>
    <polygon class="cls-15" points="351.41 341.32 344.06 341.32 334.06 286.08 341.41 286.08 351.41 341.32"/>
    <polygon class="cls-17" points="349.41 341.32 344.06 341.32 334.06 286.08 339.41 286.08 349.41 341.32"/>
    <path class="cls-29" d="M338.5,302.51h-29.4c-.89,0-1.62-.73-1.62-1.62h0c0-.89,.73-1.62,1.62-1.62h29.4c.89,0,1.62,.73,1.62,1.62h0c0,.89-.73,1.62-1.62,1.62Z"/>
    <path class="cls-29" d="M341.76,321.01h-29.39c-.89,0-1.62-.73-1.62-1.62,0,0,0,0,0-.01h0c0-.89,.73-1.62,1.62-1.62h29.39c.89,0,1.62,.73,1.62,1.62h0c0,.89-.72,1.62-1.61,1.63,0,0,0,0-.01,0Z"/>
    <path class="cls-17" d="M338.5,302.51h-29.4c-.89,0-1.62-.73-1.62-1.62h0c0-.89,.73-1.62,1.62-1.62h29.4c.89,0,1.62,.73,1.62,1.62h0c0,.89-.73,1.62-1.62,1.62Z"/>
    <path class="cls-17" d="M341.76,321.01h-29.39c-.89,0-1.62-.73-1.62-1.62,0,0,0,0,0-.01h0c0-.89,.73-1.62,1.62-1.62h29.39c.89,0,1.62,.73,1.62,1.62h0c0,.89-.72,1.62-1.61,1.63,0,0,0,0-.01,0Z"/>
    <polygon class="cls-29" points="321.41 341.32 314.06 341.32 304.06 286.08 311.41 286.08 321.41 341.32"/>
    <polygon class="cls-15" points="321.41 341.32 314.06 341.32 304.06 286.08 311.41 286.08 321.41 341.32"/>
    <polygon class="cls-17" points="319.41 341.32 314.06 341.32 304.06 286.08 309.41 286.08 319.41 341.32"/>
    <rect class="cls-29" x="289.99" y="283.44" width="55.47" height="5.27" rx="1.19" ry="1.19"/>
    <rect class="cls-17" x="289.99" y="283.44" width="22.56" height="5.27" rx="1.19" ry="1.19"/>
  </g>
  <g id="freepik--Screen--inject-20">
    <rect class="cls-9" x="105.88" y="296.93" width="67.15" height="43.67"/>
    <rect class="cls-13" x="105.88" y="296.93" width="67.15" height="43.67"/>
    <rect class="cls-9" x="108.34" y="305.12" width="62.24" height="33.3"/>
    <rect class="cls-10" x="113.41" y="310.09" width="46.04" height="1.43"/>
    <rect class="cls-10" x="113.41" y="314.48" width="22.09" height="1.43"/>
    <rect class="cls-10" x="113.41" y="318.87" width="27.82" height="1.43"/>
    <rect class="cls-10" x="113.41" y="323.25" width="9.8" height="1.43"/>
    <rect class="cls-10" x="113.41" y="327.64" width="6.35" height="1.43"/>
  </g>
  <g id="freepik--Device--inject-20">
    <polygon class="cls-9" points="256.01 341.32 201.35 341.32 210.6 268.65 246.76 268.65 256.01 341.32"/>
    <polygon class="cls-13" points="256.01 341.32 201.35 341.32 207.68 291.6 210.61 268.65 246.75 268.65 251.07 302.51 256.01 341.32"/>
    <polygon class="cls-24" points="251.07 302.51 207.68 291.6 210.61 268.65 246.75 268.65 251.07 302.51"/>
    <path class="cls-9" d="M357.55,89.46H99.81c-3.64,0-6.59,2.95-6.59,6.59,0,0,0,0,0,.01v174.48c0,3.64,2.95,6.59,6.59,6.59H357.55c3.64,0,6.59-2.95,6.59-6.59V96.08c.02-3.64-2.92-6.6-6.56-6.62-.01,0-.02,0-.03,0Z"/>
    <path class="cls-14" d="M357.55,89.46H99.81c-3.64,0-6.59,2.95-6.59,6.59,0,0,0,0,0,.01v174.48c0,3.64,2.95,6.59,6.59,6.59H357.55c3.64,0,6.59-2.95,6.59-6.59V96.08c.02-3.64-2.92-6.6-6.56-6.62-.01,0-.02,0-.03,0Z"/>
    <rect class="cls-9" x="101.9" y="95.92" width="253.57" height="168.25"/>
    <rect class="cls-9" x="181.73" y="335.86" width="93.89" height="5.37" rx="1.04" ry="1.04"/>
    <rect class="cls-14" x="181.73" y="335.86" width="93.89" height="5.37" rx="1.04" ry="1.04"/>
    <rect class="cls-23" x="101.9" y="96.08" width="253.57" height="25.08"/>
    <rect class="cls-15" x="101.9" y="121.46" width="108.66" height="142.71"/>
    <polyline class="cls-4" points="316.44 157.86 316.44 160.36 313.94 160.36"/>
    <line class="cls-2" x1="308.66" y1="160.36" x2="226.76" y2="160.36"/>
    <polyline class="cls-4" points="224.12 160.36 221.62 160.36 221.62 157.86"/>
    <line class="cls-6" x1="221.62" y1="153.33" x2="221.62" y2="110.3"/>
    <polyline class="cls-4" points="221.62 108.04 221.62 105.54 224.12 105.54"/>
    <line class="cls-2" x1="229.4" y1="105.54" x2="311.3" y2="105.54"/>
    <polyline class="cls-4" points="313.94 105.54 316.44 105.54 316.44 108.04"/>
    <line class="cls-6" x1="316.44" y1="112.57" x2="316.44" y2="155.6"/>
    <rect class="cls-1" x="314.86" y="103.95" width="3.17" height="3.17"/>
    <rect class="cls-1" x="314.86" y="158.78" width="3.17" height="3.17"/>
    <rect class="cls-1" x="220.03" y="103.95" width="3.17" height="3.17"/>
    <rect class="cls-1" x="220.03" y="158.78" width="3.17" height="3.17"/>
    <rect class="cls-1" x="267.45" y="103.95" width="3.17" height="3.17"/>
    <rect class="cls-1" x="267.45" y="158.78" width="3.17" height="3.17"/>
    <rect class="cls-1" x="314.86" y="131.36" width="3.17" height="3.17"/>
    <rect class="cls-1" x="220.03" y="131.36" width="3.17" height="3.17"/>
    <rect class="cls-14" x="282.73" y="123.95" width="26.99" height="9.99" rx="1.89" ry="1.89"/>
    <rect class="cls-14" x="242.73" y="123.95" width="26.99" height="9.99" rx="1.89" ry="1.89"/>
    <rect class="cls-14" x="191.24" y="245.54" width="26.99" height="9.99" rx="1.89" ry="1.89"/>
    <line class="cls-3" x1="338.73" y1="105" x2="347.17" y2="105"/>
    <line class="cls-3" x1="338.73" y1="109" x2="347.17" y2="109"/>
    <line class="cls-3" x1="338.73" y1="113" x2="347.17" y2="113"/>
    <rect class="cls-12" x="119.09" y="143.58" width="85.05" height="85.05"/>
    <line class="cls-7" x1="154.69" y1="150.53" x2="154.69" y2="223.9"/>
    <path class="cls-7" d="M191.37,223.9h0c-20.26,0-36.69-16.43-36.69-36.69h0c0-20.26,16.42-36.68,36.68-36.68h0"/>
    <rect class="cls-8" x="189.79" y="148.95" width="3.17" height="3.17"/>
    <rect class="cls-8" x="189.79" y="222.31" width="3.17" height="3.17"/>
    <rect class="cls-8" x="153.11" y="185.63" width="3.17" height="3.17"/>
    <path class="cls-8" d="M155.51,150.53c0,.45-.37,.82-.82,.82s-.82-.37-.82-.82,.37-.82,.82-.82c.45,0,.81,.37,.82,.82Z"/>
    <path class="cls-8" d="M155.51,223.9c0,.45-.37,.82-.82,.82-.45,0-.82-.37-.82-.82,0-.45,.36-.81,.81-.82,.45,0,.82,.36,.83,.81,0,0,0,0,0,.01Z"/>
    <path class="cls-14" d="M295.61,246.75h-25.75c-4.11,0-7.44-3.33-7.44-7.44h0c0-4.11,3.33-7.44,7.44-7.44h25.75c4.11,0,7.44,3.33,7.44,7.44h0c0,4.11-3.33,7.44-7.44,7.44h0Z"/>
    <path class="cls-14" d="M318.23,183.3h-79.55c-.9,0-1.63-.73-1.63-1.63h0c.02-.89,.74-1.6,1.63-1.59h79.54c.89,0,1.62,.72,1.63,1.61,0,0,0,0,0,.01h0c-.02,.88-.74,1.59-1.62,1.6Z"/>
    <path class="cls-14" d="M318.23,195.17h-79.55c-.89,0-1.62-.72-1.63-1.61,0,0,0,0,0-.01h0c0-.9,.73-1.63,1.63-1.63h79.54c.9,0,1.63,.73,1.63,1.63h0c0,.89-.73,1.62-1.62,1.62h0Z"/>
    <path class="cls-14" d="M318.23,207.08h-49.55c-.9,0-1.62-.72-1.63-1.62h0c0-.9,.73-1.63,1.63-1.63h49.54c.9,0,1.63,.73,1.63,1.63h0c0,.89-.73,1.61-1.62,1.62Z"/>
    <rect class="cls-25" x="109.91" y="103.03" width="5.62" height="5.62"/>
    <rect class="cls-25" x="120.83" y="103.03" width="5.62" height="5.62" rx="1.44" ry="1.44"/>
    <rect class="cls-25" x="131.76" y="103.03" width="5.62" height="5.62" rx="2.57" ry="2.57"/>
    <path class="cls-16" d="M127.13,241.58v-2.19l-1.12-.1c-.16-.71-.44-1.39-.84-2l.72-.87-1.55-1.55-.87,.72c-.61-.4-1.29-.68-2-.84l-.1-1.12h-2.19l-.11,1.12c-.71,.16-1.39,.45-2,.84l-.87-.72-1.55,1.55,.72,.87c-.4,.61-.69,1.29-.84,2l-1.13,.1v2.19l1.13,.11c.15,.71,.44,1.39,.84,2l-.72,.88,1.55,1.54,.87-.72c.61,.4,1.29,.69,2,.84l.11,1.13h2.19l.1-1.13c.71-.15,1.39-.44,2-.84l.87,.72,1.55-1.54-.72-.88c.4-.61,.68-1.29,.84-2l1.12-.11Zm-6.89,1.87c-1.66,0-3-1.34-3-3s1.34-3,3-3,3,1.34,3,3-1.34,3-3,3Z"/>
    <path class="cls-13" d="M136.01,247.76v-1.68l-.88-.09c-.12-.56-.34-1.1-.66-1.58l.56-.69-1.21-1.21-.68,.57c-.48-.32-1.02-.54-1.59-.66l-.08-.89h-1.72l-.08,.89c-.57,.12-1.11,.34-1.59,.66l-.68-.57-1.22,1.21,.57,.69c-.32,.48-.54,1.02-.66,1.58l-.88,.09v1.71l.88,.09c.12,.56,.34,1.1,.66,1.58l-.57,.69,1.22,1.21,.68-.57c.48,.32,1.02,.54,1.59,.66l.08,.88h1.72l.08-.88c.57-.12,1.11-.34,1.59-.66l.68,.57,1.21-1.21-.56-.69c.32-.48,.54-1.02,.66-1.58l.88-.12Zm-5.4,1.47c-1.29,0-2.33-1.03-2.34-2.32,0-1.29,1.03-2.33,2.32-2.34,1.29,0,2.33,1.03,2.34,2.32,0,0,0,0,0,0,0,1.28-1.03,2.32-2.31,2.33,0,0,0,0-.01,0h0Z"/>
    <path class="cls-15" d="M127.13,252.63v-1.44l-.74-.07c-.1-.47-.29-.92-.55-1.33l.48-.57-1-1-.58,.47c-.41-.26-.86-.45-1.33-.55l-.07-.74h-1.46l-.07,.74c-.47,.1-.92,.29-1.33,.55l-.58-.47-1,1,.48,.57c-.26,.41-.45,.86-.55,1.33l-.75,.07v1.44l.75,.07c.1,.48,.28,.93,.55,1.34l-.48,.57,1,1,.58-.48c.4,.27,.85,.46,1.33,.56l.07,.74h1.44l.07-.74c.48-.1,.93-.29,1.33-.56l.58,.48,1-1-.48-.57c.27-.41,.45-.86,.55-1.34l.76-.07Zm-4.53,1.23c-1.08-.03-1.93-.92-1.9-2,.03-1.08,.92-1.93,2-1.9,1.06,.03,1.9,.89,1.9,1.95,0,1.08-.87,1.95-1.95,1.95-.02,0-.03,0-.05,0Z"/>
    <polygon class="cls-9" points="315.86 104.97 320.1 116.31 327.19 109.21 315.86 104.97"/>
    <rect class="cls-9" x="322.53" y="110.28" width="2.24" height="4.97" transform="translate(15.06 261.88) rotate(-45)"/>
    <polygon class="cls-15" points="327.19 109.21 315.86 104.97 320.1 116.31 322.86 113.55 324.61 115.31 326.19 113.73 324.44 111.97 327.19 109.21"/>
    <path class="cls-29" d="M142.14,145.5l10.67,4-5.59-5.59c-.43,.24-.96,.17-1.31-.17-.43-.43-.43-1.13,0-1.56s1.13-.43,1.56,0c.34,.35,.41,.88,.17,1.31l5.59,5.59-4-10.67-3.54,.78-.13-1.27-.67-.67-3.92,3.92,.67,.67,1.28,.13-.78,3.53Z"/>
    <path class="cls-17" d="M142.14,145.5l10.67,4-5.59-5.59c-.43,.24-.96,.17-1.31-.17-.43-.43-.43-1.13,0-1.56s1.13-.43,1.56,0c.34,.35,.41,.88,.17,1.31l5.59,5.59-4-10.67-3.54,.78-.13-1.27-.67-.67-3.92,3.92,.67,.67,1.28,.13-.78,3.53Z"/>
    <g class="cls-27">
      <polygon class="cls-10" points="138.98 95.92 101.4 236.34 101.4 95.92 138.98 95.92"/>
      <polygon class="cls-10" points="181.39 95.92 136.36 264.17 105.34 264.17 150.36 95.92 181.39 95.92"/>
      <polygon class="cls-10" points="226.49 95.92 181.46 264.17 167.43 264.17 212.46 95.92 226.49 95.92"/>
      <polygon class="cls-10" points="268.02 95.92 222.99 264.17 217.97 264.17 263 95.92 268.02 95.92"/>
    </g>
  </g>
  <g id="freepik--character-2--inject-20">
    <path class="cls-29" d="M420.58,133.08c3.55,4.09,21.61,38.88,18.12,47s-32.43-1.24-32.43-1.24l1.73-11.47s11.24,.4,12.32-.67-15.21-17.33-15.21-17.33l15.47-16.29Z"/>
    <g class="cls-26">
      <path class="cls-10" d="M438.68,180.08c-.43,.94-1.18,1.7-2.11,2.14h0l-.58,.26h-.08c-.18,.08-.36,.14-.55,.19-.81,.26-1.65,.44-2.5,.52l-.73,.07c-.36,0-.72,.05-1.09,.06h-1c-9.7,0-23.81-4.55-23.81-4.55l1.73-11.47s11.24,.4,12.32-.67c.26-.26-.51-1.42-1.82-3h0c-3.18-3.91-9.55-10.42-12.18-13.08l-1.19-1.2,15.49-16.27c3.55,4.05,21.61,38.84,18.1,47Z"/>
    </g>
    <path class="cls-23" d="M436.59,182.19h0l-.58,.26h-.08c-.18,.08-.36,.14-.55,.19-.81,.26-1.65,.44-2.5,.52l-.73,.07c-.36,0-.72,.05-1.09,.06h-1c-9.7,0-23.81-4.55-23.81-4.55l1.73-11.47s12.66,1.07,13.74,0h0c.2-.42-1.2-1.84-3.27-3.65h0c-3.18-3.91-9.55-10.42-12.18-13.08l7.32-7.82,5.57-.6s12.33,19.96,17.43,40.07Z"/>
    <path class="cls-29" d="M384.09,131.9c-2,1.45-3,3.51-2.2,4.6l52.84,72.85c.79,1.09,3.06,.79,5.06-.66s3-3.52,2.2-4.6l-52.84-72.86c-.79-1.08-3.05-.79-5.06,.67Z"/>
    <path class="cls-14" d="M389.15,131.23l52.84,72.85c.79,1.08-.2,3.14-2.2,4.6s-4.27,1.74-5.05,.66l-52.84-72.86c-.41-.78-.34-1.72,.19-2.42,.27-.48,.61-.92,1-1.31,.31-.32,.64-.6,1-.86,2.01-1.44,4.27-1.74,5.06-.66Z"/>
    <path class="cls-22" d="M441.99,204.08c.79,1.08-.2,3.14-2.2,4.6s-4.27,1.74-5.05,.66c-.44-.6,.65-1.51,1.29-2.82l-53.94-72.44c.27-.48,.61-.92,1-1.31l52.85,72.86c.31-.32,.64-.61,1-.87,2-1.46,4.26-1.76,5.05-.68Z"/>
    <path class="cls-9" d="M377.55,129.88c-1.69,1.8-2.27,4-1.29,4.93l65.7,61.51c1,.92,3.15,.2,4.84-1.61s2.27-4,1.29-4.94l-65.7-61.51c-.98-.91-3.15-.18-4.84,1.62Z"/>
    <path class="cls-14" d="M382.39,128.27l65.7,61.51c1,.91,.4,3.12-1.29,4.93s-3.86,2.52-4.84,1.61l-65.7-61.51c-.55-.69-.65-1.63-.27-2.42,.18-.52,.43-1.02,.74-1.48,.25-.35,.52-.69,.82-1,1.69-1.83,3.86-2.56,4.84-1.64Z"/>
    <path class="cls-22" d="M448.09,189.78c1,.91,.4,3.12-1.29,4.93s-3.86,2.52-4.84,1.61c-.54-.51,.36-1.6,.74-3l-66.71-60.91c.18-.52,.43-1.02,.74-1.48l65.71,61.52c.24-.36,.51-.69,.81-1,1.69-1.87,3.86-2.59,4.84-1.67Z"/>
    <path class="cls-21" d="M393.34,326.18l-5,.08c-5.09-23.91-8.69-53.5-10.93-75.82-.35-3.5-.67-6.81-1-9.9-.13-1.47-.26-2.88-.38-4.24-.6-6.71-1-12-1.26-15.32-.18-2.4-.27-3.72-.27-3.72h18.18l-.17,4.61-.6,15.21-.06,1.74-.38,10.05-.63,17.11c6.21,24.1,2.5,60.2,2.5,60.2Z"/>
    <path class="cls-21" d="M433.94,324.9l-4.93,.93c-9.87-24.67-19.14-56.26-25.17-78.33-.93-3.42-1.79-6.62-2.56-9.52,0-.15-.07-.29-.11-.43-1.52-5.76-2.69-10.35-3.42-13.26l-.87-3.53,17.8-3.08,1,7.5,1.49,11,.29,2.16,1,7.51,2.71,20.14c10.28,22.7,12.77,58.91,12.77,58.91Z"/>
    <path class="cls-23" d="M417.22,236.2l-15.94,1.78c0-.15-.07-.29-.11-.43-1.52-5.76-2.69-10.35-3.42-13.26l18,.89,1.47,11.02Z"/>
    <path class="cls-23" d="M392.47,221.87l-.56,15.21-.06,1.74-15.4,1.71c-.13-1.47-.26-2.88-.38-4.24-.6-6.71-1-12-1.26-15.32l17.66,.9Z"/>
    <path class="cls-29" d="M378.55,342.8c.93-.76,1.99-1.34,3.13-1.72h0s3.41-3.38,5.06-13.56l4.46-1.17c1.55-.37,3.17,.26,4.06,1.59,.12,.18,.22,.38,.28,.59,.23,1.09,.39,2.2,.48,3.31,.25,3.72,.27,7.46,.07,11.18h-.81l-.32-7c-.12-2.39-1.95,.41-2.47,3s-1.63,5.29-6.85,5.42c-6.1,.09-8.63-.15-7.09-1.64Z"/>
    <path class="cls-29" d="M395.42,328.08c.29-2.38,.38-6.52,.38-6.52l-9.92,1.1s1.2,4.71,.21,8.25c5-1.37,9.33-2.83,9.33-2.83Z"/>
    <path class="cls-29" d="M418.91,342.8c.93-.75,1.99-1.33,3.13-1.71h0s3.41-3.38,5.05-13.56l4.47-1.17c1.55-.37,3.17,.26,4.06,1.59,.12,.18,.22,.38,.28,.59,.23,1.09,.39,2.2,.48,3.31,.25,3.72,.27,7.46,.06,11.18h-.76l-.32-7c-.12-2.39-1.95,.41-2.47,3s-1.63,5.29-6.86,5.42c-6.13,.08-8.66-.16-7.12-1.65Z"/>
    <path class="cls-29" d="M435.77,328.08c.3-2.38,.39-6.52,.39-6.52l-9.92,1.1s1.2,4.71,.21,8.25c5-1.37,9.32-2.83,9.32-2.83Z"/>
    <path class="cls-9" d="M418.94,231.29l-18.87,2.41-.73,.09-3.88-14.22-1,15.24-20.22-1.06c-9-52.87,6.39-65.36,6.39-65.36l27.43,5.52c12.42,21.12,9.47,45.66,9.47,45.66l1.41,11.72Z"/>
    <path class="cls-18" d="M392.96,102.52c0,2.08-.92,3.76-2,3.76s-2.06-1.68-2.06-3.76,.92-3.76,2.06-3.76,2,1.68,2,3.76Z"/>
    <path class="cls-21" d="M406.51,115.08c-.07,.07-.15,.13-.24,.18-1.14,.87-2.44,1.51-3.83,1.87-4.05,.94-6.82,.38-8.63-1.45h0c-2.53-2.75-3.16-7.62-2.8-13.5,.06-2.34,.49-4.65,1.28-6.86v-.11s.06-.17,.1-.25c1.01-2.53,3.23-4.37,5.9-4.89,1.14-.25,2.3-.39,3.47-.39,11.47-.09,13.53,18.89,4.75,25.4Z"/>
    <path class="cls-23" d="M406.27,115.29c-1.15,.82-2.45,1.4-3.83,1.71-4.05,.94-6.82,.25-8.63-1.61,2.42,.6,4.98,.39,7.27-.6,1.72-.63,3.63-.45,5.19,.5Z"/>
    <path class="cls-21" d="M407.43,125.64c.71,3.26-3.52,4.59-3.52,4.59-6.91-3-8.19-6.63-8.19-6.63,5.77-3,4.1-11.51,4.1-11.51l1.17,.58,8.23,1.61s-2.28,4.38-2.58,5.38h0c-1.56,5.25,.79,5.98,.79,5.98Z"/>
    <path class="cls-29" d="M392.28,95.27s-.63,8,7,11.49c0,0,3.27,8.35,8.08,8.46,6.57,.16,12.35-9.17,10.08-18.68-2.97-12.34-21.66-13.34-25.16-1.27Z"/>
    <path class="cls-21" d="M395.4,104.45c0-1.25,1-3.36,3-3.07s3.14,5.27-1.82,6.38c-.75,.16-1.18-.68-1.18-3.31Z"/>
    <path class="cls-29" d="M406.27,86.73s-7.66-1.94-11.9,1.15c-4.95,3.6-6.83,7.32-1,13.1,0,0,12.87-4.17,17.15-3.29,2.5,.5,4.96,1.22,7.34,2.13,.93-8.5-7.31-14.83-11.59-13.09Z"/>
    <path class="cls-29" d="M395.4,102.52s2,9.26-1.14,17.16c0,0,18.2,6.31,24.53,2.88s.53-14.94,.26-21.58-3.15-16.45-12.78-14.25-10.87,15.79-10.87,15.79Z"/>
    <line class="cls-18" x1="388.85" y1="101.93" x2="396.54" y2="101.93"/>
    <path class="cls-23" d="M400.07,233.7l-.73,.09-3.88-14.22s8.32-14.21,5.72-21.61c.37,.52,9.33,13.81-1.11,35.74Z"/>
    <path class="cls-29" d="M384.49,124.92s9.15-3.26,22.94,.72,14.31,9.85,14.31,9.85c0,0-8.74,19.81-10.12,42.24l-35.94-1.34s-4.29-31.66,8.81-51.47Z"/>
    <path class="cls-17" d="M421.74,135.49s-8.74,19.81-10.12,42.24l-35.94-1.34c-.43-3.65-.65-7.32-.66-11-.07-5.38,.26-10.76,1-16.09,1.2-8.3,3.67-17.16,8.47-24.42,0,0,9.15-3.26,22.94,.72s14.31,9.89,14.31,9.89Z"/>
    <path class="cls-23" d="M383.99,150.69s-1.49,9.12-9,14.74c-.07-5.38,.26-10.76,1-16.09l8,1.35Z"/>
    <path class="cls-21" d="M344.28,124.29l-4.53-6.72s-.69-2.92-1.57-3.58-9.58-4.37-10.63-4.35-1,6.78,0,7.93,6.54,3.61,8,3.86,.74,0,.74,0l4,8,3.99-5.14Z"/>
    <path class="cls-29" d="M384.49,124.92c-9.7,4.06-19.07,8.9-28,14.46l-14.63-20s-3.94,1.22-5.4,8.08c0,0,7.51,28.61,17.27,31.45s30.28-8.27,30.28-8.27c0,0,5.94-14.86,.48-25.72Z"/>
    <path class="cls-17" d="M384.49,124.92c-9.7,4.06-19.07,8.9-28,14.46l-14.63-20s-3.94,1.22-5.4,8.08c0,0,7.51,28.61,17.27,31.45s30.28-8.27,30.28-8.27c0,0,5.94-14.86,.48-25.72Z"/>
    <path class="cls-29" d="M393.74,123.66s3.19,22.84,13.3,23.76,14.64-16,12.93-18-14.74-5.91-26.23-5.76Z"/>
    <path class="cls-11" d="M393.74,123.66s3.19,22.84,13.3,23.76,14.64-16,12.93-18-14.74-5.91-26.23-5.76Z"/>
  </g>
  <g id="freepik--character-1--inject-20">
    <g id="freepik--group--inject-20">
      <polygon class="cls-28" points="34.04 333.75 41.45 333.75 42.06 316.59 34.65 316.59 34.04 333.75"/>
      <path class="cls-29" d="M42.47,332.89h-9c-.31,0-.57,.21-.63,.51l-1.46,6.59c-.13,.59,.24,1.17,.83,1.3,0,0,0,0,0,0h.24c2.91-.05,5-.23,8.68-.23,2.26,0,9,.24,12.16,.24s3.51-3.07,2.24-3.35c-5.71-1.25-10-3-11.83-4.61-.34-.3-.78-.46-1.24-.45Z"/>
      <path class="cls-9" d="M42.98,333.92c-.07-.02-.12-.08-.13-.15-.01-.07,.02-.14,.08-.17,.27-.17,2.66-1.64,3.48-1.22,.19,.09,.31,.28,.3,.49,.06,.36-.09,.72-.37,.94-.41,.29-.92,.42-1.42,.38-.65-.02-1.3-.11-1.94-.27Zm.51-.25c.86,.29,1.81,.25,2.64-.13,.18-.16,.26-.39,.23-.63,0-.14-.06-.21-.11-.21-.07-.04-.15-.05-.23-.05-.9,.18-1.76,.52-2.53,1.02Z"/>
      <path class="cls-9" d="M42.93,333.95c-.05-.04-.08-.1-.08-.16,0-.1,.19-2.23,1-2.93,.2-.18,.47-.26,.74-.22,.27,0,.51,.19,.57,.46,.15,.78-1.33,2.41-2.1,2.83h-.08l-.05,.02Zm1.19-2.87c-.52,.67-.82,1.48-.87,2.32,.76-.58,1.7-1.81,1.61-2.29,0,0,0-.18-.26-.18h-.08c-.15,0-.29,.05-.4,.15Z"/>
      <polygon class="cls-23" points="34.65 316.6 42.06 316.6 41.74 325.45 34.33 325.45 34.65 316.6"/>
      <polygon class="cls-28" points="72.17 334.3 79.82 335.11 81.25 318.63 73.61 317.82 72.17 334.3"/>
      <path class="cls-29" d="M80.62,332.65h-8.94c-.3,0-.56,.21-.63,.51l-1.46,6.6c-.15,.58,.2,1.17,.77,1.32,0,0,.01,0,.02,0h.24c2.91-.05,5-.23,8.69-.23,2.25,0,9,.23,12.15,.23s3.51-3.07,2.24-3.35c-5.71-1.24-10-3-11.83-4.61-.34-.31-.79-.47-1.25-.47Z"/>
      <path class="cls-9" d="M81.13,333.68c-.07-.02-.12-.08-.13-.15-.02-.07,.02-.14,.09-.17,.26-.17,2.65-1.64,3.47-1.21,.19,.08,.31,.27,.3,.48,.05,.36-.09,.72-.36,.95-.42,.28-.93,.41-1.43,.37-.65-.02-1.3-.11-1.94-.27Zm.51-.24c.87,.29,1.81,.24,2.64-.14,.18-.16,.26-.39,.23-.63,0-.14-.06-.2-.11-.2-.07-.04-.14-.06-.22-.05-.89,.17-1.74,.52-2.5,1.02h-.04Z"/>
      <path class="cls-9" d="M81.09,333.72c-.06-.03-.09-.09-.09-.16,0-.11,.19-2.23,1.05-2.93,.21-.17,.47-.26,.74-.23,.28,0,.51,.19,.57,.46,.15,.79-1.33,2.42-2.1,2.83h-.08l-.09,.03Zm1.18-2.88c-.52,.66-.82,1.47-.87,2.31,.76-.57,1.7-1.81,1.61-2.29,0,0,0-.18-.26-.18h-.07c-.15,0-.3,.06-.41,.16Z"/>
      <polygon class="cls-23" points="73.61 317.82 81.25 318.63 80.5 327.13 72.86 326.32 73.61 317.82"/>
      <path class="cls-29" d="M37.68,166.13h39.33c3.73,20.41,15.43,92.62,7,157l-13.31-1.65s1.23-85.41-10.51-117c-1.35,16.9-3,34.88-4.35,44.45-3.42,23.55-10.74,75-10.74,75h-13.51s2.77-49.26,4.05-72.4c1.4-25.15,2.04-80.24,2.04-85.4Z"/>
      <polygon class="cls-9" points="85.57 326.19 69.1 323.74 69.61 319.18 86.74 321.43 85.57 326.19"/>
      <polygon class="cls-9" points="46.77 324.02 30.79 324.02 30.79 319.25 47.37 318.94 46.77 324.02"/>
      <path class="cls-23" d="M60.23,204.45c1.93,5.54,3.4,11.22,4.39,17,1.1-15-3.3-31-3.3-31l-1.09,14Z"/>
      <path class="cls-9" d="M36.59,172.97l-.9,4.75s27.51,3.56,44.62,3.46l-.6-3.26-43.12-4.95Z"/>
      <path class="cls-28" d="M92.42,131.84s9.51,30,16,32,23-22.79,23-22.79c0,0,14.83-.14,15.49-1.15s-3.85-11.46-4.93-11.47-14,4.85-14.49,5.67-15.32,15-16,14.58-6.32-18.25-6.32-18.25l-12.75,1.41Z"/>
      <path class="cls-28" d="M133.38,139.43c.12-.02,.23-.05,.35-.09l-.17-.11c-.05,.07-.11,.14-.18,.2Z"/>
      <path class="cls-9" d="M87.02,128.38l1.16,2.13,5.41,10,1.13,2.07,15.19-5.28s-6.32-23.58-8.51-26l-14.38,17.08Z"/>
      <path class="cls-15" d="M87.02,128.38l1.16,2.13,5.41,10,1.13,2.07,15.19-5.28s-6.32-23.58-8.51-26l-14.38,17.08Z"/>
      <path class="cls-23" d="M88.18,130.51l5.41,10c3.35-6.57,2.38-15.57,2.38-15.57l-7.79,5.57Z"/>
      <path class="cls-9" d="M101.4,111.31c-5.78-6.68-14.05-10.69-22.88-11.1-14.88-.7-19.56,.78-25,5.64-7.95,7.1-17.84,68.23-17.84,68.23,14.51,4.04,29.58,5.68,44.62,4.85,0,0,.18-17,5.55-28.41,6.05-12.71,11.24-25.81,15.55-39.21Z"/>
      <path class="cls-15" d="M35.68,174.08c14.51,4.04,29.58,5.68,44.62,4.86,0,0,0-2.1,.29-5.31,.12-1.52,.3-3.3,.55-5.22s.61-4.11,1-6.29c.24-1.17,.52-2.35,.82-3.52,.7-2.78,1.65-5.49,2.84-8.09,.66-1.4,1.3-2.79,1.92-4.15,1.07-2.38,2.09-4.69,3-6.9,2-4.65,3.7-8.9,5.12-12.62,1-2.67,1.9-5.06,2.63-7.11,.81-2.29,1.45-4.17,1.92-5.57,.61-1.85,.91-2.86,.91-2.86-.5-.62-1.03-1.21-1.6-1.77-5.58-5.5-12.96-8.8-20.78-9.3h-.5c-11.34-.53-16.75,.2-21.09,2.73-1.4,.84-2.71,1.82-3.91,2.92-1.13,1.22-2.02,2.65-2.62,4.2-1.85,4.3-3.37,8.73-4.54,13.26l-.66,2.43c-1,3.71-1.94,7.66-2.84,11.66-.26,1.14-.51,2.28-.76,3.41-.37,1.74-.74,3.47-1.09,5.18-.9,4.31-1.71,8.49-2.42,12.25-1,5.4-1.81,9.92-2.29,12.73-.33,1.98-.52,3.08-.52,3.08Zm43.7-73.3c1,.03,2,.1,3,.23,4,.54,10.15,3.75,10,5.27s-2.49,5.4-8.47,4.46c-2.08-.38-4.06-1.21-5.8-2.42-3.3-2.18-5.7-5.13-5.94-6.09-.3-1.15,3.58-1.54,7.22-1.43v-.02Z"/>
      <path class="cls-9" d="M66.56,121.16s-7.88,19.07-9.5,34.92l21.31,2.72s9.56-25.77,11.54-33.83c0-.02-17.02-1.72-23.35-3.81Z"/>
      <polygon class="cls-15" points="85.75 125.7 88.71 125.99 86.54 127.67 85.75 125.7"/>
      <path class="cls-28" d="M74.15,102.28c1.61,4.6,7.6,6.7,10.74,7,2.38,.37,4.71-.89,5.7-3.08,0,0-3.59-1.79-3.23-3.8,.25-1.23,.76-2.39,1.48-3.42,.37-.59,.78-1.15,1.22-1.69l-5.75-12.33c-1.28,5.34-5.21,15.6-10.16,17.32Z"/>
      <path class="cls-23" d="M84.08,90.65c-2.74,6,1.13,10.13,3.28,11.71,.25-1.23,.76-2.39,1.48-3.42l-4.76-8.29Z"/>
      <path class="cls-28" d="M103.36,74.64s1.84,10.16-3.46,14.23-5.84-14.91-5.84-14.91l9.3,.68Z"/>
      <path class="cls-25" d="M103.36,74.64s1.84,10.16-3.46,14.23-5.84-14.91-5.84-14.91l9.3,.68Z"/>
      <path class="cls-28" d="M84.41,97.42c2.43,3.39,6.82,4.73,10.73,3.29,2.48-.87,4.54-2.66,5.75-5,.17-.31,.32-.65,.47-1,2.48-6.31,3-21.71-3.68-21.14-5.52,.47-10.92-1.23-13.74,3.54-.81,1.36-1.28,2.89-1.38,4.46-.6,7.36-1.3,11.63,1.85,15.85Z"/>
      <path class="cls-29" d="M93.29,85.21c-.12,.58,.16,1.11,.55,1.17s.77-.39,.86-1-.17-1.11-.55-1.16-.77,.39-.86,.99Z"/>
      <path class="cls-29" d="M99.98,86.16c-.12,.58,.17,1.11,.55,1.17s.77-.39,.85-1-.16-1.11-.55-1.17-.77,.44-.85,1Z"/>
      <path class="cls-19" d="M97.81,86.15c.45,1.91,1.16,3.74,2.11,5.46-.91,.47-1.97,.52-2.92,.13l.81-5.59Z"/>
      <path class="cls-29" d="M91.53,82.75c.12,.04,.26,0,.35-.09,.62-.64,1.51-.95,2.39-.84,.19,.04,.38-.08,.42-.27,.04-.18-.07-.37-.26-.41,0,0,0,0-.01,0h0c-1.1-.16-2.22,.21-3,1-.13,.14-.13,.36,0,.5h0s.07,.08,.11,.11Z"/>
      <path class="cls-29" d="M103.18,84.26c.06,.02,.14,.02,.2,0,.18-.04,.28-.22,.24-.4,0,0,0-.02,0-.03h0c-.32-1.08-1.15-1.94-2.22-2.3-.18-.06-.37,.04-.43,.22,0,0,0,.01,0,.02h0c-.05,.18,.06,.38,.24,.43h0c.84,.31,1.48,.99,1.74,1.85,.04,.11,.13,.18,.24,.21Z"/>
      <path class="cls-18" d="M92.36,92s1.23,2.64,3.74,2.54"/>
      <path class="cls-28" d="M89.17,73.31l.1,3.26c-1.18,.43-1.83,1.7-1.49,2.91,.78,2.8-1.15,6.86-3.38,8.34,0,0,0-1.18-1-1s-1.31,6.32,.34,9.41c0,0-3.53-3.25-4.58-9.82-1-6.07-.81-9.92,0-12.83l10.01-.27Z"/>
      <path class="cls-25" d="M89.17,73.31l.1,3.26c-1.18,.43-1.83,1.7-1.49,2.91,.78,2.8-1.15,6.86-3.38,8.34,0,0,0-1.18-1-1s-1.31,6.32,.34,9.41c0,0-3.53-3.25-4.58-9.82-1-6.07-.81-9.92,0-12.83l10.01-.27Z"/>
      <path class="cls-29" d="M78.6,77.22c3.57,.35,7.17,.13,10.67-.65,10.07-2,14.36,1.7,14.36,1.7,1.41-1.27,2.18-3.1,2.09-5-.29-2.9-4.32-3.39-4.32-3.39,0,0-1.21-3.27-3.88-4.26s-5.35,1.49-5.35,1.49c0,0-3.33-3.22-7.21-2.3-2.69,.55-4.63,2.91-4.65,5.66,0,0-4.55,.46-4.45,2.8s2.74,3.95,2.74,3.95Z"/>
      <ellipse class="cls-18" cx="94.07" cy="85.7" rx="3.27" ry="3.77"/>
      <path class="cls-18" d="M105.56,86.26c-.26,1.8-1.93,3.06-3.74,2.8-1.8-.26-3.06-1.93-2.8-3.74,.23-1.62,1.62-2.83,3.26-2.83,1.94,.15,3.4,1.83,3.27,3.77Z"/>
      <path class="cls-18" d="M97.33,86.15s1.06-.66,1.69,.11"/>
      <path class="cls-18" d="M90.8,85.7l-5.73-.77c-.75-.1-1.51,.11-2.11,.57l-.25,.2"/>
      <path class="cls-28" d="M78.54,87.08c.57,1.76,1.82,3.22,3.47,4.06,2.19,1.09,3.75-.75,3.53-3.06-.2-2.06-1.57-5.16-4-5.28-1.72-.06-3.16,1.29-3.22,3.01-.01,.43,.06,.86,.22,1.27Z"/>
      <path class="cls-23" d="M42,140.87c9.44-3.92,16.9-20.11,16.9-20.11l-5.36-3.24-7.28,5.85-.66,2.43c-1,3.71-1.94,7.66-2.84,11.66-.26,1.14-.51,2.28-.76,3.41Z"/>
      <polygon class="cls-9" points="93.99 142.59 110.27 136.61 110.74 137.99 94.45 143.79 93.99 142.59"/>
      <rect class="cls-9" x="11.17" y="170.67" width="29.47" height="47.78" transform="translate(-170.31 189.67) rotate(-80.99)"/>
      <polyline class="cls-5" points="21.31 187.34 11.72 192.31 19.3 200"/>
      <polyline class="cls-5" points="30.47 201.77 40.05 196.8 32.48 189.11"/>
      <line class="cls-5" x1="22.64" y1="200.53" x2="29.14" y2="188.58"/>
      <path class="cls-28" d="M47.89,108.46s-17.79,17.85-20.21,21.32-7.06,41.94-7.06,41.94c0,0-1,.34-1.06,1.17s-.16,11.63,0,12.13,8.34,5.55,9.55,4.35,2.89-13.43,2.89-13.43l-4.32-4.22s5-28.33,8.17-32.92,16.09-14.41,16.09-14.41l-4.05-15.93Z"/>
      <path class="cls-9" d="M61.56,101.27c2.59,5.49,.62,17.05-4.16,21.13-5.06,4.19-10.4,8.03-16,11.47l-8.72-11.43s9.28-9.06,14.9-14.28c3.82-3.71,8.71-6.12,13.98-6.89Z"/>
      <path class="cls-15" d="M61.56,101.27c2.59,5.49,.62,17.05-4.16,21.13-5.06,4.19-10.4,8.03-16,11.47l-8.72-11.43s9.28-9.06,14.9-14.28c3.82-3.71,8.71-6.12,13.98-6.89Z"/>
      <polygon class="cls-9" points="32.68 121.71 31.6 123.18 40.71 135.09 42 134.17 32.68 121.71"/>
    </g>
  </g>
</svg>